{
.appVersion = "1357";
DisplayStrings = (
"abcdefghi/jdotless jklmnopqrstuvwxyz",
ABCDEFGHIJKLMNOPQRSTUVWXYZ,
"/commaaccentcomb G/Gcommaaccent/Kcommaaccent/Lcommaaccent/Ncommaaccent/Rcommaaccent S/Scommaaccent/Tcommaaccent/kcommaaccent/lcommaaccent/ncommaaccent/rcommaaccent/scommaaccent/tcommaaccent",
"a/Placeholder a/space b/Placeholder b/space c/Placeholder c/space d/Placeholder d/space e/Placeholder e/space f/Placeholder f/space g/Placeholder g/space h/Placeholder h/space i/Placeholder i/space jjj/space k/Placeholder k/space l/Placeholder l/space m/Placeholder m/space n/Placeholder n/space o/Placeholder o/space p/Placeholder p/space q/Placeholder q/space r/Placeholder r/space s/Placeholder s/space t/Placeholder t/space u/Placeholder u/space v/Placeholder v/space w/Placeholder w/space x/Placeholder x/space y/Placeholder y/space z/Placeholder z\012nn/Placeholder no/Placeholder oo\012abcdefghijklmnopqrstuvwxyz\012fear/space fall/space kilo/space long/space ovoide/space want/space wind/space oxo/space zapato\012Twombli/space Tgmaiwan/space Taiwan/space Tomato/space Temperture/space Tiro/space Twardock/space Walking/space Wonder/space Wc/space Wd/space/space Wrcnder/space/space You/space Family/space Fear/space Furor/space Vocal/space Viajar/space Zusam/space Pearl/space Point/space Pain/space Ayuda/space \012Kilo/space Londres/space Leon/space Lio/space Month/space \012Th/uhorn/ohorn ng/space T/ocircumflexacute t/space t/acircumflexacute t/space Nh/acircumflexacute t/space V/ocircumflexgrave ng/space/Dcroat/uhornacute ng/space B/uhornacute t/space/Dcroat/ocircumflexacute c/space k/ydotbelow ./space ng/uhorn/ohorngrave i/space Ng/uhorn/ohorntilde ng",
"non@gmail.com",
"/ellipsis",
".non,non:non;run/ellipsis",
"/Ahookabove",
z,
"l/lcaron",
"d/dcaron e"
);
classes = (
{
automatic = 1;

glyphs = (
{
glyphname = .notdef;
lastChange = "2021-12-03 01:38:01 +0000";
layers = (
{
layerId = "04A772B0-FA71-43EE-BB43-CAC7F0EBD631";
paths = (
{
closed = 1;
nodes = (
"479 0 LINE",
"488 8 LINE",
"488 621 LINE",
"479 630 LINE",
"58 630 LINE",
"50 620 LINE",
"50 9 LINE",
"58 0 LINE"
);
},
{
closed = 1;
nodes = (
"154 150 LINE",
"244 316 LINE",
"154 479 LINE",
"173 514 LINE",
"263 350 LINE",
"354 514 LINE",
"373 479 LINE",
"283 314 LINE",
"373 150 LINE",
"354 116 LINE",
"263 279 LINE",
"173 116 LINE"
);
},
{
closed = 1;
nodes = (
"67 613 LINE",
"471 613 LINE",
"471 16 LINE",
"67 16 LINE"
);
},
{
closed = 1;
nodes = (
"437 49 LINE",
"437 577 LINE",
"102 577 LINE",
"102 49 LINE"
);
}
);
userData = {
assembly = "SVTCA[0]	/* SetFreedomAndProjectionVectorToAxis */\012PUSHW[ ]	/* 1 value pushed */\0122 \012MDAP[1]	/* MoveDirectAbsPt */\012PUSHW[ ]	/* 1 value pushed */\0120 \012RCVT[ ]	/* ReadCVT */\012IF[ ]	/* If */\012PUSHW[ ]	/* 1 value pushed */\0126 \012MDAP[1]	/* MoveDirectAbsPt */\012ELSE[ ]	/* Else */\012PUSHW[ ]	/* 2 values pushed */\0126 7 \012MIAP[0]	/* MoveIndirectAbsPt */\012EIF[ ]	/* EndIf */\012PUSHW[ ]	/* 3 values pushed */\01216 6 2 \012SRP1[ ]	/* SetRefPoint1 */\012SRP2[ ]	/* SetRefPoint2 */\012IP[ ]	/* InterpolatePts */\012PUSHW[ ]	/* 3 values pushed */\01217 6 2 \012SRP1[ ]	/* SetRefPoint1 */\012SRP2[ ]	/* SetRefPoint2 */\012IP[ ]	/* InterpolatePts */\012PUSHW[ ]	/* 3 values pushed */\01218 6 2 \012SRP1[ ]	/* SetRefPoint1 */\012SRP2[ ]	/* SetRefPoint2 */\012IP[ ]	/* InterpolatePts */\012PUSHW[ ]	/* 3 values pushed */\01222 6 2 \012SRP1[ ]	/* SetRefPoint1 */\012SRP2[ ]	/* SetRefPoint2 */\012IP[ ]	/* InterpolatePts */\012PUSHW[ ]	/* 3 values pushed */\01223 6 2 \012SRP1[ ]	/* SetRefPoint1 */\012SRP2[ ]	/* SetRefPoint2 */\012IP[ ]	/* InterpolatePts */\012PUSHW[ ]	/* 3 values pushed */\01224 6 2 \012SRP1[ ]	/* SetRefPoint1 */\012SRP2[ ]	/* SetRefPoint2 */\012IP[ ]	/* InterpolatePts */\012IUP[0]	/* InterpolateUntPts */\012IUP[1]	/* InterpolateUntPts */";
};
width = 538;
}
);
note = .notdef;
},
{
glyphname = A;
lastChange = "2021-12-03 03:19:38 +0000";
layers = (
{
anchors = (
{
name = bottom;
position = "{206, 0}";
},
{
name = ogonek;
position = "{414, 0}";
},
{
name = top;
position = "{206, 591}";
}
);
guideLines = (
{
position = "{2915, -291}";
}
);
layerId = "04A772B0-FA71-43EE-BB43-CAC7F0EBD631";
paths = (
{
closed = 1;
nodes = (
"415 0 LINE",
"335 591 LINE",
"85 591 LINE",
"3 0 LINE"
);
},
{
closed = 1;
nodes = (
"213 184 LINE",
"206 291 LINE",
"199 184 LINE"
);
},
{
closed = 1;
nodes = (
"100 573 LINE",
"320 573 LINE",
"395 18 LINE",
"221 18 LINE",
"213 96 LINE",
"198 96 LINE",
"192 18 LINE",
"23 18 LINE"
);
},
{
closed = 1;
nodes = (
"184 27 LINE",
"189 105 LINE",
"221 105 LINE",
"228 27 LINE",
"384 27 LINE",
"312 564 LINE",
"107 564 LINE",
"33 27 LINE"
);
},
{
closed = 1;
nodes = (
"206 450 LINE",
"221 175 LINE",
"190 175 LINE"
);
}
);
userData = {
assembly = "SVTCA[0]	/* SetFreedomAndProjectionVectorToAxis */\012PUSHW[ ]	/* 4 values pushed */\0129 4 2 4 \012CALL[ ]	/* CallFunction */\012PUSHW[ ]	/* 1 value pushed */\0129 \012SRP0[ ]	/* SetRefPoint0 */\012PUSHW[ ]	/* 2 values pushed */\0123 2 \012MIRP[10100]	/* MoveIndirectRelPt */\012PUSHW[ ]	/* 1 value pushed */\0122 \012SRP0[ ]	/* SetRefPoint0 */\012PUSHW[ ]	/* 1 value pushed */\0125 \012MDRP[10000]	/* MoveDirectRelPt */\012IUP[0]	/* InterpolateUntPts */\012IUP[1]	/* InterpolateUntPts */";
};
width = 418;
}
);
leftKerningGroup = A;
note = A;
rightKerningGroup = A;
unicode = 0041;
},
{
color = 8;
glyphname = Aogonek;
lastChange = "2021-12-03 03:52:48 +0000";
layers = (
{
anchors = (
{
name = bottom;
position = "{205, 0}";
},
{
name = ogonek;
position = "{406, 0}";
},
{
name = top;
position = "{205, 591}";
}
);
background = {
components = (
{
name = A;
},
{
name = ogonek;
transform = "{1, 0, 0, 1, 91, 0}";
}
);
};
layerId = "04A772B0-FA71-43EE-BB43-CAC7F0EBD631";
paths = (
{
closed = 1;
nodes = (
"407 -96 OFFCURVE",
"401 -99 OFFCURVE",
"392 -99 CURVE SMOOTH",
"376 -99 OFFCURVE",
"355 -85 OFFCURVE",
"355 -61 CURVE SMOOTH",
"355 -39 OFFCURVE",
"370 -10 OFFCURVE",
"406 0 CURVE",
"323 591 LINE",
"88 591 LINE",
"3 0 LINE",
"176 0 LINE",
"182 86 LINE",
"219 86 LINE",
"227 0 LINE",
"334 0 LINE",
"286 -10 OFFCURVE",
"257 -49 OFFCURVE",
"257 -83 CURVE SMOOTH",
"257 -117 OFFCURVE",
"292 -151 OFFCURVE",
"350 -151 CURVE SMOOTH",
"400 -151 OFFCURVE",
"420 -137 OFFCURVE",
"427 -133 CURVE",
"410 -96 LINE"
);
},
{
closed = 1;
nodes = (
"219 163 LINE",
"183 163 LINE",
"201 466 LINE"
);
}
);
width = 409;
}
);
leftKerningGroup = A;
rightKerningGroup = A;
unicode = 0104;
},
{
glyphname = AE;
lastChange = "2021-12-03 03:19:38 +0000";
layers = (
{
anchors = (
{
name = bottom;
position = "{259, 0}";
},
{
name = top;
position = "{300, 591}";
}
);
layerId = "04A772B0-FA71-43EE-BB43-CAC7F0EBD631";
paths = (
{
closed = 1;
nodes = (
"511 0 LINE",
"511 153 LINE",
"396 153 LINE",
"388 218 LINE",
"502 218 LINE",
"502 386 LINE",
"365 386 LINE",
"364 397 OFFCURVE",
"362 406 OFFCURVE",
"361 413 CURVE SMOOTH",
"357 436 LINE",
"511 436 LINE",
"511 591 LINE",
"80 591 LINE",
"-5 0 LINE"
);
},
{
closed = 1;
nodes = (
"211 184 LINE",
"204 302 LINE",
"197 184 LINE"
);
},
{
closed = 1;
nodes = (
"202 428 LINE",
"204 450 LINE",
"205 428 LINE",
"220 175 LINE",
"188 175 LINE"
);
},
{
closed = 1;
nodes = (
"95 573 LINE",
"493 573 LINE",
"493 454 LINE",
"336 454 LINE",
"338 439 OFFCURVE",
"340 424 OFFCURVE",
"343 411 CURVE SMOOTH",
"345 398 OFFCURVE",
"347 383 OFFCURVE",
"349 368 CURVE",
"484 368 LINE",
"484 236 LINE",
"367 236 LINE",
"369 219 OFFCURVE",
"371 202 OFFCURVE",
"374 186 CURVE SMOOTH",
"377 170 OFFCURVE",
"379 153 OFFCURVE",
"381 134 CURVE",
"493 134 LINE",
"493 18 LINE",
"219 18 LINE",
"211 96 LINE",
"196 96 LINE",
"190 18 LINE",
"16 18 LINE"
);
},
{
closed = 1;
nodes = (
"182 27 LINE",
"187 105 LINE",
"220 105 LINE",
"227 27 LINE",
"484 27 LINE",
"484 125 LINE",
"373 125 LINE",
"357 245 LINE",
"475 245 LINE",
"475 359 LINE",
"341 359 LINE",
"327 463 LINE",
"484 463 LINE",
"484 564 LINE",
"103 564 LINE",
"27 27 LINE"
);
}
);
userData = {
assembly = "SVTCA[0]	/* SetFreedomAndProjectionVectorToAxis */\012PUSHW[ ]	/* 4 values pushed */\01227 3 14 4 \012CALL[ ]	/* CallFunction */\012PUSHW[ ]	/* 1 value pushed */\01214 \012SRP0[ ]	/* SetRefPoint0 */\012PUSHW[ ]	/* 1 value pushed */\0122 \012MDRP[10000]	/* MoveDirectRelPt */\012IUP[0]	/* InterpolateUntPts */\012IUP[1]	/* InterpolateUntPts */";
};
width = 528;
}
);
leftKerningGroup = AE;
note = AE;
rightKerningGroup = E;
rightMetricsKey = E;
unicode = 00C6;
},
{
glyphname = B;
lastChange = "2021-12-03 03:19:38 +0000";
layers = (
{
layerId = "04A772B0-FA71-43EE-BB43-CAC7F0EBD631";
paths = (
{
closed = 1;
nodes = (
"242 0 LINE SMOOTH",
"339 0 OFFCURVE",
"397 34 OFFCURVE",
"397 141 CURVE SMOOTH",
"397 211 LINE SMOOTH",
"397 263 OFFCURVE",
"382 299 OFFCURVE",
"353 320 CURVE",
"374 344 OFFCURVE",
"384 375 OFFCURVE",
"384 414 CURVE SMOOTH",
"384 472 LINE SMOOTH",
"384 543 OFFCURVE",
"345 591 OFFCURVE",
"250 591 CURVE SMOOTH",
"25 591 LINE",
"25 0 LINE"
);
},
{
closed = 1;
nodes = (
"193 253 LINE",
"206 253 LINE SMOOTH",
"214 253 OFFCURVE",
"219 246 OFFCURVE",
"220 231 CURVE SMOOTH",
"221 216 OFFCURVE",
"222 198 OFFCURVE",
"222 177 CURVE SMOOTH",
"222 156 OFFCURVE",
"221 138 OFFCURVE",
"219 123 CURVE SMOOTH",
"216 108 OFFCURVE",
"212 101 OFFCURVE",
"206 101 CURVE SMOOTH",
"193 101 LINE"
);
},
{
closed = 1;
nodes = (
"206 110 LINE SMOOTH",
"209 110 OFFCURVE",
"211 117 OFFCURVE",
"212 130 CURVE SMOOTH",
"213 143 OFFCURVE",
"213 158 OFFCURVE",
"213 177 CURVE SMOOTH",
"213 196 OFFCURVE",
"213 212 OFFCURVE",
"212 225 CURVE SMOOTH",
"211 238 OFFCURVE",
"209 244 OFFCURVE",
"206 244 CURVE SMOOTH",
"202 244 LINE",
"202 110 LINE"
);
},
{
closed = 1;
nodes = (
"42 573 LINE",
"250 573 LINE SMOOTH",
"333 573 OFFCURVE",
"366 532 OFFCURVE",
"366 472 CURVE SMOOTH",
"366 414 LINE SMOOTH",
"366 371 OFFCURVE",
"352 336 OFFCURVE",
"319 317 CURVE",
"358 305 OFFCURVE",
"379 271 OFFCURVE",
"379 211 CURVE SMOOTH",
"379 141 LINE SMOOTH",
"379 49 OFFCURVE",
"330 18 OFFCURVE",
"242 18 CURVE SMOOTH",
"42 18 LINE"
);
},
{
closed = 1;
nodes = (
"242 27 LINE SMOOTH",
"322 27 OFFCURVE",
"371 54 OFFCURVE",
"371 141 CURVE SMOOTH",
"371 211 LINE SMOOTH",
"371 282 OFFCURVE",
"331 314 OFFCURVE",
"282 314 CURVE",
"282 316 LINE",
"337 323 OFFCURVE",
"358 363 OFFCURVE",
"358 414 CURVE SMOOTH",
"358 472 LINE SMOOTH",
"358 527 OFFCURVE",
"326 564 OFFCURVE",
"250 564 CURVE SMOOTH",
"50 564 LINE",
"50 27 LINE"
);
},
{
closed = 1;
nodes = (
"193 488 LINE",
"206 488 LINE SMOOTH",
"214 488 OFFCURVE",
"219 481 OFFCURVE",
"220 467 CURVE SMOOTH",
"221 453 OFFCURVE",
"222 436 OFFCURVE",
"222 415 CURVE SMOOTH",
"222 395 OFFCURVE",
"221 378 OFFCURVE",
"218 364 CURVE SMOOTH",
"215 350 OFFCURVE",
"210 343 OFFCURVE",
"204 343 CURVE SMOOTH",
"193 343 LINE"
);
},
{
closed = 1;
nodes = (
"204 352 LINE SMOOTH",
"207 352 OFFCURVE",
"210 358 OFFCURVE",
"211 371 CURVE SMOOTH",
"212 383 OFFCURVE",
"213 398 OFFCURVE",
"213 415 CURVE SMOOTH",
"213 432 OFFCURVE",
"213 447 OFFCURVE",
"212 460 CURVE SMOOTH",
"211 472 OFFCURVE",
"209 478 OFFCURVE",
"206 478 CURVE SMOOTH",
"202 478 LINE",
"202 352 LINE"
);
}
);
userData = {
assembly = "SVTCA[0]	/* SetFreedomAndProjectionVectorToAxis */\012PUSHW[ ]	/* 4 values pushed */\01219 2 16 4 \012CALL[ ]	/* CallFunction */\012PUSHW[ ]	/* 4 values pushed */\01228 1 25 4 \012CALL[ ]	/* CallFunction */\012PUSHW[ ]	/* 3 values pushed */\0129 25 28 \012SRP1[ ]	/* SetRefPoint1 */\012SRP2[ ]	/* SetRefPoint2 */\012IP[ ]	/* InterpolatePts */\012PUSHW[ ]	/* 3 values pushed */\01264 25 28 \012SRP1[ ]	/* SetRefPoint1 */\012SRP2[ ]	/* SetRefPoint2 */\012IP[ ]	/* InterpolatePts */\012IUP[0]	/* InterpolateUntPts */\012IUP[1]	/* InterpolateUntPts */";
};
width = 412;
}
);
leftKerningGroup = H;
leftMetricsKey = H;
note = B;
rightKerningGroup = B;
rightMetricsKey = "=O-5";
unicode = 0042;
},
{
glyphname = C;
lastChange = "2021-12-03 03:19:38 +0000";
layers = (
{
anchors = (
{
name = bottom;
position = "{205, 0}";
},
{
name = top;
position = "{202, 591}";
}
);
layerId = "04A772B0-FA71-43EE-BB43-CAC7F0EBD631";
paths = (
{
closed = 1;
nodes = (
"324 -10 OFFCURVE",
"377 30 OFFCURVE",
"377 187 CURVE SMOOTH",
"377 280 LINE",
"214 280 LINE",
"214 298 LINE",
"377 298 LINE",
"377 450 LINE SMOOTH",
"377 559 OFFCURVE",
"311 600 OFFCURVE",
"202 600 CURVE SMOOTH",
"92 600 OFFCURVE",
"20 558 OFFCURVE",
"20 450 CURVE SMOOTH",
"20 186 LINE SMOOTH",
"20 30 OFFCURVE",
"80 -10 OFFCURVE",
"202 -10 CURVE SMOOTH"
);
},
{
closed = 1;
nodes = (
"92 8 OFFCURVE",
"37 45 OFFCURVE",
"37 186 CURVE SMOOTH",
"37 450 LINE SMOOTH",
"37 546 OFFCURVE",
"103 582 OFFCURVE",
"202 582 CURVE SMOOTH",
"301 582 OFFCURVE",
"360 546 OFFCURVE",
"360 450 CURVE SMOOTH",
"360 316 LINE",
"207 316 LINE",
"207 457 LINE SMOOTH",
"207 471 OFFCURVE",
"207 475 OFFCURVE",
"202 475 CURVE SMOOTH",
"198 475 OFFCURVE",
"196 471 OFFCURVE",
"196 457 CURVE SMOOTH",
"196 128 LINE SMOOTH",
"196 116 OFFCURVE",
"198 110 OFFCURVE",
"202 110 CURVE SMOOTH",
"205 110 OFFCURVE",
"207 116 OFFCURVE",
"207 128 CURVE SMOOTH",
"207 262 LINE",
"360 262 LINE",
"360 187 LINE SMOOTH",
"360 45 OFFCURVE",
"311 8 OFFCURVE",
"202 8 CURVE SMOOTH"
);
},
{
closed = 1;
nodes = (
"307 17 OFFCURVE",
"351 52 OFFCURVE",
"351 187 CURVE SMOOTH",
"351 253 LINE",
"215 253 LINE",
"215 128 LINE SMOOTH",
"215 118 OFFCURVE",
"214 111 OFFCURVE",
"211 107 CURVE SMOOTH",
"208 103 OFFCURVE",
"205 101 OFFCURVE",
"202 101 CURVE SMOOTH",
"197 101 OFFCURVE",
"194 103 OFFCURVE",
"192 107 CURVE SMOOTH",
"189 111 OFFCURVE",
"188 118 OFFCURVE",
"188 128 CURVE SMOOTH",
"188 457 LINE SMOOTH",
"188 472 OFFCURVE",
"190 484 OFFCURVE",
"202 484 CURVE SMOOTH",
"213 484 OFFCURVE",
"215 472 OFFCURVE",
"215 457 CURVE SMOOTH",
"215 325 LINE",
"351 325 LINE",
"351 450 LINE SMOOTH",
"351 541 OFFCURVE",
"295 573 OFFCURVE",
"202 573 CURVE SMOOTH",
"107 573 OFFCURVE",
"46 539 OFFCURVE",
"46 450 CURVE SMOOTH",
"46 186 LINE SMOOTH",
"46 51 OFFCURVE",
"96 17 OFFCURVE",
"202 17 CURVE SMOOTH"
);
}
);
width = 395;
}
);
leftKerningGroup = O;
leftMetricsKey = O;
note = C;
rightKerningGroup = C;
unicode = 0043;
},
{
color = 8;
glyphname = Ccedilla;
lastChange = "2021-12-03 03:53:48 +0000";
layers = (
{
anchors = (
{
name = bottom;
position = "{212, -168}";
},
{
name = top;
position = "{198, 591}";
}
);
background = {
components = (
{
name = C;
},
{
name = cedilla;
}
);
};
layerId = "04A772B0-FA71-43EE-BB43-CAC7F0EBD631";
paths = (
{
closed = 1;
nodes = (
"377 564 OFFCURVE",
"311 600 OFFCURVE",
"202 600 CURVE SMOOTH",
"93 600 OFFCURVE",
"20 564 OFFCURVE",
"20 465 CURVE SMOOTH",
"20 173 LINE SMOOTH",
"20 32 OFFCURVE",
"77 -4 OFFCURVE",
"166 -11 CURVE",
"140 -64 LINE",
"181 -86 LINE",
"183 -84 OFFCURVE",
"188 -80 OFFCURVE",
"196 -80 CURVE SMOOTH",
"205 -80 OFFCURVE",
"213 -86 OFFCURVE",
"213 -96 CURVE SMOOTH",
"213 -112 OFFCURVE",
"203 -121 OFFCURVE",
"186 -121 CURVE SMOOTH",
"173 -121 OFFCURVE",
"153 -114 OFFCURVE",
"144 -106 CURVE",
"126 -153 LINE",
"135 -159 OFFCURVE",
"164 -174 OFFCURVE",
"193 -174 CURVE SMOOTH",
"259 -174 OFFCURVE",
"297 -139 OFFCURVE",
"297 -99 CURVE SMOOTH",
"297 -70 OFFCURVE",
"274 -39 OFFCURVE",
"234 -39 CURVE SMOOTH",
"222 -39 OFFCURVE",
"213 -41 OFFCURVE",
"205 -44 CURVE",
"221 -12 LINE",
"319 -8 OFFCURVE",
"377 24 OFFCURVE",
"377 174 CURVE SMOOTH",
"377 248 LINE",
"218 248 LINE",
"218 110 LINE SMOOTH",
"218 87 OFFCURVE",
"211 80 OFFCURVE",
"202 80 CURVE SMOOTH",
"192 80 OFFCURVE",
"186 87 OFFCURVE",
"186 110 CURVE SMOOTH",
"186 473 LINE SMOOTH",
"186 496 OFFCURVE",
"192 503 OFFCURVE",
"202 503 CURVE SMOOTH",
"211 503 OFFCURVE",
"218 496 OFFCURVE",
"218 473 CURVE SMOOTH",
"218 327 LINE",
"377 327 LINE",
"377 465 LINE SMOOTH"
);
}
);
width = 395;
}
);
leftKerningGroup = O;
rightKerningGroup = C;
unicode = 00C7;
},
{
glyphname = D;
lastChange = "2021-12-03 03:19:38 +0000";
layers = (
{
anchors = (
{
name = bottom;
position = "{206, 0}";
},
{
name = center;
position = "{77, 296}";
},
{
name = top;
position = "{194, 591}";
}
);
layerId = "04A772B0-FA71-43EE-BB43-CAC7F0EBD631";
paths = (
{
closed = 1;
nodes = (
"229 0 LINE SMOOTH",
"325 0 OFFCURVE",
"382 34.333 OFFCURVE",
"382 141 CURVE SMOOTH",
"382 472 LINE SMOOTH",
"382 542.667 OFFCURVE",
"343.333 591 OFFCURVE",
"250 591 CURVE SMOOTH",
"25 591 LINE",
"25 0 LINE"
);
},
{
closed = 1;
nodes = (
"193 484 LINE",
"206 484 LINE SMOOTH",
"210.667 484 OFFCURVE",
"214.333 482.167 OFFCURVE",
"217 478.5 CURVE SMOOTH",
"219.667 474.833 OFFCURVE",
"221 467.667 OFFCURVE",
"221 457 CURVE SMOOTH",
"221 127 LINE SMOOTH",
"221 116.333 OFFCURVE",
"219.667 109.167 OFFCURVE",
"217 105.5 CURVE SMOOTH",
"214.333 101.833 OFFCURVE",
"210.667 100 OFFCURVE",
"206 100 CURVE SMOOTH",
"193 100 LINE"
);
},
{
closed = 1;
nodes = (
"206 109 LINE SMOOTH",
"207.333 109 OFFCURVE",
"208.667 110.167 OFFCURVE",
"210 112.5 CURVE SMOOTH",
"211.333 114.833 OFFCURVE",
"212 119.667 OFFCURVE",
"212 127 CURVE SMOOTH",
"212 457 LINE SMOOTH",
"212 469 OFFCURVE",
"210 475 OFFCURVE",
"206 475 CURVE SMOOTH",
"202 475 LINE",
"202 109 LINE"
);
},
{
closed = 1;
nodes = (
"43 573 LINE",
"250 573 LINE SMOOTH",
"331.333 573 OFFCURVE",
"365 532 OFFCURVE",
"365 472 CURVE SMOOTH",
"365 141 LINE SMOOTH",
"365 49.677 OFFCURVE",
"316.261 18 OFFCURVE",
"229 18 CURVE SMOOTH",
"43 18 LINE"
);
},
{
closed = 1;
nodes = (
"229 27 LINE SMOOTH",
"309 27 OFFCURVE",
"357 54.333 OFFCURVE",
"357 141 CURVE SMOOTH",
"357 472 LINE SMOOTH",
"357 526.667 OFFCURVE",
"326 564 OFFCURVE",
"250 564 CURVE SMOOTH",
"51 564 LINE",
"51 27 LINE"
);
}
);
userData = {
assembly = "PUSHW[ ]	/* 4 values pushed */\01235 6 8 4 \012CALL[ ]	/* CallFunction */\012PUSHW[ ]	/* 1 value pushed */\01235 \012SRP0[ ]	/* SetRefPoint0 */\012PUSHW[ ]	/* 1 value pushed */\01252 \012MDRP[11100]	/* MoveDirectRelPt */\012SVTCA[0]	/* SetFreedomAndProjectionVectorToAxis */\012PUSHW[ ]	/* 4 values pushed */\01216 2 8 4 \012CALL[ ]	/* CallFunction */\012IUP[0]	/* InterpolateUntPts */\012IUP[1]	/* InterpolateUntPts */";
};
width = 402;
}
);
leftKerningGroup = H;
leftMetricsKey = H;
note = D;
rightKerningGroup = O;
rightMetricsKey = O;
unicode = 0044;
},
{
glyphname = Eth;
lastChange = "2021-12-03 03:19:38 +0000";
layers = (
{
layerId = "04A772B0-FA71-43EE-BB43-CAC7F0EBD631";
paths = (
{
closed = 1;
nodes = (
"255 0 LINE SMOOTH",
"412 0 OFFCURVE",
"423 64 OFFCURVE",
"423 232 CURVE SMOOTH",
"423 380 LINE SMOOTH",
"423 544 OFFCURVE",
"418 591 OFFCURVE",
"262 591 CURVE SMOOTH",
"39 591 LINE",
"39 300 LINE",
"7 300 LINE",
"7 163 LINE",
"39 163 LINE",
"39 0 LINE"
);
},
{
closed = 1;
nodes = (
"56 182 LINE",
"25 182 LINE",
"25 282 LINE",
"56 282 LINE",
"56 573 LINE",
"262 573 LINE SMOOTH",
"403 573 OFFCURVE",
"406 527 OFFCURVE",
"406 380 CURVE SMOOTH",
"406 232 LINE SMOOTH",
"406 77 OFFCURVE",
"395 18 OFFCURVE",
"255 18 CURVE SMOOTH",
"56 18 LINE"
);
},
{
closed = 1;
nodes = (
"255 27 LINE SMOOTH",
"388 27 OFFCURVE",
"397 85 OFFCURVE",
"397 232 CURVE SMOOTH",
"397 380 LINE SMOOTH",
"397 521 OFFCURVE",
"394 564 OFFCURVE",
"262 564 CURVE SMOOTH",
"65 564 LINE",
"65 273 LINE",
"33 273 LINE",
"33 191 LINE",
"65 191 LINE",
"65 27 LINE"
);
},
{
closed = 1;
nodes = (
"212 191 LINE",
"229 191 LINE",
"229 273 LINE",
"212 273 LINE",
"212 488 LINE",
"232 488 LINE SMOOTH",
"245 488 OFFCURVE",
"254 482 OFFCURVE",
"254 461 CURVE SMOOTH",
"254 129 LINE SMOOTH",
"254 106 OFFCURVE",
"245 101 OFFCURVE",
"232 101 CURVE SMOOTH",
"212 101 LINE"
);
},
{
closed = 1;
nodes = (
"232 110 LINE SMOOTH",
"240 110 OFFCURVE",
"245 114 OFFCURVE",
"245 129 CURVE SMOOTH",
"245 326 LINE SMOOTH",
"245 342 OFFCURVE",
"245 362 OFFCURVE",
"246 386 CURVE SMOOTH",
"246 461 LINE SMOOTH",
"246 476 OFFCURVE",
"240 479 OFFCURVE",
"232 479 CURVE SMOOTH",
"220 479 LINE",
"220 282 LINE",
"238 282 LINE",
"238 182 LINE",
"220 182 LINE",
"220 110 LINE"
);
}
);
userData = {
assembly = "PUSHW[ ]	/* 4 values pushed */\0127 6 18 4 \012CALL[ ]	/* CallFunction */\012PUSHW[ ]	/* 1 value pushed */\01218 \012SRP0[ ]	/* SetRefPoint0 */\012PUSHW[ ]	/* 1 value pushed */\01231 \012MDRP[10000]	/* MoveDirectRelPt */\012PUSHW[ ]	/* 1 value pushed */\0127 \012SRP0[ ]	/* SetRefPoint0 */\012PUSHW[ ]	/* 1 value pushed */\01287 \012MDRP[11100]	/* MoveDirectRelPt */\012SVTCA[0]	/* SetFreedomAndProjectionVectorToAxis */\012PUSHW[ ]	/* 4 values pushed */\01228 2 13 4 \012CALL[ ]	/* CallFunction */\012PUSHW[ ]	/* 4 values pushed */\0120 2 15 4 \012CALL[ ]	/* CallFunction */\012PUSHW[ ]	/* 1 value pushed */\0120 \012SRP0[ ]	/* SetRefPoint0 */\012PUSHW[ ]	/* 1 value pushed */\01223 \012MDRP[10000]	/* MoveDirectRelPt */\012PUSHW[ ]	/* 1 value pushed */\01215 \012SRP0[ ]	/* SetRefPoint0 */\012PUSHW[ ]	/* 1 value pushed */\01225 \012MDRP[10000]	/* MoveDirectRelPt */\012IUP[0]	/* InterpolateUntPts */\012IUP[1]	/* InterpolateUntPts */";
};
width = 443;
}
);
leftKerningGroup = H;
note = Eth;
rightKerningGroup = O;
rightMetricsKey = O;
unicode = 00D0;
},
{
glyphname = Dcroat;
lastChange = "2021-12-03 03:19:38 +0000";
layers = (
{
layerId = "04A772B0-FA71-43EE-BB43-CAC7F0EBD631";
paths = (
{
closed = 1;
nodes = (
"255 0 LINE SMOOTH",
"412 0 OFFCURVE",
"423 64 OFFCURVE",
"423 232 CURVE SMOOTH",
"423 380 LINE SMOOTH",
"423 544 OFFCURVE",
"418 591 OFFCURVE",
"262 591 CURVE SMOOTH",
"39 591 LINE",
"39 300 LINE",
"7 300 LINE",
"7 163 LINE",
"39 163 LINE",
"39 0 LINE"
);
},
{
closed = 1;
nodes = (
"56 182 LINE",
"25 182 LINE",
"25 282 LINE",
"56 282 LINE",
"56 573 LINE",
"262 573 LINE SMOOTH",
"403 573 OFFCURVE",
"406 527 OFFCURVE",
"406 380 CURVE SMOOTH",
"406 232 LINE SMOOTH",
"406 77 OFFCURVE",
"395 18 OFFCURVE",
"255 18 CURVE SMOOTH",
"56 18 LINE"
);
},
{
closed = 1;
nodes = (
"255 27 LINE SMOOTH",
"388 27 OFFCURVE",
"397 85 OFFCURVE",
"397 232 CURVE SMOOTH",
"397 380 LINE SMOOTH",
"397 521 OFFCURVE",
"394 564 OFFCURVE",
"262 564 CURVE SMOOTH",
"65 564 LINE",
"65 273 LINE",
"33 273 LINE",
"33 191 LINE",
"65 191 LINE",
"65 27 LINE"
);
},
{
closed = 1;
nodes = (
"212 191 LINE",
"229 191 LINE",
"229 273 LINE",
"212 273 LINE",
"212 488 LINE",
"232 488 LINE SMOOTH",
"245 488 OFFCURVE",
"254 482 OFFCURVE",
"254 461 CURVE SMOOTH",
"254 129 LINE SMOOTH",
"254 106 OFFCURVE",
"245 101 OFFCURVE",
"232 101 CURVE SMOOTH",
"212 101 LINE"
);
},
{
closed = 1;
nodes = (
"232 110 LINE SMOOTH",
"240 110 OFFCURVE",
"245 114 OFFCURVE",
"245 129 CURVE SMOOTH",
"245 326 LINE SMOOTH",
"245 342 OFFCURVE",
"245 362 OFFCURVE",
"246 386 CURVE SMOOTH",
"246 461 LINE SMOOTH",
"246 476 OFFCURVE",
"240 479 OFFCURVE",
"232 479 CURVE SMOOTH",
"220 479 LINE",
"220 282 LINE",
"238 282 LINE",
"238 182 LINE",
"220 182 LINE",
"220 110 LINE"
);
}
);
userData = {
assembly = "PUSHW[ ]	/* 4 values pushed */\0127 6 18 4 \012CALL[ ]	/* CallFunction */\012PUSHW[ ]	/* 1 value pushed */\01218 \012SRP0[ ]	/* SetRefPoint0 */\012PUSHW[ ]	/* 1 value pushed */\01231 \012MDRP[10000]	/* MoveDirectRelPt */\012PUSHW[ ]	/* 1 value pushed */\0127 \012SRP0[ ]	/* SetRefPoint0 */\012PUSHW[ ]	/* 1 value pushed */\01287 \012MDRP[11100]	/* MoveDirectRelPt */\012SVTCA[0]	/* SetFreedomAndProjectionVectorToAxis */\012PUSHW[ ]	/* 4 values pushed */\01228 2 13 4 \012CALL[ ]	/* CallFunction */\012PUSHW[ ]	/* 4 values pushed */\0120 2 15 4 \012CALL[ ]	/* CallFunction */\012PUSHW[ ]	/* 1 value pushed */\0120 \012SRP0[ ]	/* SetRefPoint0 */\012PUSHW[ ]	/* 1 value pushed */\01223 \012MDRP[10000]	/* MoveDirectRelPt */\012PUSHW[ ]	/* 1 value pushed */\01215 \012SRP0[ ]	/* SetRefPoint0 */\012PUSHW[ ]	/* 1 value pushed */\01225 \012MDRP[10000]	/* MoveDirectRelPt */\012IUP[0]	/* InterpolateUntPts */\012IUP[1]	/* InterpolateUntPts */";
};
width = 443;
}
);
leftKerningGroup = H;
note = Dcroat;
rightKerningGroup = O;
unicode = 0110;
},
{
glyphname = E;
lastChange = "2021-12-03 03:19:38 +0000";
layers = (
{
anchors = (
{
name = bottom;
position = "{171, 0}";
},
{
name = ogonek;
position = "{308, 10}";
},
{
name = top;
position = "{171, 591}";
},
{
name = topleft;
position = "{20, 591}";
}
);
layerId = "04A772B0-FA71-43EE-BB43-CAC7F0EBD631";
paths = (
{
closed = 1;
nodes = (
"311 0 LINE",
"311 153 LINE",
"211 153 LINE",
"211 218 LINE",
"302 218 LINE",
"302 386 LINE",
"211 386 LINE",
"211 436 LINE",
"311 436 LINE",
"311 591 LINE",
"25 591 LINE",
"25 0 LINE"
);
},
{
closed = 1;
nodes = (
"41 573 LINE",
"294 573 LINE",
"294 454 LINE",
"195 454 LINE",
"195 368 LINE",
"286 368 LINE",
"286 236 LINE",
"195 236 LINE",
"195 134 LINE",
"294 134 LINE",
"294 18 LINE",
"41 18 LINE"
);
},
{
closed = 1;
nodes = (
"286 27 LINE",
"286 125 LINE",
"187 125 LINE",
"187 245 LINE",
"278 245 LINE",
"278 359 LINE",
"187 359 LINE",
"187 463 LINE",
"286 463 LINE",
"286 564 LINE",
"49 564 LINE",
"49 27 LINE"
);
}
);
userData = {
assembly = "SVTCA[0]	/* SetFreedomAndProjectionVectorToAxis */\012PUSHW[ ]	/* 4 values pushed */\0129 3 10 4 \012CALL[ ]	/* CallFunction */\012IUP[0]	/* InterpolateUntPts */\012IUP[1]	/* InterpolateUntPts */";
};
width = 328;
}
);
leftKerningGroup = H;
leftMetricsKey = H;
note = E;
rightKerningGroup = E;
unicode = 0045;
},
{
color = 8;
glyphname = Eogonek;
lastChange = "2021-12-03 03:52:48 +0000";
layers = (
{
anchors = (
{
name = bottom;
position = "{164, 0}";
},
{
name = ogonek;
position = "{287, 0}";
},
{
name = top;
position = "{167, 591}";
},
{
name = topleft;
position = "{20, 591}";
}
);
background = {
components = (
{
name = E;
},
{
name = ogonek;
}
);
};
layerId = "04A772B0-FA71-43EE-BB43-CAC7F0EBD631";
paths = (
{
closed = 1;
nodes = (
"25 591 LINE",
"25 0 LINE",
"215 0 LINE",
"167 -10 OFFCURVE",
"138 -49 OFFCURVE",
"138 -83 CURVE SMOOTH",
"138 -117 OFFCURVE",
"173 -151 OFFCURVE",
"231 -151 CURVE SMOOTH",
"281 -151 OFFCURVE",
"301 -137 OFFCURVE",
"308 -133 CURVE",
"291 -96 LINE",
"288 -96 OFFCURVE",
"282 -99 OFFCURVE",
"273 -99 CURVE SMOOTH",
"257 -99 OFFCURVE",
"236 -85 OFFCURVE",
"236 -61 CURVE SMOOTH",
"236 -39 OFFCURVE",
"251 -10 OFFCURVE",
"287 0 CURVE",
"311 0 LINE",
"311 108 LINE",
"191 108 LINE",
"191 240 LINE",
"301 240 LINE",
"301 365 LINE",
"191 365 LINE",
"191 480 LINE",
"311 480 LINE",
"311 591 LINE"
);
}
);
width = 328;
}
);
leftKerningGroup = H;
rightKerningGroup = E;
unicode = 0118;
},
{
glyphname = F;
lastChange = "2021-12-03 03:19:38 +0000";
layers = (
{
layerId = "04A772B0-FA71-43EE-BB43-CAC7F0EBD631";
paths = (
{
closed = 1;
nodes = (
"211 0 LINE",
"211 218 LINE",
"302 218 LINE",
"302 386 LINE",
"211 386 LINE",
"211 436 LINE",
"311 436 LINE",
"311 591 LINE",
"25 591 LINE",
"25 0 LINE"
);
},
{
closed = 1;
nodes = (
"41 573 LINE",
"294 573 LINE",
"294 454 LINE",
"195 454 LINE",
"195 368 LINE",
"286 368 LINE",
"286 236 LINE",
"195 236 LINE",
"195 18 LINE",
"41 18 LINE"
);
},
{
closed = 1;
nodes = (
"187 27 LINE",
"187 245 LINE",
"278 245 LINE",
"278 359 LINE",
"187 359 LINE",
"187 463 LINE",
"286 463 LINE",
"286 564 LINE",
"49 564 LINE",
"49 27 LINE"
);
}
);
userData = {
assembly = "SVTCA[0]	/* SetFreedomAndProjectionVectorToAxis */\012PUSHW[ ]	/* 1 value pushed */\0128 \012MDAP[1]	/* MoveDirectAbsPt */\012IUP[0]	/* InterpolateUntPts */\012IUP[1]	/* InterpolateUntPts */";
};
width = 326;
}
);
leftKerningGroup = H;
leftMetricsKey = H;
note = F;
rightKerningGroup = F;
unicode = 0046;
},
{
glyphname = G;
lastChange = "2021-12-03 03:19:38 +0000";
layers = (
{
anchors = (
{
name = bottom;
position = "{228, 0}";
},
{
name = top;
position = "{205, 591}";
}
);
layerId = "04A772B0-FA71-43EE-BB43-CAC7F0EBD631";
paths = (
{
closed = 1;
nodes = (
"187 -9 OFFCURVE",
"208 1 OFFCURVE",
"225 16 CURVE",
"228 0 LINE",
"377 0 LINE",
"377 339 LINE",
"377 449 LINE SMOOTH",
"377 557 OFFCURVE",
"305 599 OFFCURVE",
"196 599 CURVE SMOOTH",
"89 599 OFFCURVE",
"20 558 OFFCURVE",
"20 449 CURVE SMOOTH",
"20 165 LINE SMOOTH",
"20 33 OFFCURVE",
"75 -9 OFFCURVE",
"156 -9 CURVE SMOOTH"
);
},
{
closed = 1;
nodes = (
"208 109 OFFCURVE",
"211 115 OFFCURVE",
"211 127 CURVE SMOOTH",
"211 221 LINE",
"190 221 LINE",
"190 127 LINE SMOOTH",
"190 115 OFFCURVE",
"194 109 OFFCURVE",
"201 109 CURVE SMOOTH"
);
},
{
closed = 1;
nodes = (
"85 9 OFFCURVE",
"37 47 OFFCURVE",
"37 165 CURVE SMOOTH",
"37 449 LINE SMOOTH",
"37 544 OFFCURVE",
"100 581 OFFCURVE",
"196 581 CURVE SMOOTH",
"293 581 OFFCURVE",
"360 544 OFFCURVE",
"360 449 CURVE SMOOTH",
"360 358 LINE",
"211 358 LINE",
"211 458 LINE SMOOTH",
"211 470 OFFCURVE",
"208 476 OFFCURVE",
"201 476 CURVE SMOOTH",
"194 476 OFFCURVE",
"190 470 OFFCURVE",
"190 458 CURVE SMOOTH",
"190 320 LINE",
"360 320 LINE",
"360 18 LINE",
"242 18 LINE",
"233 55 LINE",
"221 31 OFFCURVE",
"199 9 OFFCURVE",
"156 9 CURVE SMOOTH"
);
},
{
closed = 1;
nodes = (
"205 18 OFFCURVE",
"226 54 OFFCURVE",
"237 84 CURVE",
"249 27 LINE",
"351 27 LINE",
"351 311 LINE",
"198 311 LINE",
"198 230 LINE",
"220 230 LINE",
"220 127 LINE SMOOTH",
"220 106 OFFCURVE",
"212 100 OFFCURVE",
"201 100 CURVE SMOOTH",
"190 100 OFFCURVE",
"182 106 OFFCURVE",
"182 127 CURVE SMOOTH",
"182 458 LINE SMOOTH",
"182 479 OFFCURVE",
"190 485 OFFCURVE",
"201 485 CURVE SMOOTH",
"212 485 OFFCURVE",
"220 479 OFFCURVE",
"220 458 CURVE SMOOTH",
"220 367 LINE",
"351 367 LINE",
"351 449 LINE SMOOTH",
"351 538 OFFCURVE",
"288 572 OFFCURVE",
"196 572 CURVE SMOOTH",
"105 572 OFFCURVE",
"46 538 OFFCURVE",
"46 449 CURVE SMOOTH",
"46 165 LINE SMOOTH",
"46 56 OFFCURVE",
"88 18 OFFCURVE",
"156 18 CURVE SMOOTH"
);
}
);
userData = {
assembly = "PUSHW[ ]	/* 4 values pushed */\01231 6 66 4 \012CALL[ ]	/* CallFunction */\012SVTCA[0]	/* SetFreedomAndProjectionVectorToAxis */\012PUSHW[ ]	/* 1 value pushed */\0121 \012MDAP[1]	/* MoveDirectAbsPt */\012PUSHW[ ]	/* 4 values pushed */\01235 2 8 4 \012CALL[ ]	/* CallFunction */\012PUSHW[ ]	/* 3 values pushed */\0123 8 35 \012SRP1[ ]	/* SetRefPoint1 */\012SRP2[ ]	/* SetRefPoint2 */\012IP[ ]	/* InterpolatePts */\012PUSHW[ ]	/* 3 values pushed */\01275 8 35 \012SRP1[ ]	/* SetRefPoint1 */\012SRP2[ ]	/* SetRefPoint2 */\012IP[ ]	/* InterpolatePts */\012PUSHW[ ]	/* 1 value pushed */\0128 \012SRP0[ ]	/* SetRefPoint0 */\012PUSHW[ ]	/* 1 value pushed */\01276 \012MDRP[10000]	/* MoveDirectRelPt */\012IUP[0]	/* InterpolateUntPts */\012IUP[1]	/* InterpolateUntPts */";
};
width = 395;
}
);
leftKerningGroup = O;
leftMetricsKey = O;
note = G;
rightKerningGroup = G;
unicode = 0047;
},
{
glyphname = H;
lastChange = "2021-12-03 03:19:38 +0000";
layers = (
{
anchors = (
{
name = bottom;
position = "{202, 0}";
},
{
name = center;
position = "{207, 296}";
},
{
name = top;
position = "{202, 591}";
},
{
name = topleft;
position = "{20, 591}";
}
);
layerId = "04A772B0-FA71-43EE-BB43-CAC7F0EBD631";
paths = (
{
closed = 1;
nodes = (
"379 0 LINE",
"379 591 LINE",
"25 591 LINE",
"25 0 LINE"
);
},
{
closed = 1;
nodes = (
"42 573 LINE",
"196 573 LINE",
"196 365 LINE",
"209 365 LINE",
"209 573 LINE",
"362 573 LINE",
"362 18 LINE",
"209 18 LINE",
"209 241 LINE",
"196 241 LINE",
"196 18 LINE",
"42 18 LINE"
);
},
{
closed = 1;
nodes = (
"187 27 LINE",
"187 250 LINE",
"218 250 LINE",
"218 27 LINE",
"354 27 LINE",
"354 564 LINE",
"218 564 LINE",
"218 356 LINE",
"187 356 LINE",
"187 564 LINE",
"51 564 LINE",
"51 27 LINE"
);
}
);
userData = {
assembly = "SVTCA[0]	/* SetFreedomAndProjectionVectorToAxis */\012PUSHW[ ]	/* 1 value pushed */\0121 \012MDAP[1]	/* MoveDirectAbsPt */\012PUSHW[ ]	/* 1 value pushed */\0129 \012MDAP[1]	/* MoveDirectAbsPt */\012PUSHW[ ]	/* 4 values pushed */\0125 3 0 4 \012CALL[ ]	/* CallFunction */\012IUP[0]	/* InterpolateUntPts */\012IUP[1]	/* InterpolateUntPts */";
};
width = 404;
}
);
leftKerningGroup = H;
note = H;
rightKerningGroup = H;
unicode = 0048;
},
{
color = 8;
glyphname = Hbar;
lastChange = "2021-12-03 03:56:40 +0000";
layers = (
{
anchors = (
{
name = bottom;
position = "{202, 0}";
},
{
name = center;
position = "{202, 296}";
},
{
name = top;
position = "{202, 591}";
},
{
name = topleft;
position = "{20, 591}";
}
);
background = {
components = (
{
name = H;
},
{
name = hyphen;
transform = "{1.91197, 0, 0, 0.69208, -57, 307}";
}
);
};
layerId = "04A772B0-FA71-43EE-BB43-CAC7F0EBD631";
paths = (
{
closed = 1;
nodes = (
"184 0 LINE",
"184 245 LINE",
"220 245 LINE",
"220 0 LINE",
"379 0 LINE",
"379 591 LINE",
"220 591 LINE",
"220 362 LINE",
"184 362 LINE",
"184 591 LINE",
"25 591 LINE",
"25 0 LINE"
);
},
{
closed = 1;
nodes = (
"406 435 LINE",
"406 507 LINE",
"0 507 LINE",
"0 435 LINE"
);
}
);
width = 404;
}
);
leftKerningGroup = H;
rightKerningGroup = H;
unicode = 0126;
},
{
glyphname = I;
lastChange = "2021-12-03 03:28:47 +0000";
layers = (
{
anchors = (
{
name = bottom;
position = "{103, 0}";
},
{
name = ogonek;
position = "{172, 0}";
},
{
name = top;
position = "{103, 591}";
},
{
name = topleft;
position = "{9, 591}";
}
);
layerId = "04A772B0-FA71-43EE-BB43-CAC7F0EBD631";
paths = (
{
closed = 1;
nodes = (
"184 0 LINE",
"184 591 LINE",
"25 591 LINE",
"25 0 LINE"
);
},
{
closed = 1;
nodes = (
"39 573 LINE",
"169 573 LINE",
"169 18 LINE",
"39 18 LINE"
);
},
{
closed = 1;
nodes = (
"162 27 LINE",
"162 564 LINE",
"47 564 LINE",
"47 27 LINE"
);
}
);
userData = {
assembly = "SVTCA[0]	/* SetFreedomAndProjectionVectorToAxis */\012PUSHW[ ]	/* 1 value pushed */\0120 \012MDAP[1]	/* MoveDirectAbsPt */\012IUP[0]	/* InterpolateUntPts */\012IUP[1]	/* InterpolateUntPts */";
};
width = 209;
}
);
leftKerningGroup = H;
leftMetricsKey = H;
note = I;
rightKerningGroup = H;
rightMetricsKey = H;
unicode = 0049;
},
{
color = 8;
glyphname = Iogonek;
lastChange = "2021-12-03 03:52:48 +0000";
layers = (
{
anchors = (
{
name = bottom;
position = "{105, 0}";
},
{
name = ogonek;
position = "{184, 0}";
},
{
name = top;
position = "{105, 591}";
},
{
name = topleft;
position = "{20, 591}";
}
);
background = {
components = (
{
name = I;
},
{
name = ogonek;
transform = "{1, 0, 0, 1, -105, 0}";
}
);
};
layerId = "04A772B0-FA71-43EE-BB43-CAC7F0EBD631";
paths = (
{
closed = 1;
nodes = (
"185 -96 OFFCURVE",
"179 -99 OFFCURVE",
"170 -99 CURVE SMOOTH",
"154 -99 OFFCURVE",
"133 -85 OFFCURVE",
"133 -61 CURVE SMOOTH",
"133 -39 OFFCURVE",
"148 -10 OFFCURVE",
"184 0 CURVE",
"184 591 LINE",
"25 591 LINE",
"25 0 LINE",
"112 0 LINE",
"64 -10 OFFCURVE",
"35 -49 OFFCURVE",
"35 -83 CURVE SMOOTH",
"35 -117 OFFCURVE",
"70 -151 OFFCURVE",
"128 -151 CURVE SMOOTH",
"178 -151 OFFCURVE",
"198 -137 OFFCURVE",
"205 -133 CURVE",
"188 -96 LINE"
);
}
);
width = 209;
}
);
unicode = 012E;
},
{
glyphname = J;
lastChange = "2021-12-03 03:19:38 +0000";
layers = (
{
anchors = (
{
name = bottom;
position = "{136, 0}";
},
{
name = top;
position = "{152, 591}";
}
);
layerId = "04A772B0-FA71-43EE-BB43-CAC7F0EBD631";
paths = (
{
closed = 1;
nodes = (
"194 -1 OFFCURVE",
"239 41 OFFCURVE",
"239 172 CURVE SMOOTH",
"239 591 LINE",
"65 591 LINE",
"65 169 LINE SMOOTH",
"65 154 OFFCURVE",
"63 153 OFFCURVE",
"52 153 CURVE SMOOTH",
"5 153 LINE",
"5 3 LINE",
"37 -1 OFFCURVE",
"63 -1 OFFCURVE",
"72 -1 CURVE SMOOTH"
);
},
{
closed = 1;
nodes = (
"38 17 OFFCURVE",
"29 18 OFFCURVE",
"21 19 CURVE",
"21 134 LINE",
"52 134 LINE SMOOTH",
"76 134 OFFCURVE",
"81 141 OFFCURVE",
"81 169 CURVE SMOOTH",
"81 573 LINE",
"223 573 LINE",
"223 172 LINE SMOOTH",
"223 53 OFFCURVE",
"182 17 OFFCURVE",
"72 17 CURVE SMOOTH",
"49 17 LINE SMOOTH"
);
},
{
closed = 1;
nodes = (
"72 26 LINE SMOOTH",
"177 26 OFFCURVE",
"215 60 OFFCURVE",
"215 172 CURVE SMOOTH",
"215 564 LINE",
"89 564 LINE",
"89 169 LINE SMOOTH",
"89 133 OFFCURVE",
"83 125 OFFCURVE",
"52 125 CURVE SMOOTH",
"29 125 LINE",
"29 27 LINE",
"33 26 OFFCURVE",
"40 26 OFFCURVE",
"50 26 CURVE SMOOTH"
);
}
);
width = 264;
}
);
leftKerningGroup = J;
note = J;
rightKerningGroup = J;
rightMetricsKey = "=O+5";
unicode = 004A;
},
{
glyphname = K;
lastChange = "2021-12-03 03:19:38 +0000";
layers = (
{
anchors = (
{
name = bottom;
position = "{215, 0}";
},
{
name = top;
position = "{219, 591}";
}
);
layerId = "04A772B0-FA71-43EE-BB43-CAC7F0EBD631";
paths = (
{
closed = 1;
nodes = (
"215 0 LINE",
"215 17 LINE",
"218 0 LINE",
"428 0 LINE",
"331 306 LINE",
"427 591 LINE",
"25 591 LINE",
"25 0 LINE"
);
},
{
closed = 1;
nodes = (
"42 573 LINE",
"197 573 LINE",
"197 436 LINE",
"225 573 LINE",
"403 573 LINE",
"313 306 LINE",
"358 162 LINE SMOOTH",
"373 112 OFFCURVE",
"389 64 OFFCURVE",
"404 18 CURVE",
"232 18 LINE",
"197 182 LINE",
"197 18 LINE",
"42 18 LINE"
);
},
{
closed = 1;
nodes = (
"189 27 LINE",
"189 269 LINE",
"239 27 LINE",
"393 27 LINE",
"304 306 LINE",
"391 564 LINE",
"232 564 LINE",
"189 345 LINE",
"189 564 LINE",
"51 564 LINE",
"51 27 LINE"
);
}
);
userData = {
assembly = "PUSHW[ ]	/* 4 values pushed */\0127 6 8 4 \012CALL[ ]	/* CallFunction */\012PUSHW[ ]	/* 1 value pushed */\0127 \012SRP0[ ]	/* SetRefPoint0 */\012PUSHW[ ]	/* 1 value pushed */\0120 \012MDRP[10000]	/* MoveDirectRelPt */\012SVTCA[0]	/* SetFreedomAndProjectionVectorToAxis */\012PUSHW[ ]	/* 1 value pushed */\0124 \012MDAP[1]	/* MoveDirectAbsPt */\012PUSHW[ ]	/* 1 value pushed */\0127 \012MDAP[1]	/* MoveDirectAbsPt */\012IUP[0]	/* InterpolateUntPts */\012IUP[1]	/* InterpolateUntPts */";
};
width = 433;
}
);
leftKerningGroup = H;
leftMetricsKey = H;
note = K;
rightKerningGroup = K;
unicode = 004B;
},
{
glyphname = L;
lastChange = "2021-12-03 03:19:38 +0000";
layers = (
{
anchors = (
{
name = bottom;
position = "{158, 0}";
},
{
name = center;
position = "{158, 296}";
},
{
name = top;
position = "{142, 591}";
},
{
name = topright;
position = "{283, 445}";
}
);
layerId = "04A772B0-FA71-43EE-BB43-CAC7F0EBD631";
paths = (
{
closed = 1;
nodes = (
"291 0 LINE",
"291 153 LINE",
"202 153 LINE",
"202 591 LINE",
"25 591 LINE",
"25 0 LINE"
);
},
{
closed = 1;
nodes = (
"42 573 LINE",
"186 573 LINE",
"186 134 LINE",
"275 134 LINE",
"275 18 LINE",
"42 18 LINE"
);
},
{
closed = 1;
nodes = (
"267 27 LINE",
"267 125 LINE",
"178 125 LINE",
"178 564 LINE",
"50 564 LINE",
"50 27 LINE"
);
}
);
userData = {
assembly = "PUSHW[ ]	/* 4 values pushed */\0121 6 0 4 \012CALL[ ]	/* CallFunction */\012SVTCA[0]	/* SetFreedomAndProjectionVectorToAxis */\012PUSHW[ ]	/* 4 values pushed */\0123 3 4 4 \012CALL[ ]	/* CallFunction */\012IUP[0]	/* InterpolateUntPts */\012IUP[1]	/* InterpolateUntPts */";
};
width = 301;
}
);
leftKerningGroup = H;
leftMetricsKey = H;
note = L;
rightKerningGroup = L;
unicode = 004C;
},
{
glyphname = Lslash;
lastChange = "2021-12-03 03:19:38 +0000";
layers = (
{
layerId = "04A772B0-FA71-43EE-BB43-CAC7F0EBD631";
paths = (
{
closed = 1;
nodes = (
"333 0 LINE",
"333 152 LINE",
"241 152 LINE",
"241 214 LINE",
"293 239 LINE",
"293 356 LINE",
"241 331 LINE",
"241 585 LINE",
"59 585 LINE",
"59 244 LINE",
"15 223 LINE",
"15 106 LINE",
"59 126 LINE",
"59 0 LINE"
);
},
{
closed = 1;
nodes = (
"76 155 LINE",
"32 133 LINE",
"32 211 LINE",
"76 232 LINE",
"76 567 LINE",
"224 567 LINE",
"224 304 LINE",
"232.667 308 OFFCURVE",
"241.667 312 OFFCURVE",
"251 316 CURVE SMOOTH",
"276 327 LINE",
"276 251 LINE",
"224 226 LINE",
"224 134 LINE",
"316 134 LINE",
"316 18 LINE",
"76 18 LINE"
);
},
{
closed = 1;
nodes = (
"308 27 LINE",
"308 125 LINE",
"216 125 LINE",
"216 231 LINE",
"267 257 LINE",
"267 314 LINE",
"216 289 LINE",
"216 558 LINE",
"84 558 LINE",
"84 226 LINE",
"40 205 LINE",
"40 147 LINE",
"84 168 LINE",
"84 27 LINE"
);
}
);
userData = {
assembly = "SVTCA[0]	/* SetFreedomAndProjectionVectorToAxis */\012PUSHW[ ]	/* 1 value pushed */\0129 \012MDAP[1]	/* MoveDirectAbsPt */\012PUSHW[ ]	/* 4 values pushed */\0122 3 3 4 \012CALL[ ]	/* CallFunction */\012PUSHW[ ]	/* 3 values pushed */\01236 3 2 \012SRP1[ ]	/* SetRefPoint1 */\012SRP2[ ]	/* SetRefPoint2 */\012IP[ ]	/* InterpolatePts */\012IUP[0]	/* InterpolateUntPts */\012IUP[1]	/* InterpolateUntPts */";
};
width = 353;
}
);
leftKerningGroup = H;
note = Lslash;
rightKerningGroup = L;
unicode = 0141;
},
{
glyphname = M;
lastChange = "2021-12-03 03:19:38 +0000";
layers = (
{
layerId = "04A772B0-FA71-43EE-BB43-CAC7F0EBD631";
paths = (
{
closed = 1;
nodes = (
"515 0 LINE",
"515 591 LINE",
"285 591 LINE",
"270 483 LINE",
"255 591 LINE",
"25 591 LINE",
"25 0 LINE"
);
},
{
closed = 1;
nodes = (
"43 573 LINE",
"240 573 LINE",
"270 357 LINE",
"301 573 LINE",
"497 573 LINE",
"497 18 LINE",
"356 18 LINE",
"356 255 LINE",
"326 18 LINE",
"215 18 LINE",
"185 255 LINE",
"185 18 LINE",
"43 18 LINE"
);
},
{
closed = 1;
nodes = (
"176 27 LINE",
"176 401 LINE",
"223 27 LINE",
"317 27 LINE",
"365 401 LINE",
"365 27 LINE",
"489 27 LINE",
"489 564 LINE",
"309 564 LINE",
"270 290 LINE",
"232 564 LINE",
"52 564 LINE",
"52 27 LINE"
);
}
);
userData = {
assembly = "SVTCA[0]	/* SetFreedomAndProjectionVectorToAxis */\012PUSHW[ ]	/* 1 value pushed */\0121 \012MDAP[1]	/* MoveDirectAbsPt */\012PUSHW[ ]	/* 1 value pushed */\0128 \012MDAP[1]	/* MoveDirectAbsPt */\012PUSHW[ ]	/* 1 value pushed */\01211 \012MDAP[1]	/* MoveDirectAbsPt */\012IUP[0]	/* InterpolateUntPts */\012IUP[1]	/* InterpolateUntPts */";
};
width = 540;
}
);
leftKerningGroup = H;
leftMetricsKey = H;
note = M;
rightKerningGroup = H;
rightMetricsKey = H;
unicode = 004D;
},
{
glyphname = N;
lastChange = "2021-12-03 03:19:38 +0000";
layers = (
{
anchors = (
{
name = bottom;
position = "{204, 0}";
},
{
name = top;
position = "{197, 591}";
}
);
layerId = "04A772B0-FA71-43EE-BB43-CAC7F0EBD631";
paths = (
{
closed = 1;
nodes = (
"195 0 LINE",
"195 63 LINE",
"212 0 LINE",
"374 0 LINE",
"374 591 LINE",
"205 591 LINE",
"205 527 LINE",
"188 591 LINE",
"25 591 LINE",
"25 0 LINE"
);
},
{
closed = 1;
nodes = (
"42 573 LINE",
"176 573 LINE",
"222 384 LINE",
"222 573 LINE",
"357 573 LINE",
"357 18 LINE",
"225 18 LINE",
"178 184 LINE",
"178 18 LINE",
"42 18 LINE"
);
},
{
closed = 1;
nodes = (
"170 27 LINE",
"170 250 LINE",
"232 27 LINE",
"349 27 LINE",
"349 564 LINE",
"230 564 LINE",
"230 314 LINE",
"169 564 LINE",
"51 564 LINE",
"51 27 LINE"
);
}
);
userData = {
assembly = "PUSHW[ ]	/* 4 values pushed */\01224 6 3 4 \012CALL[ ]	/* CallFunction */\012PUSHW[ ]	/* 3 values pushed */\0120 3 24 \012SRP1[ ]	/* SetRefPoint1 */\012SRP2[ ]	/* SetRefPoint2 */\012IP[ ]	/* InterpolatePts */\012PUSHW[ ]	/* 3 values pushed */\01219 3 24 \012SRP1[ ]	/* SetRefPoint1 */\012SRP2[ ]	/* SetRefPoint2 */\012IP[ ]	/* InterpolatePts */\012PUSHW[ ]	/* 1 value pushed */\01224 \012SRP0[ ]	/* SetRefPoint0 */\012PUSHW[ ]	/* 1 value pushed */\01220 \012MDRP[10000]	/* MoveDirectRelPt */\012PUSHW[ ]	/* 1 value pushed */\01220 \012MDAP[1]	/* MoveDirectAbsPt */\012SVTCA[0]	/* SetFreedomAndProjectionVectorToAxis */\012PUSHW[ ]	/* 1 value pushed */\0121 \012MDAP[1]	/* MoveDirectAbsPt */\012PUSHW[ ]	/* 1 value pushed */\0128 \012MDAP[1]	/* MoveDirectAbsPt */\012IUP[0]	/* InterpolateUntPts */\012IUP[1]	/* InterpolateUntPts */";
};
width = 399;
}
);
leftKerningGroup = H;
leftMetricsKey = H;
note = N;
rightKerningGroup = H;
rightMetricsKey = H;
unicode = 004E;
},
{
glyphname = Eng;
lastChange = "2021-12-03 03:19:38 +0000";
layers = (
{
layerId = "04A772B0-FA71-43EE-BB43-CAC7F0EBD631";
paths = (
{
closed = 1;
nodes = (
"322.85 -233 OFFCURVE",
"374 -193.044 OFFCURVE",
"374 -56 CURVE SMOOTH",
"374 608 LINE",
"205 608 LINE",
"205 542 LINE",
"188 608 LINE",
"25 608 LINE",
"25 0 LINE",
"187 0 LINE",
"187 -59 LINE SMOOTH",
"187 -73.667 OFFCURVE",
"184.667 -76 OFFCURVE",
"174 -76 CURVE SMOOTH",
"123 -76 LINE",
"123 -230 LINE",
"157.667 -232.667 OFFCURVE",
"185.667 -233 OFFCURVE",
"195 -233 CURVE SMOOTH"
);
},
{
closed = 1;
nodes = (
"159.667 -215 OFFCURVE",
"149.667 -214.333 OFFCURVE",
"141 -213 CURVE",
"141 -94 LINE",
"174 -94 LINE SMOOTH",
"199.333 -94 OFFCURVE",
"205 -88.333 OFFCURVE",
"205 -59 CURVE SMOOTH",
"205 94 LINE",
"178 190 LINE",
"178 19 LINE",
"42 19 LINE",
"42 589 LINE",
"176 589 LINE",
"222 395 LINE",
"222 589 LINE",
"357 589 LINE",
"357 -56 LINE SMOOTH",
"357 -177.727 OFFCURVE",
"310.782 -215 OFFCURVE",
"195 -215 CURVE SMOOTH",
"171 -215 LINE SMOOTH"
);
},
{
closed = 1;
nodes = (
"195 -205 LINE SMOOTH",
"306.987 -205 OFFCURVE",
"349 -171.938 OFFCURVE",
"349 -56 CURVE SMOOTH",
"349 580 LINE",
"230 580 LINE",
"230 323 LINE",
"169 580 LINE",
"51 580 LINE",
"51 28 LINE",
"170 28 LINE",
"170 257 LINE",
"213 97 LINE",
"213 -59 LINE SMOOTH",
"213 -95 OFFCURVE",
"206 -104 OFFCURVE",
"174 -104 CURVE SMOOTH",
"149 -104 LINE",
"149 -204 LINE",
"153.667 -204.667 OFFCURVE",
"161.333 -205 OFFCURVE",
"172 -205 CURVE SMOOTH"
);
}
);
userData = {
assembly = "PUSHW[ ]	/* 4 values pushed */\01235 6 8 4 \012CALL[ ]	/* CallFunction */\012PUSHW[ ]	/* 1 value pushed */\01235 \012SRP0[ ]	/* SetRefPoint0 */\012PUSHW[ ]	/* 1 value pushed */\0126 \012MDRP[10000]	/* MoveDirectRelPt */\012PUSHW[ ]	/* 1 value pushed */\0126 \012MDAP[1]	/* MoveDirectAbsPt */\012PUSHW[ ]	/* 1 value pushed */\01235 \012SRP0[ ]	/* SetRefPoint0 */\012PUSHW[ ]	/* 1 value pushed */\01210 \012MDRP[10000]	/* MoveDirectRelPt */\012PUSHW[ ]	/* 1 value pushed */\01210 \012MDAP[1]	/* MoveDirectAbsPt */\012PUSHW[ ]	/* 1 value pushed */\01235 \012SRP0[ ]	/* SetRefPoint0 */\012PUSHW[ ]	/* 1 value pushed */\01238 \012MDRP[10000]	/* MoveDirectRelPt */\012PUSHW[ ]	/* 1 value pushed */\01238 \012MDAP[1]	/* MoveDirectAbsPt */\012PUSHW[ ]	/* 1 value pushed */\0128 \012SRP0[ ]	/* SetRefPoint0 */\012PUSHW[ ]	/* 2 values pushed */\01251 6 \012MIRP[10100]	/* MoveIndirectRelPt */\012PUSHW[ ]	/* 3 values pushed */\01239 8 51 \012SRP1[ ]	/* SetRefPoint1 */\012SRP2[ ]	/* SetRefPoint2 */\012IP[ ]	/* InterpolatePts */\012SVTCA[0]	/* SetFreedomAndProjectionVectorToAxis */\012PUSHW[ ]	/* 1 value pushed */\0127 \012MDAP[1]	/* MoveDirectAbsPt */\012IUP[0]	/* InterpolateUntPts */\012IUP[1]	/* InterpolateUntPts */";
};
width = 399;
}
);
leftKerningGroup = H;
leftMetricsKey = H;
note = Eng;
rightKerningGroup = H;
rightMetricsKey = H;
unicode = 014A;
},
{
glyphname = O;
lastChange = "2021-12-03 03:33:05 +0000";
layers = (
{
anchors = (
{
name = bottom;
position = "{203, 0}";
},
{
name = center;
position = "{203, 296}";
},
{
name = ogonek;
position = "{267, 0}";
},
{
name = top;
position = "{202, 591}";
},
{
name = topleft;
position = "{19, 591}";
},
{
name = topright;
position = "{274, 591}";
}
);
layerId = "04A772B0-FA71-43EE-BB43-CAC7F0EBD631";
paths = (
{
closed = 1;
nodes = (
"324 -11 OFFCURVE",
"377 29 OFFCURVE",
"377 186 CURVE SMOOTH",
"377 451 LINE SMOOTH",
"377 560 OFFCURVE",
"311 601 OFFCURVE",
"202 601 CURVE SMOOTH",
"92 601 OFFCURVE",
"20 559 OFFCURVE",
"20 451 CURVE SMOOTH",
"20 185 LINE SMOOTH",
"20 29 OFFCURVE",
"80 -11 OFFCURVE",
"202 -11 CURVE SMOOTH"
);
},
{
closed = 1;
nodes = (
"92 7 OFFCURVE",
"37 44 OFFCURVE",
"37 185 CURVE SMOOTH",
"37 451 LINE SMOOTH",
"37 547 OFFCURVE",
"103 583 OFFCURVE",
"202 583 CURVE SMOOTH",
"301 583 OFFCURVE",
"360 547 OFFCURVE",
"360 451 CURVE SMOOTH",
"360 186 LINE SMOOTH",
"360 44 OFFCURVE",
"311 7 OFFCURVE",
"202 7 CURVE SMOOTH"
);
},
{
closed = 1;
nodes = (
"307 16 OFFCURVE",
"351 51 OFFCURVE",
"351 186 CURVE SMOOTH",
"351 451 LINE SMOOTH",
"351 542 OFFCURVE",
"295 574 OFFCURVE",
"202 574 CURVE SMOOTH",
"107 574 OFFCURVE",
"46 540 OFFCURVE",
"46 451 CURVE SMOOTH",
"46 185 LINE SMOOTH",
"46 50 OFFCURVE",
"96 16 OFFCURVE",
"202 16 CURVE SMOOTH"
);
},
{
closed = 1;
nodes = (
"197 100 OFFCURVE",
"194 102 OFFCURVE",
"192 106 CURVE SMOOTH",
"189 110 OFFCURVE",
"188 117 OFFCURVE",
"188 127 CURVE SMOOTH",
"188 458 LINE SMOOTH",
"188 469 OFFCURVE",
"189 476 OFFCURVE",
"192 480 CURVE SMOOTH",
"194 483 OFFCURVE",
"197 485 OFFCURVE",
"202 485 CURVE SMOOTH",
"205 485 OFFCURVE",
"208 483 OFFCURVE",
"211 480 CURVE SMOOTH",
"214 476 OFFCURVE",
"215 469 OFFCURVE",
"215 458 CURVE SMOOTH",
"215 127 LINE SMOOTH",
"215 117 OFFCURVE",
"214 110 OFFCURVE",
"211 106 CURVE SMOOTH",
"208 102 OFFCURVE",
"205 100 OFFCURVE",
"202 100 CURVE SMOOTH"
);
},
{
closed = 1;
nodes = (
"205 109 OFFCURVE",
"207 115 OFFCURVE",
"207 127 CURVE SMOOTH",
"207 458 LINE SMOOTH",
"207 465 OFFCURVE",
"207 470 OFFCURVE",
"206 473 CURVE SMOOTH",
"205 475 OFFCURVE",
"203 476 OFFCURVE",
"202 476 CURVE SMOOTH",
"200 476 OFFCURVE",
"199 475 OFFCURVE",
"198 473 CURVE SMOOTH",
"197 470 OFFCURVE",
"196 465 OFFCURVE",
"196 458 CURVE SMOOTH",
"196 127 LINE SMOOTH",
"196 115 OFFCURVE",
"198 109 OFFCURVE",
"202 109 CURVE SMOOTH"
);
}
);
width = 397;
}
);
leftKerningGroup = O;
note = O;
rightKerningGroup = O;
unicode = 004F;
},
{
color = 8;
glyphname = Ohorn;
lastChange = "2021-12-03 03:55:39 +0000";
layers = (
{
anchors = (
{
name = bottom;
position = "{199, 0}";
},
{
name = center;
position = "{199, 296}";
},
{
name = ogonek;
position = "{271, 0}";
},
{
name = top;
position = "{199, 591}";
},
{
name = topleft;
position = "{20, 591}";
},
{
name = topright;
position = "{424, 658}";
}
);
background = {
components = (
{
name = horncomb;
transform = "{1, 0, 0, 1, 202, 119}";
},
{
name = O;
}
);
};
layerId = "04A772B0-FA71-43EE-BB43-CAC7F0EBD631";
paths = (
{
closed = 1;
nodes = (
"304 612 OFFCURVE",
"294 596 OFFCURVE",
"273 592 CURVE",
"251 598 OFFCURVE",
"225 600 OFFCURVE",
"197 600 CURVE SMOOTH",
"91 600 OFFCURVE",
"20 564 OFFCURVE",
"20 465 CURVE SMOOTH",
"20 173 LINE SMOOTH",
"20 14 OFFCURVE",
"91 -12 OFFCURVE",
"197 -12 CURVE SMOOTH",
"303 -12 OFFCURVE",
"377 14 OFFCURVE",
"377 174 CURVE SMOOTH",
"377 465 LINE SMOOTH",
"377 498 OFFCURVE",
"369 524 OFFCURVE",
"354 544 CURVE",
"387 562 OFFCURVE",
"404 591 OFFCURVE",
"404 638 CURVE SMOOTH",
"404 658 LINE",
"304 658 LINE",
"304 638 LINE SMOOTH"
);
},
{
closed = 1;
nodes = (
"218 92 OFFCURVE",
"209 80 OFFCURVE",
"197 80 CURVE SMOOTH",
"185 80 OFFCURVE",
"176 92 OFFCURVE",
"176 110 CURVE SMOOTH",
"176 473 LINE SMOOTH",
"176 491 OFFCURVE",
"185 503 OFFCURVE",
"197 503 CURVE SMOOTH",
"209 503 OFFCURVE",
"218 491 OFFCURVE",
"218 473 CURVE SMOOTH",
"218 110 LINE SMOOTH"
);
}
);
width = 397;
}
);
leftKerningGroup = O;
rightKerningGroup = O;
unicode = 01A0;
},
{
color = 8;
glyphname = Oogonek;
lastChange = "2021-12-03 03:52:48 +0000";
layers = (
{
anchors = (
{
name = bottom;
position = "{199, 0}";
},
{
name = center;
position = "{199, 296}";
},
{
name = ogonek;
position = "{271, 0}";
},
{
name = top;
position = "{199, 591}";
},
{
name = topleft;
position = "{20, 591}";
},
{
name = topright;
position = "{241, 591}";
}
);
layerId = "04A772B0-FA71-43EE-BB43-CAC7F0EBD631";
paths = (
{
closed = 1;
nodes = (
"91 600 OFFCURVE",
"20 564 OFFCURVE",
"20 465 CURVE SMOOTH",
"20 173 LINE SMOOTH",
"20 29 OFFCURVE",
"79 -6 OFFCURVE",
"169 -11 CURVE",
"139 -28 OFFCURVE",
"122 -57 OFFCURVE",
"122 -83 CURVE SMOOTH",
"122 -117 OFFCURVE",
"157 -151 OFFCURVE",
"215 -151 CURVE SMOOTH",
"265 -151 OFFCURVE",
"285 -137 OFFCURVE",
"292 -133 CURVE",
"275 -96 LINE",
"272 -96 OFFCURVE",
"266 -99 OFFCURVE",
"257 -99 CURVE SMOOTH",
"241 -99 OFFCURVE",
"220 -85 OFFCURVE",
"220 -61 CURVE SMOOTH",
"220 -44 OFFCURVE",
"229 -22 OFFCURVE",
"251 -9 CURVE",
"327 2 OFFCURVE",
"377 43 OFFCURVE",
"377 174 CURVE SMOOTH",
"377 465 LINE SMOOTH",
"377 564 OFFCURVE",
"303 600 OFFCURVE",
"197 600 CURVE SMOOTH"
);
},
{
closed = 1;
nodes = (
"176 491 OFFCURVE",
"185 503 OFFCURVE",
"197 503 CURVE SMOOTH",
"209 503 OFFCURVE",
"218 491 OFFCURVE",
"218 473 CURVE SMOOTH",
"218 110 LINE SMOOTH",
"218 92 OFFCURVE",
"209 80 OFFCURVE",
"197 80 CURVE SMOOTH",
"185 80 OFFCURVE",
"176 92 OFFCURVE",
"176 110 CURVE SMOOTH",
"176 473 LINE SMOOTH"
);
}
);
width = 397;
}
);
leftKerningGroup = O;
rightKerningGroup = O;
unicode = 01EA;
},
{
glyphname = Oslash;
lastChange = "2021-12-03 03:19:38 +0000";
layers = (
{
anchors = (
{
name = bottom;
position = "{235, 0}";
},
{
name = top;
position = "{235, 591}";
}
);
layerId = "04A772B0-FA71-43EE-BB43-CAC7F0EBD631";
paths = (
{
closed = 1;
nodes = (
"127 -40 LINE",
"147 1 LINE",
"174 -8 OFFCURVE",
"201 -11 OFFCURVE",
"234 -11 CURVE SMOOTH",
"359 -11 OFFCURVE",
"413 29 OFFCURVE",
"413 187 CURVE SMOOTH",
"413 455 LINE SMOOTH",
"413 480 OFFCURVE",
"408 503 OFFCURVE",
"399 524 CURVE",
"453 634 LINE",
"333 634 LINE",
"315 596 LINE",
"292 603 OFFCURVE",
"265 606 OFFCURVE",
"234 606 CURVE SMOOTH",
"123 606 OFFCURVE",
"49 565 OFFCURVE",
"49 455 CURVE SMOOTH",
"49 186 LINE SMOOTH",
"49 139 OFFCURVE",
"55 106 OFFCURVE",
"67 77 CURVE",
"9 -40 LINE"
);
},
{
closed = 1;
nodes = (
"238 110 OFFCURVE",
"240 116 OFFCURVE",
"240 129 CURVE SMOOTH",
"240 253 LINE",
"229 231 LINE",
"229 129 LINE SMOOTH",
"229 116 OFFCURVE",
"231 110 OFFCURVE",
"234 110 CURVE SMOOTH"
);
},
{
closed = 1;
nodes = (
"230 101 OFFCURVE",
"227 103 OFFCURVE",
"224 107 CURVE SMOOTH",
"221 110 OFFCURVE",
"220 118 OFFCURVE",
"220 129 CURVE SMOOTH",
"220 233 LINE",
"248 291 LINE",
"248 129 LINE SMOOTH",
"248 118 OFFCURVE",
"247 110 OFFCURVE",
"244 107 CURVE SMOOTH",
"241 103 OFFCURVE",
"238 101 OFFCURVE",
"234 101 CURVE SMOOTH"
);
},
{
closed = 1;
nodes = (
"86 76 LINE",
"73 102 OFFCURVE",
"67 139 OFFCURVE",
"67 186 CURVE SMOOTH",
"67 455 LINE SMOOTH",
"67 552 OFFCURVE",
"133 588 OFFCURVE",
"234 588 CURVE SMOOTH",
"269 588 OFFCURVE",
"299 583 OFFCURVE",
"323 573 CURVE",
"344 615 LINE",
"424 615 LINE",
"379 524 LINE",
"388 505 OFFCURVE",
"396 480 OFFCURVE",
"396 455 CURVE SMOOTH",
"396 187 LINE SMOOTH",
"396 44 OFFCURVE",
"347 7 OFFCURVE",
"234 7 CURVE SMOOTH",
"195 7 OFFCURVE",
"165 10 OFFCURVE",
"138 23 CURVE",
"116 -22 LINE",
"38 -22 LINE"
);
},
{
closed = 1;
nodes = (
"110 -13 LINE",
"134 36 LINE",
"161 21 OFFCURVE",
"194 17 OFFCURVE",
"234 17 CURVE SMOOTH",
"340 17 OFFCURVE",
"387 52 OFFCURVE",
"387 187 CURVE SMOOTH",
"387 455 LINE SMOOTH",
"387 484 OFFCURVE",
"381 507 OFFCURVE",
"369 525 CURVE",
"409 606 LINE",
"349 606 LINE",
"328 561 LINE",
"303 573 OFFCURVE",
"271 579 OFFCURVE",
"234 579 CURVE SMOOTH",
"139 579 OFFCURVE",
"76 544 OFFCURVE",
"76 455 CURVE SMOOTH",
"76 186 LINE SMOOTH",
"76 138 OFFCURVE",
"83 104 OFFCURVE",
"96 77 CURVE",
"52 -13 LINE"
);
},
{
closed = 1;
nodes = (
"220 462 LINE SMOOTH",
"220 473 OFFCURVE",
"221 480 OFFCURVE",
"224 484 CURVE SMOOTH",
"227 487 OFFCURVE",
"230 489 OFFCURVE",
"234 489 CURVE SMOOTH",
"238 489 OFFCURVE",
"241 487 OFFCURVE",
"244 484 CURVE SMOOTH",
"247 480 OFFCURVE",
"248 473 OFFCURVE",
"248 462 CURVE SMOOTH",
"248 376 LINE",
"220 319 LINE"
);
},
{
closed = 1;
nodes = (
"240 378 LINE",
"240 462 LINE SMOOTH",
"240 469 OFFCURVE",
"239 474 OFFCURVE",
"238 477 CURVE SMOOTH",
"237 479 OFFCURVE",
"235 480 OFFCURVE",
"234 480 CURVE SMOOTH",
"233 480 OFFCURVE",
"232 479 OFFCURVE",
"231 477 CURVE SMOOTH",
"230 474 OFFCURVE",
"229 469 OFFCURVE",
"229 462 CURVE SMOOTH",
"229 356 LINE"
);
}
);
userData = {
assembly = "SVTCA[0]	/* SetFreedomAndProjectionVectorToAxis */\012PUSHW[ ]	/* 3 values pushed */\012103 4 3 \012CALL[ ]	/* CallFunction */\012PUSHW[ ]	/* 4 values pushed */\01226 2 85 4 \012CALL[ ]	/* CallFunction */\012PUSHW[ ]	/* 4 values pushed */\01272 2 40 4 \012CALL[ ]	/* CallFunction */\012PUSHW[ ]	/* 1 value pushed */\01285 \012SRP0[ ]	/* SetRefPoint0 */\012PUSHW[ ]	/* 1 value pushed */\0120 \012MDRP[10000]	/* MoveDirectRelPt */\012PUSHW[ ]	/* 1 value pushed */\0120 \012MDAP[1]	/* MoveDirectAbsPt */\012PUSHW[ ]	/* 1 value pushed */\01272 \012SRP0[ ]	/* SetRefPoint0 */\012PUSHW[ ]	/* 1 value pushed */\01213 \012MDRP[10000]	/* MoveDirectRelPt */\012PUSHW[ ]	/* 1 value pushed */\01213 \012MDAP[1]	/* MoveDirectAbsPt */\012PUSHW[ ]	/* 1 value pushed */\012103 \012SRP0[ ]	/* SetRefPoint0 */\012PUSHW[ ]	/* 1 value pushed */\01216 \012MDRP[10000]	/* MoveDirectRelPt */\012PUSHW[ ]	/* 3 values pushed */\01230 4 103 \012SRP1[ ]	/* SetRefPoint1 */\012SRP2[ ]	/* SetRefPoint2 */\012IP[ ]	/* InterpolatePts */\012PUSHW[ ]	/* 3 values pushed */\01235 4 103 \012SRP1[ ]	/* SetRefPoint1 */\012SRP2[ ]	/* SetRefPoint2 */\012IP[ ]	/* InterpolatePts */\012PUSHW[ ]	/* 3 values pushed */\01252 4 103 \012SRP1[ ]	/* SetRefPoint1 */\012SRP2[ ]	/* SetRefPoint2 */\012IP[ ]	/* InterpolatePts */\012PUSHW[ ]	/* 3 values pushed */\01257 4 103 \012SRP1[ ]	/* SetRefPoint1 */\012SRP2[ ]	/* SetRefPoint2 */\012IP[ ]	/* InterpolatePts */\012PUSHW[ ]	/* 1 value pushed */\0124 \012SRP0[ ]	/* SetRefPoint0 */\012PUSHW[ ]	/* 1 value pushed */\01288 \012MDRP[10000]	/* MoveDirectRelPt */\012PUSHW[ ]	/* 1 value pushed */\01288 \012MDAP[1]	/* MoveDirectAbsPt */\012IUP[0]	/* InterpolateUntPts */\012IUP[1]	/* InterpolateUntPts */";
};
width = 451;
}
);
leftKerningGroup = O;
note = Oslash;
rightKerningGroup = O;
unicode = 00D8;
},
{
glyphname = OE;
lastChange = "2021-12-03 03:19:38 +0000";
layers = (
{
layerId = "04A772B0-FA71-43EE-BB43-CAC7F0EBD631";
paths = (
{
closed = 1;
nodes = (
"240 -11 OFFCURVE",
"270 -8 OFFCURVE",
"293 0 CURVE",
"496 0 LINE",
"496 153 LINE",
"389 153 LINE",
"389 219 LINE",
"487 219 LINE",
"487 387 LINE",
"389 387 LINE",
"389 437 LINE",
"496 437 LINE",
"496 593 LINE",
"284 593 LINE",
"261 600 OFFCURVE",
"237 601 OFFCURVE",
"208 601 CURVE SMOOTH",
"95 601 OFFCURVE",
"20 560 OFFCURVE",
"20 451 CURVE SMOOTH",
"20 185 LINE SMOOTH",
"20 28 OFFCURVE",
"83 -11 OFFCURVE",
"208 -11 CURVE SMOOTH"
);
},
{
closed = 1;
nodes = (
"203 100 OFFCURVE",
"200 102 OFFCURVE",
"198 106 CURVE SMOOTH",
"195 110 OFFCURVE",
"194 117 OFFCURVE",
"194 127 CURVE SMOOTH",
"194 458 LINE SMOOTH",
"194 469 OFFCURVE",
"195 476 OFFCURVE",
"198 480 CURVE SMOOTH",
"200 483 OFFCURVE",
"203 485 OFFCURVE",
"208 485 CURVE SMOOTH",
"212 485 OFFCURVE",
"215 483 OFFCURVE",
"218 480 CURVE SMOOTH",
"221 476 OFFCURVE",
"222 469 OFFCURVE",
"222 458 CURVE SMOOTH",
"222 127 LINE SMOOTH",
"222 117 OFFCURVE",
"221 110 OFFCURVE",
"218 106 CURVE SMOOTH",
"215 102 OFFCURVE",
"212 100 OFFCURVE",
"208 100 CURVE SMOOTH"
);
},
{
closed = 1;
nodes = (
"211 109 OFFCURVE",
"213 115 OFFCURVE",
"213 127 CURVE SMOOTH",
"213 458 LINE SMOOTH",
"213 465 OFFCURVE",
"213 470 OFFCURVE",
"212 473 CURVE SMOOTH",
"211 475 OFFCURVE",
"209 476 OFFCURVE",
"208 476 CURVE SMOOTH",
"206 476 OFFCURVE",
"205 475 OFFCURVE",
"204 473 CURVE SMOOTH",
"203 470 OFFCURVE",
"203 465 OFFCURVE",
"203 458 CURVE SMOOTH",
"203 127 LINE SMOOTH",
"203 115 OFFCURVE",
"205 109 OFFCURVE",
"208 109 CURVE SMOOTH"
);
},
{
closed = 1;
nodes = (
"94 7 OFFCURVE",
"38 43 OFFCURVE",
"38 185 CURVE SMOOTH",
"38 451 LINE SMOOTH",
"38 547 OFFCURVE",
"105 583 OFFCURVE",
"208 583 CURVE SMOOTH",
"235 583 OFFCURVE",
"262 579 OFFCURVE",
"281 575 CURVE",
"478 575 LINE",
"478 455 LINE",
"371 455 LINE",
"371 369 LINE",
"469 369 LINE",
"469 237 LINE",
"371 237 LINE",
"371 135 LINE",
"478 135 LINE",
"478 18 LINE",
"289 18 LINE",
"266 10 OFFCURVE",
"239 7 OFFCURVE",
"208 7 CURVE SMOOTH"
);
},
{
closed = 1;
nodes = (
"239 16 OFFCURVE",
"266 19 OFFCURVE",
"287 27 CURVE",
"469 27 LINE",
"469 126 LINE",
"363 126 LINE",
"363 246 LINE",
"460 246 LINE",
"460 360 LINE",
"363 360 LINE",
"363 464 LINE",
"469 464 LINE",
"469 566 LINE",
"278 566 LINE",
"258 571 OFFCURVE",
"235 574 OFFCURVE",
"208 574 CURVE SMOOTH",
"111 574 OFFCURVE",
"46 540 OFFCURVE",
"46 451 CURVE SMOOTH",
"46 185 LINE SMOOTH",
"46 50 OFFCURVE",
"100 16 OFFCURVE",
"208 16 CURVE SMOOTH"
);
}
);
userData = {
assembly = "PUSHW[ ]	/* 4 values pushed */\01236 6 5 4 \012CALL[ ]	/* CallFunction */\012SVTCA[0]	/* SetFreedomAndProjectionVectorToAxis */\012PUSHW[ ]	/* 4 values pushed */\01225 2 54 4 \012CALL[ ]	/* CallFunction */\012PUSHW[ ]	/* 4 values pushed */\01220 3 21 4 \012CALL[ ]	/* CallFunction */\012PUSHW[ ]	/* 4 values pushed */\01211 2 32 4 \012CALL[ ]	/* CallFunction */\012PUSHW[ ]	/* 1 value pushed */\01254 \012SRP0[ ]	/* SetRefPoint0 */\012PUSHW[ ]	/* 1 value pushed */\0120 \012MDRP[10000]	/* MoveDirectRelPt */\012PUSHW[ ]	/* 1 value pushed */\0120 \012MDAP[1]	/* MoveDirectAbsPt */\012PUSHW[ ]	/* 1 value pushed */\01225 \012SRP0[ ]	/* SetRefPoint0 */\012PUSHW[ ]	/* 2 values pushed */\01222 2 \012MIRP[10100]	/* MoveIndirectRelPt */\012IUP[0]	/* InterpolateUntPts */\012IUP[1]	/* InterpolateUntPts */";
};
width = 513;
}
);
leftKerningGroup = O;
leftMetricsKey = O;
note = OE;
rightKerningGroup = E;
rightMetricsKey = E;
unicode = 0152;
},
{
glyphname = P;
lastChange = "2021-12-03 03:19:38 +0000";
layers = (
{
layerId = "04A772B0-FA71-43EE-BB43-CAC7F0EBD631";
paths = (
{
closed = 1;
nodes = (
"219 0 LINE",
"219 203 LINE",
"257 203 LINE SMOOTH",
"353.856 203 OFFCURVE",
"382 286.138 OFFCURVE",
"382 383 CURVE SMOOTH",
"382 472 LINE SMOOTH",
"382 542.667 OFFCURVE",
"343.333 591 OFFCURVE",
"250 591 CURVE SMOOTH",
"25 591 LINE",
"25 0 LINE"
);
},
{
closed = 1;
nodes = (
"43 573 LINE",
"250 573 LINE SMOOTH",
"331.333 573 OFFCURVE",
"365 532 OFFCURVE",
"365 472 CURVE SMOOTH",
"365 383 LINE SMOOTH",
"365 294.709 OFFCURVE",
"340.331 222 OFFCURVE",
"257 222 CURVE SMOOTH",
"202 222 LINE",
"202 18 LINE",
"43 18 LINE"
);
},
{
closed = 1;
nodes = (
"193 27 LINE",
"193 231 LINE",
"257 231 LINE SMOOTH",
"334.164 231 OFFCURVE",
"357 301.413 OFFCURVE",
"357 383 CURVE SMOOTH",
"357 472 LINE SMOOTH",
"357 526.667 OFFCURVE",
"326 564 OFFCURVE",
"250 564 CURVE SMOOTH",
"51 564 LINE",
"51 27 LINE"
);
},
{
closed = 1;
nodes = (
"193 488 LINE",
"206 488 LINE SMOOTH",
"213.333 488 OFFCURVE",
"217.667 481.333 OFFCURVE",
"219 468 CURVE SMOOTH",
"220.333 454.667 OFFCURVE",
"221 431.333 OFFCURVE",
"221 398 CURVE SMOOTH",
"221 364 OFFCURVE",
"219.5 340.667 OFFCURVE",
"216.5 328 CURVE SMOOTH",
"213.5 315.333 OFFCURVE",
"209 309 OFFCURVE",
"203 309 CURVE SMOOTH",
"193 309 LINE"
);
},
{
closed = 1;
nodes = (
"203 318 LINE SMOOTH",
"206.333 318 OFFCURVE",
"208.833 323.833 OFFCURVE",
"210.5 335.5 CURVE SMOOTH",
"212.167 347.167 OFFCURVE",
"213 368 OFFCURVE",
"213 398 CURVE SMOOTH",
"213 428 OFFCURVE",
"212.667 448.833 OFFCURVE",
"212 460.5 CURVE SMOOTH",
"211.333 472.167 OFFCURVE",
"209.333 478 OFFCURVE",
"206 478 CURVE SMOOTH",
"202 478 LINE",
"202 318 LINE"
);
}
);
userData = {
assembly = "SVTCA[0]	/* SetFreedomAndProjectionVectorToAxis */\012PUSHW[ ]	/* 1 value pushed */\01212 \012MDAP[1]	/* MoveDirectAbsPt */\012PUSHW[ ]	/* 4 values pushed */\01215 1 34 4 \012CALL[ ]	/* CallFunction */\012IUP[0]	/* InterpolateUntPts */\012IUP[1]	/* InterpolateUntPts */";
};
width = 398;
}
);
leftKerningGroup = H;
leftMetricsKey = H;
note = P;
rightKerningGroup = P;
unicode = 0050;
},
{
glyphname = Thorn;
lastChange = "2021-12-03 03:19:38 +0000";
layers = (
{
layerId = "04A772B0-FA71-43EE-BB43-CAC7F0EBD631";
paths = (
{
closed = 1;
nodes = (
"219 0 LINE",
"219 115 LINE",
"257 115 LINE SMOOTH",
"353.856 115 OFFCURVE",
"382 198.138 OFFCURVE",
"382 295 CURVE SMOOTH",
"382 384 LINE SMOOTH",
"382 454.667 OFFCURVE",
"343.333 503 OFFCURVE",
"250 503 CURVE SMOOTH",
"220 503 LINE",
"220 591 LINE",
"25 591 LINE",
"25 0 LINE"
);
},
{
closed = 1;
nodes = (
"43 573 LINE",
"203 573 LINE",
"203 485 LINE",
"250 485 LINE SMOOTH",
"331.333 485 OFFCURVE",
"365 444 OFFCURVE",
"365 384 CURVE SMOOTH",
"365 295 LINE SMOOTH",
"365 207.882 OFFCURVE",
"340.331 133 OFFCURVE",
"257 133 CURVE SMOOTH",
"202 133 LINE",
"202 18 LINE",
"43 18 LINE"
);
},
{
closed = 1;
nodes = (
"193 27 LINE",
"193 143 LINE",
"257 143 LINE SMOOTH",
"334.164 143 OFFCURVE",
"357 213.413 OFFCURVE",
"357 295 CURVE SMOOTH",
"357 384 LINE SMOOTH",
"357 438.667 OFFCURVE",
"326 476 OFFCURVE",
"250 476 CURVE SMOOTH",
"194 476 LINE",
"194 564 LINE",
"51 564 LINE",
"51 27 LINE"
);
},
{
closed = 1;
nodes = (
"193 399 LINE",
"206 399 LINE SMOOTH",
"213.333 399 OFFCURVE",
"217.667 392.5 OFFCURVE",
"219 379.5 CURVE SMOOTH",
"220.333 366.5 OFFCURVE",
"221 343.333 OFFCURVE",
"221 310 CURVE SMOOTH",
"221 276 OFFCURVE",
"219.5 252.667 OFFCURVE",
"216.5 240 CURVE SMOOTH",
"213.5 227.333 OFFCURVE",
"209 221 OFFCURVE",
"203 221 CURVE SMOOTH",
"193 221 LINE"
);
},
{
closed = 1;
nodes = (
"203 230 LINE SMOOTH",
"206.333 230 OFFCURVE",
"208.833 235.833 OFFCURVE",
"210.5 247.5 CURVE SMOOTH",
"212.167 259.167 OFFCURVE",
"213 280 OFFCURVE",
"213 310 CURVE SMOOTH",
"213 340 OFFCURVE",
"212.667 360.833 OFFCURVE",
"212 372.5 CURVE SMOOTH",
"211.333 384.167 OFFCURVE",
"209.333 390 OFFCURVE",
"206 390 CURVE SMOOTH",
"202 390 LINE",
"202 230 LINE"
);
}
);
userData = {
assembly = "SVTCA[0]	/* SetFreedomAndProjectionVectorToAxis */\012PUSHW[ ]	/* 1 value pushed */\01214 \012MDAP[1]	/* MoveDirectAbsPt */\012IUP[0]	/* InterpolateUntPts */\012IUP[1]	/* InterpolateUntPts */";
};
width = 407;
}
);
leftKerningGroup = H;
note = Thorn;
rightKerningGroup = P;
unicode = 00DE;
},
{
glyphname = Q;
lastChange = "2021-12-03 03:19:38 +0000";
layers = (
{
layerId = "04A772B0-FA71-43EE-BB43-CAC7F0EBD631";
paths = (
{
closed = 1;
nodes = (
"391 -45 LINE",
"379 -22 OFFCURVE",
"359 15 OFFCURVE",
"343 43 CURVE",
"366 74 OFFCURVE",
"378 120 OFFCURVE",
"378 188 CURVE SMOOTH",
"378 457 LINE SMOOTH",
"378 568 OFFCURVE",
"313 610 OFFCURVE",
"202 610 CURVE SMOOTH",
"91 610 OFFCURVE",
"20 568 OFFCURVE",
"20 457 CURVE SMOOTH",
"20 188 LINE SMOOTH",
"20 32 OFFCURVE",
"76 -8 OFFCURVE",
"193 -11 CURVE",
"257 -129 LINE"
);
},
{
closed = 1;
nodes = (
"202 7 LINE",
"91 7 OFFCURVE",
"37 44 OFFCURVE",
"37 188 CURVE SMOOTH",
"37 457 LINE SMOOTH",
"37 555 OFFCURVE",
"103 591 OFFCURVE",
"202 591 CURVE SMOOTH",
"301 591 OFFCURVE",
"361 554 OFFCURVE",
"361 457 CURVE SMOOTH",
"361 188 LINE SMOOTH",
"361 115 OFFCURVE",
"347 72 OFFCURVE",
"323 45 CURVE",
"330 32 OFFCURVE",
"338 18 OFFCURVE",
"346 3 CURVE SMOOTH",
"367 -39 LINE",
"263 -104 LINE"
);
},
{
closed = 1;
nodes = (
"355 -35 LINE",
"312 46 LINE",
"337 71 OFFCURVE",
"352 113 OFFCURVE",
"352 188 CURVE SMOOTH",
"352 457 LINE SMOOTH",
"352 549 OFFCURVE",
"295 582 OFFCURVE",
"202 582 CURVE SMOOTH",
"107 582 OFFCURVE",
"46 549 OFFCURVE",
"46 457 CURVE SMOOTH",
"46 188 LINE SMOOTH",
"46 52 OFFCURVE",
"97 17 OFFCURVE",
"202 17 CURVE SMOOTH",
"208 17 LINE",
"266 -91 LINE"
);
},
{
closed = 1;
nodes = (
"197 102 OFFCURVE",
"194 104 OFFCURVE",
"192 108 CURVE SMOOTH",
"189 111 OFFCURVE",
"188 118 OFFCURVE",
"188 129 CURVE SMOOTH",
"188 465 LINE SMOOTH",
"188 476 OFFCURVE",
"189 483 OFFCURVE",
"192 487 CURVE SMOOTH",
"194 490 OFFCURVE",
"197 492 OFFCURVE",
"202 492 CURVE SMOOTH",
"206 492 OFFCURVE",
"209 490 OFFCURVE",
"212 487 CURVE SMOOTH",
"215 483 OFFCURVE",
"216 476 OFFCURVE",
"216 465 CURVE SMOOTH",
"216 129 LINE SMOOTH",
"216 118 OFFCURVE",
"215 111 OFFCURVE",
"212 108 CURVE SMOOTH",
"209 104 OFFCURVE",
"206 102 OFFCURVE",
"202 102 CURVE SMOOTH"
);
},
{
closed = 1;
nodes = (
"203 111 OFFCURVE",
"205 112 OFFCURVE",
"206 115 CURVE SMOOTH",
"207 117 OFFCURVE",
"207 122 OFFCURVE",
"207 129 CURVE SMOOTH",
"207 465 LINE SMOOTH",
"207 472 OFFCURVE",
"207 477 OFFCURVE",
"206 480 CURVE SMOOTH",
"205 482 OFFCURVE",
"203 483 OFFCURVE",
"202 483 CURVE SMOOTH",
"201 483 OFFCURVE",
"200 482 OFFCURVE",
"199 480 CURVE SMOOTH",
"198 477 OFFCURVE",
"197 472 OFFCURVE",
"197 465 CURVE SMOOTH",
"197 129 LINE SMOOTH",
"197 122 OFFCURVE",
"198 117 OFFCURVE",
"199 115 CURVE SMOOTH",
"200 112 OFFCURVE",
"201 111 OFFCURVE",
"202 111 CURVE SMOOTH"
);
}
);
width = 411;
}
);
leftKerningGroup = O;
leftMetricsKey = O;
note = Q;
rightKerningGroup = Q;
rightMetricsKey = O;
unicode = 0051;
},
{
glyphname = R;
lastChange = "2021-12-03 03:19:38 +0000";
layers = (
{
anchors = (
{
name = bottom;
position = "{217, 0}";
},
{
name = top;
position = "{203, 591}";
}
);
layerId = "04A772B0-FA71-43EE-BB43-CAC7F0EBD631";
paths = (
{
closed = 1;
nodes = (
"426 0 LINE",
"370 229 LINE",
"361 256 OFFCURVE",
"357 268 OFFCURVE",
"346 280 CURVE",
"378 307 OFFCURVE",
"387 347 OFFCURVE",
"387 390 CURVE SMOOTH",
"387 472 LINE SMOOTH",
"387 541 OFFCURVE",
"347 591 OFFCURVE",
"252 591 CURVE SMOOTH",
"25 591 LINE",
"25 0 LINE"
);
},
{
closed = 1;
nodes = (
"42 573 LINE",
"252 573 LINE SMOOTH",
"335 573 OFFCURVE",
"369 531 OFFCURVE",
"369 472 CURVE SMOOTH",
"369 390 LINE SMOOTH",
"369 347 OFFCURVE",
"355 304 OFFCURVE",
"316 281 CURVE",
"331 272 OFFCURVE",
"342 257 OFFCURVE",
"355 218 CURVE",
"404 18 LINE",
"233 18 LINE",
"203 172 LINE",
"203 18 LINE",
"42 18 LINE"
);
},
{
closed = 1;
nodes = (
"195 27 LINE",
"195 254 LINE",
"241 27 LINE",
"393 27 LINE",
"345 222 LINE",
"331 264 OFFCURVE",
"315 277 OFFCURVE",
"289 280 CURVE",
"345 296 OFFCURVE",
"361 336 OFFCURVE",
"361 390 CURVE SMOOTH",
"361 472 LINE SMOOTH",
"361 527 OFFCURVE",
"328 564 OFFCURVE",
"252 564 CURVE SMOOTH",
"51 564 LINE",
"51 27 LINE"
);
},
{
closed = 1;
nodes = (
"195 488 LINE",
"208 488 LINE SMOOTH",
"215 488 OFFCURVE",
"220 481 OFFCURVE",
"221 468 CURVE SMOOTH",
"222 455 OFFCURVE",
"223 431 OFFCURVE",
"223 398 CURVE SMOOTH",
"223 365 OFFCURVE",
"222 343 OFFCURVE",
"219 333 CURVE SMOOTH",
"216 323 OFFCURVE",
"211 318 OFFCURVE",
"205 318 CURVE SMOOTH",
"195 318 LINE"
);
},
{
closed = 1;
nodes = (
"205 327 LINE SMOOTH",
"208 327 OFFCURVE",
"210 332 OFFCURVE",
"212 341 CURVE SMOOTH",
"214 350 OFFCURVE",
"215 369 OFFCURVE",
"215 398 CURVE SMOOTH",
"215 428 OFFCURVE",
"215 449 OFFCURVE",
"214 461 CURVE SMOOTH",
"213 472 OFFCURVE",
"211 478 OFFCURVE",
"208 478 CURVE SMOOTH",
"203 478 LINE",
"203 327 LINE"
);
}
);
userData = {
assembly = "PUSHW[ ]	/* 4 values pushed */\01261 6 53 4 \012CALL[ ]	/* CallFunction */\012PUSHW[ ]	/* 1 value pushed */\01253 \012SRP0[ ]	/* SetRefPoint0 */\012PUSHW[ ]	/* 2 values pushed */\01255 6 \012MIRP[10100]	/* MoveIndirectRelPt */\012PUSHW[ ]	/* 1 value pushed */\0124 \012MDRP[10000]	/* MoveDirectRelPt */\012PUSHW[ ]	/* 1 value pushed */\0124 \012MDAP[1]	/* MoveDirectAbsPt */\012PUSHW[ ]	/* 3 values pushed */\01210 53 61 \012SRP1[ ]	/* SetRefPoint1 */\012SRP2[ ]	/* SetRefPoint2 */\012IP[ ]	/* InterpolatePts */\012PUSHW[ ]	/* 3 values pushed */\01258 53 61 \012SRP1[ ]	/* SetRefPoint1 */\012SRP2[ ]	/* SetRefPoint2 */\012IP[ ]	/* InterpolatePts */\012PUSHW[ ]	/* 1 value pushed */\01261 \012SRP0[ ]	/* SetRefPoint0 */\012PUSHW[ ]	/* 1 value pushed */\01282 \012MDRP[11100]	/* MoveDirectRelPt */\012SVTCA[0]	/* SetFreedomAndProjectionVectorToAxis */\012PUSHW[ ]	/* 1 value pushed */\01216 \012MDAP[1]	/* MoveDirectAbsPt */\012PUSHW[ ]	/* 1 value pushed */\01226 \012MDAP[1]	/* MoveDirectAbsPt */\012PUSHW[ ]	/* 1 value pushed */\01253 \012MDAP[1]	/* MoveDirectAbsPt */\012IUP[0]	/* InterpolateUntPts */\012IUP[1]	/* InterpolateUntPts */";
};
width = 431;
}
);
leftKerningGroup = H;
leftMetricsKey = H;
note = R;
rightKerningGroup = R;
unicode = 0052;
},
{
glyphname = S;
lastChange = "2021-12-03 04:03:44 +0000";
layers = (
{
anchors = (
{
name = bottom;
position = "{196, 0}";
},
{
name = top;
position = "{201, 591}";
}
);
layerId = "04A772B0-FA71-43EE-BB43-CAC7F0EBD631";
paths = (
{
closed = 1;
nodes = (
"322 -7 OFFCURVE",
"391 45 OFFCURVE",
"391 183 CURVE SMOOTH",
"391 278 OFFCURVE",
"370 316 OFFCURVE",
"309 348 CURVE",
"385 348 LINE",
"385 436 LINE SMOOTH",
"385 541 OFFCURVE",
"324 594 OFFCURVE",
"202 594 CURVE SMOOTH",
"63 594 OFFCURVE",
"18 548 OFFCURVE",
"18 411 CURVE SMOOTH",
"18 316 OFFCURVE",
"40 262 OFFCURVE",
"117 226 CURVE",
"118 225 LINE",
"14 225 LINE",
"14 181 LINE SMOOTH",
"14 36 OFFCURVE",
"70 -7 OFFCURVE",
"197 -7 CURVE SMOOTH"
);
},
{
closed = 1;
nodes = (
"205 110 OFFCURVE",
"208 113 OFFCURVE",
"209 118 CURVE SMOOTH",
"210 123 OFFCURVE",
"211 134 OFFCURVE",
"211 151 CURVE SMOOTH",
"211 176 OFFCURVE",
"205 192 OFFCURVE",
"193 205 CURVE",
"193 158 LINE SMOOTH",
"193 137 OFFCURVE",
"194 124 OFFCURVE",
"195 119 CURVE SMOOTH",
"196 113 OFFCURVE",
"199 110 OFFCURVE",
"202 110 CURVE SMOOTH"
);
},
{
closed = 1;
nodes = (
"81 11 OFFCURVE",
"31 51 OFFCURVE",
"31 181 CURVE SMOOTH",
"31 207 LINE",
"189 207 LINE",
"174 219 OFFCURVE",
"155 228 OFFCURVE",
"124 243 CURVE SMOOTH",
"55 275 OFFCURVE",
"36 326 OFFCURVE",
"36 411 CURVE SMOOTH",
"36 533 OFFCURVE",
"76 576 OFFCURVE",
"202 576 CURVE SMOOTH",
"313 576 OFFCURVE",
"368 529 OFFCURVE",
"368 436 CURVE SMOOTH",
"368 366 LINE",
"220 366 LINE",
"228 361 OFFCURVE",
"237 356 OFFCURVE",
"258 348 CURVE SMOOTH",
"353 312 OFFCURVE",
"374 290 OFFCURVE",
"374 183 CURVE SMOOTH",
"374 57 OFFCURVE",
"310 11 OFFCURVE",
"197 11 CURVE SMOOTH"
);
},
{
closed = 1;
nodes = (
"304 20 OFFCURVE",
"365 64 OFFCURVE",
"365 183 CURVE SMOOTH",
"365 285 OFFCURVE",
"339 309 OFFCURVE",
"257 341 CURVE SMOOTH",
"214 359 OFFCURVE",
"187 363 OFFCURVE",
"187 416 CURVE SMOOTH",
"187 443 OFFCURVE",
"189 465 OFFCURVE",
"204 465 CURVE SMOOTH",
"213 465 OFFCURVE",
"219 459 OFFCURVE",
"220 446 CURVE SMOOTH",
"221 433 OFFCURVE",
"222 415 OFFCURVE",
"222 390 CURVE SMOOTH",
"222 376 LINE",
"359 376 LINE",
"359 436 LINE SMOOTH",
"359 523 OFFCURVE",
"307 566 OFFCURVE",
"202 566 CURVE SMOOTH",
"82 566 OFFCURVE",
"44 527 OFFCURVE",
"44 411 CURVE SMOOTH",
"44 328 OFFCURVE",
"62 282 OFFCURVE",
"127 251 CURVE SMOOTH",
"193 221 OFFCURVE",
"219 210 OFFCURVE",
"219 151 CURVE SMOOTH",
"219 130 OFFCURVE",
"218 116 OFFCURVE",
"216 110 CURVE SMOOTH",
"213 104 OFFCURVE",
"209 101 OFFCURVE",
"202 101 CURVE SMOOTH",
"196 101 OFFCURVE",
"192 104 OFFCURVE",
"189 111 CURVE SMOOTH",
"186 118 OFFCURVE",
"184 133 OFFCURVE",
"184 158 CURVE SMOOTH",
"184 198 LINE",
"40 198 LINE",
"40 181 LINE SMOOTH",
"40 57 OFFCURVE",
"88 20 OFFCURVE",
"197 20 CURVE SMOOTH"
);
},
{
closed = 1;
nodes = (
"213 390 LINE SMOOTH",
"213 411 OFFCURVE",
"213 428 OFFCURVE",
"212 439 CURVE SMOOTH",
"211 450 OFFCURVE",
"209 456 OFFCURVE",
"204 456 CURVE SMOOTH",
"200 456 OFFCURVE",
"198 452 OFFCURVE",
"197 444 CURVE SMOOTH",
"196 436 OFFCURVE",
"195 427 OFFCURVE",
"195 416 CURVE SMOOTH",
"195 393 OFFCURVE",
"202 380 OFFCURVE",
"213 371 CURVE"
);
}
);
userData = {
assembly = "PUSHW[ ]	/* 4 values pushed */\01217 6 16 4 \012CALL[ ]	/* CallFunction */\012PUSHW[ ]	/* 4 values pushed */\01240 6 41 4 \012CALL[ ]	/* CallFunction */\012PUSHW[ ]	/* 1 value pushed */\01240 \012SRP0[ ]	/* SetRefPoint0 */\012PUSHW[ ]	/* 1 value pushed */\0125 \012MDRP[10000]	/* MoveDirectRelPt */\012PUSHW[ ]	/* 1 value pushed */\0125 \012MDAP[1]	/* MoveDirectAbsPt */\012PUSHW[ ]	/* 1 value pushed */\01241 \012SRP0[ ]	/* SetRefPoint0 */\012PUSHW[ ]	/* 1 value pushed */\01224 \012MDRP[10000]	/* MoveDirectRelPt */\012PUSHW[ ]	/* 1 value pushed */\01224 \012MDAP[1]	/* MoveDirectAbsPt */\012PUSHW[ ]	/* 1 value pushed */\01216 \012SRP0[ ]	/* SetRefPoint0 */\012PUSHW[ ]	/* 1 value pushed */\01232 \012MDRP[10000]	/* MoveDirectRelPt */\012PUSHW[ ]	/* 1 value pushed */\01232 \012MDAP[1]	/* MoveDirectAbsPt */\012PUSHW[ ]	/* 1 value pushed */\01217 \012SRP0[ ]	/* SetRefPoint0 */\012PUSHW[ ]	/* 1 value pushed */\01248 \012MDRP[10000]	/* MoveDirectRelPt */\012PUSHW[ ]	/* 1 value pushed */\01248 \012MDAP[1]	/* MoveDirectAbsPt */\012PUSHW[ ]	/* 1 value pushed */\01216 \012SRP0[ ]	/* SetRefPoint0 */\012PUSHW[ ]	/* 1 value pushed */\01288 \012MDRP[10000]	/* MoveDirectRelPt */\012PUSHW[ ]	/* 1 value pushed */\01288 \012MDAP[1]	/* MoveDirectAbsPt */\012PUSHW[ ]	/* 3 values pushed */\01260 88 5 \012SRP1[ ]	/* SetRefPoint1 */\012SRP2[ ]	/* SetRefPoint2 */\012IP[ ]	/* InterpolatePts */\012PUSHW[ ]	/* 3 values pushed */\01270 88 5 \012SRP1[ ]	/* SetRefPoint1 */\012SRP2[ ]	/* SetRefPoint2 */\012IP[ ]	/* InterpolatePts */\012PUSHW[ ]	/* 3 values pushed */\01279 41 24 \012SRP1[ ]	/* SetRefPoint1 */\012SRP2[ ]	/* SetRefPoint2 */\012IP[ ]	/* InterpolatePts */\012PUSHW[ ]	/* 3 values pushed */\01294 88 5 \012SRP1[ ]	/* SetRefPoint1 */\012SRP2[ ]	/* SetRefPoint2 */\012IP[ ]	/* InterpolatePts */\012PUSHW[ ]	/* 3 values pushed */\012112 41 40 \012SRP1[ ]	/* SetRefPoint1 */\012SRP2[ ]	/* SetRefPoint2 */\012IP[ ]	/* InterpolatePts */\012PUSHW[ ]	/* 3 values pushed */\012130 16 17 \012SRP1[ ]	/* SetRefPoint1 */\012SRP2[ ]	/* SetRefPoint2 */\012IP[ ]	/* InterpolatePts */\012PUSHW[ ]	/* 1 value pushed */\01240 \012SRP0[ ]	/* SetRefPoint0 */\012PUSHW[ ]	/* 1 value pushed */\012143 \012MDRP[11100]	/* MoveDirectRelPt */\012SVTCA[0]	/* SetFreedomAndProjectionVectorToAxis */\012PUSHW[ ]	/* 4 values pushed */\01221 2 10 4 \012CALL[ ]	/* CallFunction */\012PUSHW[ ]	/* 4 values pushed */\01237 3 45 4 \012CALL[ ]	/* CallFunction */\012IUP[0]	/* InterpolateUntPts */\012IUP[1]	/* InterpolateUntPts */";
};
width = 405;
}
);
leftKerningGroup = S;
note = S;
rightKerningGroup = S;
unicode = 0053;
},
{
color = 8;
glyphname = Scedilla;
lastChange = "2021-12-03 03:53:48 +0000";
layers = (
{
anchors = (
{
name = bottom;
position = "{217, -168}";
},
{
name = top;
position = "{203, 591}";
}
);
background = {
components = (
{
name = S;
},
{
name = cedillacomb;
transform = "{1, 0, 0, 1, 16, 0}";
}
);
};
layerId = "04A772B0-FA71-43EE-BB43-CAC7F0EBD631";
paths = (
{
closed = 1;
nodes = (
"391 290 OFFCURVE",
"354 313 OFFCURVE",
"266 345 CURVE SMOOTH",
"223 361 OFFCURVE",
"184 368 OFFCURVE",
"184 427 CURVE SMOOTH",
"184 456 OFFCURVE",
"187 467 OFFCURVE",
"204 467 CURVE SMOOTH",
"225 467 OFFCURVE",
"225 453 OFFCURVE",
"225 399 CURVE SMOOTH",
"225 373 LINE",
"384 373 LINE",
"384 449 LINE SMOOTH",
"384 546 OFFCURVE",
"322 593 OFFCURVE",
"202 593 CURVE SMOOTH",
"62 593 OFFCURVE",
"19 548 OFFCURVE",
"19 422 CURVE SMOOTH",
"19 332 OFFCURVE",
"40 279 OFFCURVE",
"115 246 CURVE SMOOTH",
"195 211 OFFCURVE",
"222 211 OFFCURVE",
"222 147 CURVE SMOOTH",
"222 101 OFFCURVE",
"217 92 OFFCURVE",
"202 92 CURVE SMOOTH",
"188 92 OFFCURVE",
"181 101 OFFCURVE",
"181 155 CURVE SMOOTH",
"181 206 LINE",
"14 206 LINE",
"14 169 LINE SMOOTH",
"14 37 OFFCURVE",
"70 -2 OFFCURVE",
"172 -7 CURVE",
"145 -64 LINE",
"186 -86 LINE",
"188 -84 OFFCURVE",
"193 -80 OFFCURVE",
"201 -80 CURVE SMOOTH",
"210 -80 OFFCURVE",
"218 -86 OFFCURVE",
"218 -96 CURVE SMOOTH",
"218 -112 OFFCURVE",
"208 -121 OFFCURVE",
"191 -121 CURVE SMOOTH",
"178 -121 OFFCURVE",
"158 -114 OFFCURVE",
"149 -106 CURVE",
"131 -153 LINE",
"140 -159 OFFCURVE",
"169 -174 OFFCURVE",
"198 -174 CURVE SMOOTH",
"264 -174 OFFCURVE",
"302 -139 OFFCURVE",
"302 -99 CURVE SMOOTH",
"302 -70 OFFCURVE",
"279 -39 OFFCURVE",
"239 -39 CURVE SMOOTH",
"227 -39 OFFCURVE",
"218 -41 OFFCURVE",
"210 -44 CURVE",
"229 -7 LINE",
"330 0 OFFCURVE",
"391 48 OFFCURVE",
"391 171 CURVE SMOOTH"
);
}
);
width = 405;
}
);
leftKerningGroup = S;
rightKerningGroup = S;
unicode = 015E;
},
{
glyphname = Germandbls;
lastChange = "2021-12-03 01:37:11 +0000";
layers = (
{
layerId = "04A772B0-FA71-43EE-BB43-CAC7F0EBD631";
paths = (
{
closed = 1;
nodes = (
"68 1 OFFCURVE",
"52 1 OFFCURVE",
"244 0 CURVE",
"314 0 LINE SMOOTH",
"421 0 OFFCURVE",
"482 39 OFFCURVE",
"482 151 CURVE SMOOTH",
"482 228 LINE SMOOTH",
"482 285 OFFCURVE",
"465 325 OFFCURVE",
"432 347 CURVE",
"459 372 OFFCURVE",
"468 407 OFFCURVE",
"468 450 CURVE SMOOTH",
"468 513 LINE SMOOTH",
"468 592 OFFCURVE",
"392 642 OFFCURVE",
"279 642 CURVE SMOOTH",
"146 642 OFFCURVE",
"61 621 OFFCURVE",
"58 497 CURVE",
"58 361 LINE",
"58 1 LINE"
);
},
{
closed = 1;
nodes = (
"250 271 LINE",
"274 270 LINE",
"275 175 LINE",
"275 171 LINE SMOOTH",
"275 158 OFFCURVE",
"275 133 OFFCURVE",
"279 130 CURVE",
"250 130 LINE"
);
},
{
closed = 1;
nodes = (
"224 29 LINE",
"224 490 LINE SMOOTH",
"224 527 OFFCURVE",
"231 546 OFFCURVE",
"263 546 CURVE SMOOTH",
"302 546 OFFCURVE",
"302 520 OFFCURVE",
"302 476 CURVE SMOOTH",
"302 432 LINE SMOOTH",
"302 396 OFFCURVE",
"300 374 OFFCURVE",
"277 374 CURVE SMOOTH",
"253 374 LINE",
"253 300 LINE",
"283 298 LINE SMOOTH",
"286 298 OFFCURVE",
"288 297 OFFCURVE",
"291 295 CURVE SMOOTH",
"295 292 OFFCURVE",
"299 286 OFFCURVE",
"300 274 CURVE",
"301 175 LINE SMOOTH",
"301 152 OFFCURVE",
"303 102 OFFCURVE",
"280 102 CURVE SMOOTH",
"248 102 LINE",
"248 28 LINE",
"314 28 LINE SMOOTH",
"402 28 OFFCURVE",
"456 58 OFFCURVE",
"456 151 CURVE SMOOTH",
"456 228 LINE SMOOTH",
"456 305 OFFCURVE",
"413 341 OFFCURVE",
"357 341 CURVE",
"357 343 LINE",
"417 350 OFFCURVE",
"441 394 OFFCURVE",
"441 450 CURVE SMOOTH",
"441 513 LINE SMOOTH",
"441 576 OFFCURVE",
"376 614 OFFCURVE",
"279 614 CURVE SMOOTH",
"160 614 OFFCURVE",
"85 596 OFFCURVE",
"85 493 CURVE SMOOTH",
"85 470 LINE",
"85 389 LINE",
"85 29 LINE"
);
},
{
closed = 1;
nodes = (
"76 19 LINE",
"76 380 LINE",
"76 479 LINE",
"76 493 LINE SMOOTH",
"76 606 OFFCURVE",
"156 624 OFFCURVE",
"279 624 CURVE SMOOTH",
"383 624 OFFCURVE",
"450 581 OFFCURVE",
"450 513 CURVE SMOOTH",
"450 450 LINE SMOOTH",
"450 405 OFFCURVE",
"433 364 OFFCURVE",
"398 343 CURVE",
"438 328 OFFCURVE",
"465 292 OFFCURVE",
"465 228 CURVE SMOOTH",
"465 151 LINE SMOOTH",
"465 52 OFFCURVE",
"410 19 OFFCURVE",
"314 19 CURVE SMOOTH",
"239 19 LINE",
"239 111 LINE",
"280 111 LINE SMOOTH",
"293 111 OFFCURVE",
"292 150 OFFCURVE",
"292 171 CURVE SMOOTH",
"292 175 LINE",
"291 274 LINE SMOOTH",
"291 280 OFFCURVE",
"290 284 OFFCURVE",
"287 287 CURVE SMOOTH",
"286 288 OFFCURVE",
"284 289 OFFCURVE",
"283 289 CURVE SMOOTH",
"244 291 LINE",
"244 383 LINE",
"277 383 LINE SMOOTH",
"284 383 OFFCURVE",
"289 387 OFFCURVE",
"291 396 CURVE SMOOTH",
"292 405 OFFCURVE",
"293 417 OFFCURVE",
"293 432 CURVE SMOOTH",
"293 476 LINE SMOOTH",
"293 515 OFFCURVE",
"294 536 OFFCURVE",
"263 536 CURVE SMOOTH",
"238 536 OFFCURVE",
"233 521 OFFCURVE",
"233 490 CURVE SMOOTH",
"233 19 LINE"
);
},
{
closed = 1;
nodes = (
"250 490 LINE SMOOTH",
"250 509 OFFCURVE",
"254 518 OFFCURVE",
"263 518 CURVE SMOOTH",
"269 518 OFFCURVE",
"273 514 OFFCURVE",
"274 507 CURVE SMOOTH",
"275 500 OFFCURVE",
"275 489 OFFCURVE",
"275 476 CURVE SMOOTH",
"275 432 LINE SMOOTH",
"275 412 OFFCURVE",
"275 409 OFFCURVE",
"275 402 CURVE",
"250 402 LINE"
);
}
);
width = 507;
}
);
unicode = 1E9E;
},
{
glyphname = Schwa;
lastChange = "2021-12-03 03:19:38 +0000";
layers = (
{
layerId = "04A772B0-FA71-43EE-BB43-CAC7F0EBD631";
paths = (
{
closed = 1;
nodes = (
"76 601 OFFCURVE",
"18 567 OFFCURVE",
"18 381 CURVE SMOOTH",
"18 161 LINE SMOOTH",
"18 33 OFFCURVE",
"82 -9 OFFCURVE",
"196 -9 CURVE SMOOTH",
"310 -9 OFFCURVE",
"375 33 OFFCURVE",
"375 161 CURVE SMOOTH",
"375 381 LINE SMOOTH",
"375 567 OFFCURVE",
"320 601 OFFCURVE",
"196 601 CURVE SMOOTH"
);
},
{
closed = 1;
nodes = (
"306 583 OFFCURVE",
"357 549 OFFCURVE",
"357 381 CURVE SMOOTH",
"357 161 LINE SMOOTH",
"357 47 OFFCURVE",
"299 13 OFFCURVE",
"196 13 CURVE SMOOTH",
"93 13 OFFCURVE",
"35 47 OFFCURVE",
"35 161 CURVE SMOOTH",
"35 296 LINE",
"205 296 LINE",
"205 454 LINE SMOOTH",
"205 465 OFFCURVE",
"205 476 OFFCURVE",
"200 476 CURVE SMOOTH",
"195 476 OFFCURVE",
"194 465 OFFCURVE",
"194 454 CURVE SMOOTH",
"194 350 LINE",
"35 350 LINE",
"35 381 LINE SMOOTH",
"35 548 OFFCURVE",
"85 583 OFFCURVE",
"196 583 CURVE SMOOTH"
);
},
{
closed = 1;
nodes = (
"92 574 OFFCURVE",
"45 538 OFFCURVE",
"45 381 CURVE SMOOTH",
"45 359 LINE",
"186 359 LINE",
"186 454 LINE SMOOTH",
"186 469 OFFCURVE",
"187 485 OFFCURVE",
"200 485 CURVE SMOOTH",
"209 485 OFFCURVE",
"213 476 OFFCURVE",
"213 454 CURVE SMOOTH",
"213 287 LINE",
"44 287 LINE",
"44 161 LINE SMOOTH",
"44 55 OFFCURVE",
"98 23 OFFCURVE",
"196 23 CURVE SMOOTH",
"295 23 OFFCURVE",
"349 55 OFFCURVE",
"349 161 CURVE SMOOTH",
"349 381 LINE SMOOTH",
"349 538 OFFCURVE",
"301 574 OFFCURVE",
"196 574 CURVE SMOOTH"
);
},
{
closed = 1;
nodes = (
"213 128 LINE SMOOTH",
"213 113 OFFCURVE",
"206 108 OFFCURVE",
"197 108 CURVE SMOOTH",
"189 108 OFFCURVE",
"182 114 OFFCURVE",
"182 124 CURVE SMOOTH",
"182 216 LINE",
"213 216 LINE"
);
},
{
closed = 1;
nodes = (
"191 207 LINE",
"191 136 LINE SMOOTH",
"191 122 OFFCURVE",
"191 118 OFFCURVE",
"198 118 CURVE SMOOTH",
"204 118 OFFCURVE",
"204 122 OFFCURVE",
"204 136 CURVE SMOOTH",
"204 207 LINE"
);
}
);
width = 395;
}
);
rightKerningGroup = o;
unicode = 018F;
},
{
glyphname = T;
lastChange = "2021-12-03 03:19:38 +0000";
layers = (
{
anchors = (
{
name = bottom;
position = "{178, 0}";
},
{
name = center;
position = "{178, 346}";
},
{
name = top;
position = "{178, 591}";
}
);
layerId = "04A772B0-FA71-43EE-BB43-CAC7F0EBD631";
paths = (
{
closed = 1;
nodes = (
"266 0 LINE",
"266 436 LINE",
"337 436 LINE",
"337 591 LINE",
"8 591 LINE",
"8 436 LINE",
"80 436 LINE",
"80 0 LINE"
);
},
{
closed = 1;
nodes = (
"97 454 LINE",
"25 454 LINE",
"25 573 LINE",
"321 573 LINE",
"321 454 LINE",
"249 454 LINE",
"249 18 LINE",
"97 18 LINE"
);
},
{
closed = 1;
nodes = (
"240 27 LINE",
"240 463 LINE",
"312 463 LINE",
"312 564 LINE",
"34 564 LINE",
"34 463 LINE",
"106 463 LINE",
"106 27 LINE"
);
}
);
userData = {
assembly = "PUSHW[ ]	/* 4 values pushed */\0121 6 2 4 \012CALL[ ]	/* CallFunction */\012SVTCA[0]	/* SetFreedomAndProjectionVectorToAxis */\012PUSHW[ ]	/* 1 value pushed */\0121 \012MDAP[1]	/* MoveDirectAbsPt */\012IUP[0]	/* InterpolateUntPts */\012IUP[1]	/* InterpolateUntPts */";
};
width = 345;
}
);
leftKerningGroup = T;
note = T;
rightKerningGroup = T;
unicode = 0054;
},
{
color = 8;
glyphname = Tbar;
lastChange = "2021-12-03 03:56:40 +0000";
layers = (
{
anchors = (
{
name = bottom;
position = "{173, 0}";
},
{
name = center;
position = "{173, 370}";
},
{
name = top;
position = "{173, 591}";
}
);
background = {
components = (
{
name = T;
},
{
name = hyphen;
transform = "{1.1366, 0, 0, 0.76327, 14, 160}";
}
);
};
layerId = "04A772B0-FA71-43EE-BB43-CAC7F0EBD631";
paths = (
{
closed = 1;
nodes = (
"252 0 LINE",
"252 480 LINE",
"337 480 LINE",
"337 591 LINE",
"8 591 LINE",
"8 480 LINE",
"93 480 LINE",
"93 0 LINE"
);
},
{
closed = 1;
nodes = (
"284 331 LINE",
"284 408 LINE",
"62 408 LINE",
"62 331 LINE"
);
}
);
width = 345;
}
);
leftKerningGroup = T;
rightKerningGroup = T;
unicode = 0166;
},
{
color = 8;
glyphname = Tcedilla;
lastChange = "2021-12-03 03:53:48 +0000";
layers = (
{
anchors = (
{
name = bottom;
position = "{187, -168}";
},
{
name = center;
position = "{173, 370}";
},
{
name = top;
position = "{173, 591}";
}
);
background = {
components = (
{
name = Tcommaaccent;
}
);
};
layerId = "04A772B0-FA71-43EE-BB43-CAC7F0EBD631";
paths = (
{
closed = 1;
nodes = (
"337 480 LINE",
"337 591 LINE",
"8 591 LINE",
"8 480 LINE",
"93 480 LINE",
"93 0 LINE",
"146 0 LINE",
"115 -64 LINE",
"156 -86 LINE",
"158 -84 OFFCURVE",
"163 -80 OFFCURVE",
"171 -80 CURVE SMOOTH",
"180 -80 OFFCURVE",
"188 -86 OFFCURVE",
"188 -96 CURVE SMOOTH",
"188 -112 OFFCURVE",
"178 -121 OFFCURVE",
"161 -121 CURVE SMOOTH",
"148 -121 OFFCURVE",
"128 -114 OFFCURVE",
"119 -106 CURVE",
"101 -153 LINE",
"110 -159 OFFCURVE",
"139 -174 OFFCURVE",
"168 -174 CURVE SMOOTH",
"234 -174 OFFCURVE",
"272 -139 OFFCURVE",
"272 -99 CURVE SMOOTH",
"272 -70 OFFCURVE",
"249 -39 OFFCURVE",
"209 -39 CURVE SMOOTH",
"197 -39 OFFCURVE",
"188 -41 OFFCURVE",
"180 -44 CURVE",
"202 0 LINE",
"252 0 LINE",
"252 480 LINE"
);
}
);
width = 345;
}
);
leftKerningGroup = T;
rightKerningGroup = T;
unicode = 0162;
},
{
glyphname = U;
lastChange = "2021-12-03 03:30:10 +0000";
layers = (
{
anchors = (
{
name = bottom;
position = "{201, 0}";
},
{
name = ogonek;
position = "{266, 0}";
},
{
name = top;
position = "{201, 591}";
},
{
name = topright;
position = "{283, 591}";
}
);
layerId = "04A772B0-FA71-43EE-BB43-CAC7F0EBD631";
paths = (
{
closed = 1;
nodes = (
"321.647 -11 OFFCURVE",
"377 19.116 OFFCURVE",
"377 176 CURVE SMOOTH",
"377 592 LINE",
"25 592 LINE",
"25 176 LINE SMOOTH",
"25 19.116 OFFCURVE",
"80.353 -11 OFFCURVE",
"201 -11 CURVE SMOOTH"
);
},
{
closed = 1;
nodes = (
"92 7 OFFCURVE",
"42 36 OFFCURVE",
"42 176 CURVE SMOOTH",
"42 574 LINE",
"195 574 LINE",
"195 132 LINE SMOOTH",
"195 125 OFFCURVE",
"196 120 OFFCURVE",
"197 118 CURVE SMOOTH",
"198 115 OFFCURVE",
"200 114 OFFCURVE",
"201 114 CURVE SMOOTH",
"203 114 OFFCURVE",
"205 115 OFFCURVE",
"206 118 CURVE SMOOTH",
"207 120 OFFCURVE",
"207 125 OFFCURVE",
"207 132 CURVE SMOOTH",
"207 574 LINE",
"360 574 LINE",
"360 176 LINE SMOOTH",
"360 34 OFFCURVE",
"310 7 OFFCURVE",
"201 7 CURVE SMOOTH"
);
},
{
closed = 1;
nodes = (
"303 16 OFFCURVE",
"352 41 OFFCURVE",
"352 176 CURVE SMOOTH",
"352 565 LINE",
"216 565 LINE",
"216 132 LINE SMOOTH",
"216 121 OFFCURVE",
"215 114 OFFCURVE",
"212 111 CURVE SMOOTH",
"209 107 OFFCURVE",
"206 105 OFFCURVE",
"201 105 CURVE SMOOTH",
"197 105 OFFCURVE",
"194 107 OFFCURVE",
"191 111 CURVE SMOOTH",
"188 114 OFFCURVE",
"187 121 OFFCURVE",
"187 132 CURVE SMOOTH",
"187 565 LINE",
"51 565 LINE",
"51 176 LINE SMOOTH",
"51 41 OFFCURVE",
"100 16 OFFCURVE",
"201 16 CURVE SMOOTH"
);
}
);
width = 402;
}
);
leftKerningGroup = U;
leftMetricsKey = "=O+5";
note = U;
rightKerningGroup = U;
rightMetricsKey = "=O+5";
unicode = 0055;
},
{
color = 8;
glyphname = Uhorn;
lastChange = "2021-12-03 03:55:39 +0000";
layers = (
{
anchors = (
{
name = bottom;
position = "{201, 0}";
},
{
name = ogonek;
position = "{270, 0}";
},
{
name = top;
position = "{201, 591}";
},
{
name = topright;
position = "{434, 658}";
}
);
background = {
components = (
{
name = horncomb;
transform = "{1, 0, 0, 1, 242, 119}";
},
{
name = U;
}
);
};
layerId = "04A772B0-FA71-43EE-BB43-CAC7F0EBD631";
paths = (
{
closed = 1;
nodes = (
"314 608 OFFCURVE",
"301 591 OFFCURVE",
"272 591 CURVE SMOOTH",
"218 591 LINE",
"218 115 LINE SMOOTH",
"218 92 OFFCURVE",
"211 85 OFFCURVE",
"201 85 CURVE SMOOTH",
"191 85 OFFCURVE",
"184 92 OFFCURVE",
"184 115 CURVE SMOOTH",
"184 591 LINE",
"25 591 LINE",
"25 163 LINE SMOOTH",
"25 4 OFFCURVE",
"95 -12 OFFCURVE",
"201 -12 CURVE SMOOTH",
"307 -12 OFFCURVE",
"377 4 OFFCURVE",
"377 164 CURVE SMOOTH",
"377 552 LINE",
"402 570 OFFCURVE",
"414 598 OFFCURVE",
"414 638 CURVE SMOOTH",
"414 658 LINE",
"314 658 LINE",
"314 638 LINE SMOOTH"
);
}
);
width = 402;
}
);
leftKerningGroup = U;
rightKerningGroup = U;
unicode = 01AF;
},
{
color = 8;
glyphname = Uogonek;
lastChange = "2021-12-03 03:52:48 +0000";
layers = (
{
anchors = (
{
name = bottom;
position = "{201, 0}";
},
{
name = ogonek;
position = "{270, 0}";
},
{
name = top;
position = "{201, 591}";
},
{
name = topright;
position = "{251, 591}";
}
);
background = {
components = (
{
name = U;
},
{
name = ogonek;
}
);
};
layerId = "04A772B0-FA71-43EE-BB43-CAC7F0EBD631";
paths = (
{
closed = 1;
nodes = (
"218 92 OFFCURVE",
"211 85 OFFCURVE",
"201 85 CURVE SMOOTH",
"191 85 OFFCURVE",
"184 92 OFFCURVE",
"184 115 CURVE SMOOTH",
"184 591 LINE",
"25 591 LINE",
"25 163 LINE SMOOTH",
"25 21 OFFCURVE",
"81 -7 OFFCURVE",
"168 -11 CURVE",
"138 -28 OFFCURVE",
"121 -57 OFFCURVE",
"121 -83 CURVE SMOOTH",
"121 -117 OFFCURVE",
"156 -151 OFFCURVE",
"214 -151 CURVE SMOOTH",
"264 -151 OFFCURVE",
"284 -137 OFFCURVE",
"291 -133 CURVE",
"274 -96 LINE",
"271 -96 OFFCURVE",
"265 -99 OFFCURVE",
"256 -99 CURVE SMOOTH",
"240 -99 OFFCURVE",
"219 -85 OFFCURVE",
"219 -61 CURVE SMOOTH",
"219 -44 OFFCURVE",
"228 -24 OFFCURVE",
"247 -10 CURVE",
"327 -4 OFFCURVE",
"377 29 OFFCURVE",
"377 164 CURVE SMOOTH",
"377 591 LINE",
"218 591 LINE",
"218 115 LINE SMOOTH"
);
}
);
width = 402;
}
);
leftKerningGroup = U;
rightKerningGroup = U;
unicode = 0172;
},
{
glyphname = V;
lastChange = "2021-12-03 03:19:38 +0000";
layers = (
{
layerId = "04A772B0-FA71-43EE-BB43-CAC7F0EBD631";
paths = (
{
closed = 1;
nodes = (
"336 0 LINE",
"420 591 LINE",
"228 591 LINE",
"216 473 LINE",
"207 591 LINE",
"8 591 LINE",
"91 0 LINE"
);
},
{
closed = 1;
nodes = (
"28 573 LINE",
"190 573 LINE",
"216 275 LINE",
"243 573 LINE",
"400 573 LINE",
"321 18 LINE",
"106 18 LINE"
);
},
{
closed = 1;
nodes = (
"313 27 LINE",
"390 564 LINE",
"251 564 LINE",
"216 192 LINE",
"215 170 LINE",
"214 192 LINE",
"182 564 LINE",
"39 564 LINE",
"114 27 LINE"
);
}
);
userData = {
assembly = "SVTCA[0]	/* SetFreedomAndProjectionVectorToAxis */\012PUSHW[ ]	/* 1 value pushed */\0122 \012MDAP[1]	/* MoveDirectAbsPt */\012IUP[0]	/* InterpolateUntPts */\012IUP[1]	/* InterpolateUntPts */";
};
width = 428;
}
);
leftKerningGroup = V;
note = V;
rightKerningGroup = V;
unicode = 0056;
},
{
glyphname = W;
lastChange = "2021-12-03 03:19:38 +0000";
layers = (
{
anchors = (
{
name = bottom;
position = "{323, 0}";
},
{
name = top;
position = "{323, 591}";
}
);
layerId = "04A772B0-FA71-43EE-BB43-CAC7F0EBD631";
paths = (
{
closed = 1;
nodes = (
"311 0 LINE",
"322 76 LINE",
"334 0 LINE",
"551 0 LINE",
"638 591 LINE",
"431 591 LINE",
"430 575 OFFCURVE",
"428 556 OFFCURVE",
"425 535 CURVE SMOOTH",
"422 513 OFFCURVE",
"420 493 OFFCURVE",
"419 476 CURVE",
"408 591 LINE",
"236 591 LINE",
"226 483 LINE",
"215 591 LINE",
"8 591 LINE",
"94 0 LINE"
);
},
{
closed = 1;
nodes = (
"29 573 LINE",
"198 573 LINE",
"226 304 LINE",
"237 395 OFFCURVE",
"246 485 OFFCURVE",
"254 573 CURVE",
"391 573 LINE",
"418 304 LINE",
"423 349 OFFCURVE",
"428 395 OFFCURVE",
"433 440 CURVE SMOOTH",
"447 573 LINE",
"617 573 LINE",
"536 18 LINE",
"350 18 LINE",
"323 198 LINE",
"318 167 OFFCURVE",
"314 137 OFFCURVE",
"309 107 CURVE SMOOTH",
"296 18 LINE",
"110 18 LINE"
);
},
{
closed = 1;
nodes = (
"288 27 LINE",
"322 261 LINE",
"358 27 LINE",
"527 27 LINE",
"606 564 LINE",
"455 564 LINE",
"418 209 LINE",
"383 564 LINE",
"262 564 LINE",
"227 209 LINE",
"190 564 LINE",
"39 564 LINE",
"118 27 LINE"
);
}
);
userData = {
assembly = "SVTCA[0]	/* SetFreedomAndProjectionVectorToAxis */\012PUSHW[ ]	/* 1 value pushed */\0123 \012MDAP[1]	/* MoveDirectAbsPt */\012PUSHW[ ]	/* 1 value pushed */\0126 \012MDAP[1]	/* MoveDirectAbsPt */\012IUP[0]	/* InterpolateUntPts */\012IUP[1]	/* InterpolateUntPts */";
};
width = 646;
}
);
leftKerningGroup = W;
note = W;
rightKerningGroup = W;
unicode = 0057;
},
{
glyphname = X;
lastChange = "2021-12-03 03:19:38 +0000";
layers = (
{
layerId = "04A772B0-FA71-43EE-BB43-CAC7F0EBD631";
paths = (
{
closed = 1;
nodes = (
"208 0 LINE",
"211 11 OFFCURVE",
"213 21 OFFCURVE",
"214 33 CURVE",
"220 0 LINE",
"412 0 LINE",
"341 305 LINE",
"415 591 LINE",
"212 591 LINE",
"209 580 OFFCURVE",
"207 570 OFFCURVE",
"206 558 CURVE",
"199 591 LINE",
"6 591 LINE",
"15 554 OFFCURVE",
"33 489 OFFCURVE",
"44 449 CURVE SMOOTH",
"55 408 OFFCURVE",
"73 343 OFFCURVE",
"82 306 CURVE",
"5 0 LINE"
);
},
{
closed = 1;
nodes = (
"100 306 LINE",
"29 573 LINE",
"186 573 LINE",
"208 471 LINE",
"211 488 OFFCURVE",
"215 506 OFFCURVE",
"218 523 CURVE SMOOTH",
"227 573 LINE",
"392 573 LINE",
"324 306 LINE",
"391 18 LINE",
"234 18 LINE",
"212 120 LINE",
"205 85 OFFCURVE",
"199 51 OFFCURVE",
"194 18 CURVE",
"28 18 LINE"
);
},
{
closed = 1;
nodes = (
"186 27 LINE",
"211 167 LINE",
"241 27 LINE",
"379 27 LINE",
"314 306 LINE",
"381 564 LINE",
"234 564 LINE",
"209 423 LINE",
"179 564 LINE",
"41 564 LINE",
"109 306 LINE",
"39 27 LINE"
);
}
);
userData = {
assembly = "SVTCA[0]	/* SetFreedomAndProjectionVectorToAxis */\012PUSHW[ ]	/* 1 value pushed */\0121 \012MDAP[1]	/* MoveDirectAbsPt */\012PUSHW[ ]	/* 1 value pushed */\01210 \012MDAP[1]	/* MoveDirectAbsPt */\012PUSHW[ ]	/* 1 value pushed */\01228 \012MDAP[1]	/* MoveDirectAbsPt */\012PUSHW[ ]	/* 1 value pushed */\0124 \012MDAP[1]	/* MoveDirectAbsPt */\012PUSHW[ ]	/* 1 value pushed */\0127 \012MDAP[1]	/* MoveDirectAbsPt */\012PUSHW[ ]	/* 1 value pushed */\01240 \012MDAP[1]	/* MoveDirectAbsPt */\012PUSHW[ ]	/* 3 values pushed */\0120 1 4 \012SRP1[ ]	/* SetRefPoint1 */\012SRP2[ ]	/* SetRefPoint2 */\012IP[ ]	/* InterpolatePts */\012PUSHW[ ]	/* 3 values pushed */\0126 1 4 \012SRP1[ ]	/* SetRefPoint1 */\012SRP2[ ]	/* SetRefPoint2 */\012IP[ ]	/* InterpolatePts */\012PUSHW[ ]	/* 3 values pushed */\01219 1 4 \012SRP1[ ]	/* SetRefPoint1 */\012SRP2[ ]	/* SetRefPoint2 */\012IP[ ]	/* InterpolatePts */\012PUSHW[ ]	/* 3 values pushed */\01227 1 4 \012SRP1[ ]	/* SetRefPoint1 */\012SRP2[ ]	/* SetRefPoint2 */\012IP[ ]	/* InterpolatePts */\012IUP[0]	/* InterpolateUntPts */\012IUP[1]	/* InterpolateUntPts */";
};
width = 420;
}
);
leftKerningGroup = X;
note = X;
rightKerningGroup = X;
unicode = 0058;
},
{
glyphname = Y;
lastChange = "2021-12-03 01:41:12 +0000";
layers = (
{
anchors = (
{
name = bottom;
position = "{204, 0}";
},
{
name = top;
position = "{212, 591}";
},
{
name = topleft;
position = "{20, 591}";
}
);
layerId = "04A772B0-FA71-43EE-BB43-CAC7F0EBD631";
paths = (
{
closed = 1;
nodes = (
"300 0 LINE",
"300 236 LINE",
"409 591 LINE",
"228 591 LINE",
"212 527 LINE",
"196 591 LINE",
"4 591 LINE",
"111 244 LINE",
"111 0 LINE"
);
},
{
closed = 1;
nodes = (
"128 247 LINE",
"28 573 LINE",
"183 573 LINE",
"212 456 LINE",
"241 573 LINE",
"385 573 LINE",
"283 239 LINE",
"283 18 LINE",
"128 18 LINE"
);
},
{
closed = 1;
nodes = (
"274 27 LINE",
"274 241 LINE",
"373 564 LINE",
"248 564 LINE",
"220 451 LINE",
"212 404 LINE",
"204 451 LINE",
"176 564 LINE",
"41 564 LINE",
"137 250 LINE",
"137 27 LINE"
);
}
);
userData = {
assembly = "PUSHW[ ]	/* 4 values pushed */\0122 6 3 4 \012CALL[ ]	/* CallFunction */\012PUSHW[ ]	/* 3 values pushed */\0128 3 2 \012SRP1[ ]	/* SetRefPoint1 */\012SRP2[ ]	/* SetRefPoint2 */\012IP[ ]	/* InterpolatePts */\012PUSHW[ ]	/* 3 values pushed */\01212 3 2 \012SRP1[ ]	/* SetRefPoint1 */\012SRP2[ ]	/* SetRefPoint2 */\012IP[ ]	/* InterpolatePts */\012PUSHW[ ]	/* 3 values pushed */\01227 3 2 \012SRP1[ ]	/* SetRefPoint1 */\012SRP2[ ]	/* SetRefPoint2 */\012IP[ ]	/* InterpolatePts */\012SVTCA[0]	/* SetFreedomAndProjectionVectorToAxis */\012PUSHW[ ]	/* 1 value pushed */\0122 \012MDAP[1]	/* MoveDirectAbsPt */\012IUP[0]	/* InterpolateUntPts */\012IUP[1]	/* InterpolateUntPts */";
};
width = 413;
}
);
leftKerningGroup = Y;
note = Y;
rightKerningGroup = Y;
unicode = 0059;
},
{
glyphname = Z;
lastChange = "2021-12-03 01:37:11 +0000";
layers = (
{
layerId = "04A772B0-FA71-43EE-BB43-CAC7F0EBD631";
paths = (
{
closed = 1;
nodes = (
"298 0 LINE",
"298 155 LINE",
"211 155 LINE",
"298 492 LINE",
"298 591 LINE",
"19 591 LINE",
"19 436 LINE",
"91 436 LINE",
"10 120 LINE",
"10 0 LINE"
);
},
{
closed = 1;
nodes = (
"27 119 LINE",
"113 454 LINE",
"35 454 LINE",
"35 573 LINE",
"282 573 LINE",
"282 493 LINE",
"189 137 LINE",
"282 137 LINE",
"282 18 LINE",
"27 18 LINE"
);
},
{
closed = 1;
nodes = (
"273 27 LINE",
"273 128 LINE",
"178 128 LINE",
"273 496 LINE",
"273 564 LINE",
"43 564 LINE",
"43 463 LINE",
"124 463 LINE",
"35 116 LINE",
"35 27 LINE"
);
}
);
userData = {
assembly = "PUSHW[ ]	/* 4 values pushed */\01210 5 20 4 \012CALL[ ]	/* CallFunction */\012PUSHW[ ]	/* 3 values pushed */\01212 20 10 \012SRP1[ ]	/* SetRefPoint1 */\012SRP2[ ]	/* SetRefPoint2 */\012IP[ ]	/* InterpolatePts */\012PUSHW[ ]	/* 1 value pushed */\01210 \012SRP0[ ]	/* SetRefPoint0 */\012PUSHW[ ]	/* 1 value pushed */\01213 \012MDRP[10000]	/* MoveDirectRelPt */\012PUSHW[ ]	/* 1 value pushed */\01211 \012SRP0[ ]	/* SetRefPoint0 */\012PUSHW[ ]	/* 1 value pushed */\01214 \012MDRP[10000]	/* MoveDirectRelPt */\012PUSHW[ ]	/* 1 value pushed */\01210 \012SRP0[ ]	/* SetRefPoint0 */\012PUSHW[ ]	/* 2 values pushed */\01218 5 \012MIRP[10100]	/* MoveIndirectRelPt */\012PUSHW[ ]	/* 1 value pushed */\01210 \012SRP0[ ]	/* SetRefPoint0 */\012PUSHW[ ]	/* 1 value pushed */\01231 \012MDRP[11100]	/* MoveDirectRelPt */\012SVTCA[0]	/* SetFreedomAndProjectionVectorToAxis */\012PUSHW[ ]	/* 4 values pushed */\0127 3 9 4 \012CALL[ ]	/* CallFunction */\012IUP[0]	/* InterpolateUntPts */\012IUP[1]	/* InterpolateUntPts */";
};
width = 308;
}
);
leftKerningGroup = Z;
note = Z;
rightKerningGroup = Z;
unicode = 005A;
},
{
glyphname = Zacute;
lastChange = "2021-12-03 01:37:11 +0000";
layers = (
{
layerId = "04A772B0-FA71-43EE-BB43-CAC7F0EBD631";
paths = (
{
closed = 1;
nodes = (
"298 0 LINE",
"298 155 LINE",
"211 155 LINE",
"298 492 LINE",
"298 591 LINE",
"19 591 LINE",
"19 436 LINE",
"91 436 LINE",
"10 120 LINE",
"10 0 LINE"
);
},
{
closed = 1;
nodes = (
"27 119 LINE",
"113 454 LINE",
"35 454 LINE",
"35 573 LINE",
"282 573 LINE",
"282 493 LINE",
"189 137 LINE",
"282 137 LINE",
"282 18 LINE",
"27 18 LINE"
);
},
{
closed = 1;
nodes = (
"273 27 LINE",
"273 128 LINE",
"178 128 LINE",
"273 496 LINE",
"273 564 LINE",
"43 564 LINE",
"43 463 LINE",
"124 463 LINE",
"35 116 LINE",
"35 27 LINE"
);
},
{
closed = 1;
nodes = (
"144 737 LINE",
"270 737 LINE",
"155 658 LINE",
"58 658 LINE"
);
},
{
closed = 1;
nodes = (
"152 665 LINE",
"249 731 LINE",
"147 731 LINE",
"75 665 LINE"
);
},
{
closed = 1;
nodes = (
"161 646 LINE",
"314 750 LINE",
"137 750 LINE",
"23 646 LINE"
);
}
);
userData = {
assembly = "PUSHW[ ]	/* 4 values pushed */\01210 5 20 4 \012CALL[ ]	/* CallFunction */\012PUSHW[ ]	/* 3 values pushed */\01212 20 10 \012SRP1[ ]	/* SetRefPoint1 */\012SRP2[ ]	/* SetRefPoint2 */\012IP[ ]	/* InterpolatePts */\012PUSHW[ ]	/* 1 value pushed */\01210 \012SRP0[ ]	/* SetRefPoint0 */\012PUSHW[ ]	/* 1 value pushed */\01213 \012MDRP[10000]	/* MoveDirectRelPt */\012PUSHW[ ]	/* 1 value pushed */\01211 \012SRP0[ ]	/* SetRefPoint0 */\012PUSHW[ ]	/* 1 value pushed */\01214 \012MDRP[10000]	/* MoveDirectRelPt */\012PUSHW[ ]	/* 1 value pushed */\01210 \012SRP0[ ]	/* SetRefPoint0 */\012PUSHW[ ]	/* 2 values pushed */\01218 5 \012MIRP[10100]	/* MoveIndirectRelPt */\012PUSHW[ ]	/* 3 values pushed */\01231 20 10 \012SRP1[ ]	/* SetRefPoint1 */\012SRP2[ ]	/* SetRefPoint2 */\012IP[ ]	/* InterpolatePts */\012PUSHW[ ]	/* 1 value pushed */\01231 \012MDAP[1]	/* MoveDirectAbsPt */\012PUSHW[ ]	/* 2 values pushed */\01233 5 \012MIRP[10100]	/* MoveIndirectRelPt */\012PUSHW[ ]	/* 3 values pushed */\01234 20 10 \012SRP1[ ]	/* SetRefPoint1 */\012SRP2[ ]	/* SetRefPoint2 */\012IP[ ]	/* InterpolatePts */\012PUSHW[ ]	/* 3 values pushed */\01236 20 10 \012SRP1[ ]	/* SetRefPoint1 */\012SRP2[ ]	/* SetRefPoint2 */\012IP[ ]	/* InterpolatePts */\012PUSHW[ ]	/* 3 values pushed */\01239 20 10 \012SRP1[ ]	/* SetRefPoint1 */\012SRP2[ ]	/* SetRefPoint2 */\012IP[ ]	/* InterpolatePts */\012PUSHW[ ]	/* 1 value pushed */\01210 \012SRP0[ ]	/* SetRefPoint0 */\012PUSHW[ ]	/* 1 value pushed */\01243 \012MDRP[11100]	/* MoveDirectRelPt */\012SVTCA[0]	/* SetFreedomAndProjectionVectorToAxis */\012PUSHW[ ]	/* 4 values pushed */\0127 3 0 4 \012CALL[ ]	/* CallFunction */\012PUSHW[ ]	/* 4 values pushed */\01232 2 30 4 \012CALL[ ]	/* CallFunction */\012PUSHW[ ]	/* 1 value pushed */\01232 \012SRP0[ ]	/* SetRefPoint0 */\012PUSHW[ ]	/* 1 value pushed */\01234 \012MDRP[10000]	/* MoveDirectRelPt */\012PUSHW[ ]	/* 1 value pushed */\01234 \012MDAP[1]	/* MoveDirectAbsPt */\012PUSHW[ ]	/* 1 value pushed */\01230 \012SRP0[ ]	/* SetRefPoint0 */\012PUSHW[ ]	/* 1 value pushed */\01236 \012MDRP[10000]	/* MoveDirectRelPt */\012PUSHW[ ]	/* 1 value pushed */\01236 \012MDAP[1]	/* MoveDirectAbsPt */\012IUP[0]	/* InterpolateUntPts */\012IUP[1]	/* InterpolateUntPts */";
};
width = 314;
}
);
leftKerningGroup = Z;
note = Zacute;
rightKerningGroup = Z;
unicode = 0179;
},
{
glyphname = Zcaron;
lastChange = "2021-12-03 01:37:11 +0000";
layers = (
{
layerId = "04A772B0-FA71-43EE-BB43-CAC7F0EBD631";
paths = (
{
closed = 1;
nodes = (
"324 0 LINE",
"324 155 LINE",
"237 155 LINE",
"324 492 LINE",
"324 591 LINE",
"45 591 LINE",
"45 436 LINE",
"117 436 LINE",
"36 120 LINE",
"36 0 LINE"
);
},
{
closed = 1;
nodes = (
"53 119 LINE",
"139 454 LINE",
"61 454 LINE",
"61 573 LINE",
"308 573 LINE",
"308 493 LINE",
"215 137 LINE",
"308 137 LINE",
"308 18 LINE",
"53 18 LINE"
);
},
{
closed = 1;
nodes = (
"299 27 LINE",
"299 128 LINE",
"204 128 LINE",
"299 496 LINE",
"299 564 LINE",
"69 564 LINE",
"69 463 LINE",
"150 463 LINE",
"61 116 LINE",
"61 27 LINE"
);
},
{
closed = 1;
nodes = (
"232 633 LINE",
"369 750 LINE",
"220 750 LINE",
"189 718 LINE",
"157 750 LINE",
"10 750 LINE",
"146 633 LINE"
);
},
{
closed = 1;
nodes = (
"48 737 LINE",
"149 737 LINE",
"189 695 LINE",
"228 737 LINE",
"332 737 LINE",
"225 646 LINE",
"154 646 LINE"
);
},
{
closed = 1;
nodes = (
"221 653 LINE",
"313 730 LINE",
"232 730 LINE",
"189 684 LINE",
"145 730 LINE",
"67 730 LINE",
"157 653 LINE"
);
}
);
userData = {
assembly = "PUSHW[ ]	/* 4 values pushed */\01210 5 20 4 \012CALL[ ]	/* CallFunction */\012PUSHW[ ]	/* 1 value pushed */\01210 \012SRP0[ ]	/* SetRefPoint0 */\012PUSHW[ ]	/* 2 values pushed */\0120 5 \012MIRP[10100]	/* MoveIndirectRelPt */\012PUSHW[ ]	/* 1 value pushed */\01210 \012SRP0[ ]	/* SetRefPoint0 */\012PUSHW[ ]	/* 2 values pushed */\01218 5 \012MIRP[10100]	/* MoveIndirectRelPt */\012PUSHW[ ]	/* 2 values pushed */\0128 5 \012MIRP[10100]	/* MoveIndirectRelPt */\012PUSHW[ ]	/* 1 value pushed */\0125 \012MDRP[10000]	/* MoveDirectRelPt */\012PUSHW[ ]	/* 3 values pushed */\01212 20 10 \012SRP1[ ]	/* SetRefPoint1 */\012SRP2[ ]	/* SetRefPoint2 */\012IP[ ]	/* InterpolatePts */\012PUSHW[ ]	/* 1 value pushed */\01210 \012SRP0[ ]	/* SetRefPoint0 */\012PUSHW[ ]	/* 1 value pushed */\01213 \012MDRP[10000]	/* MoveDirectRelPt */\012PUSHW[ ]	/* 1 value pushed */\01211 \012SRP0[ ]	/* SetRefPoint0 */\012PUSHW[ ]	/* 1 value pushed */\01214 \012MDRP[10000]	/* MoveDirectRelPt */\012PUSHW[ ]	/* 1 value pushed */\0120 \012SRP0[ ]	/* SetRefPoint0 */\012PUSHW[ ]	/* 1 value pushed */\01215 \012MDRP[10000]	/* MoveDirectRelPt */\012PUSHW[ ]	/* 3 values pushed */\01231 20 10 \012SRP1[ ]	/* SetRefPoint1 */\012SRP2[ ]	/* SetRefPoint2 */\012IP[ ]	/* InterpolatePts */\012PUSHW[ ]	/* 3 values pushed */\01242 20 10 \012SRP1[ ]	/* SetRefPoint1 */\012SRP2[ ]	/* SetRefPoint2 */\012IP[ ]	/* InterpolatePts */\012PUSHW[ ]	/* 1 value pushed */\01210 \012SRP0[ ]	/* SetRefPoint0 */\012PUSHW[ ]	/* 1 value pushed */\01252 \012MDRP[11100]	/* MoveDirectRelPt */\012SVTCA[0]	/* SetFreedomAndProjectionVectorToAxis */\012PUSHW[ ]	/* 4 values pushed */\0127 3 0 4 \012CALL[ ]	/* CallFunction */\012PUSHW[ ]	/* 4 values pushed */\01232 2 30 4 \012CALL[ ]	/* CallFunction */\012PUSHW[ ]	/* 1 value pushed */\01232 \012SRP0[ ]	/* SetRefPoint0 */\012PUSHW[ ]	/* 1 value pushed */\01234 \012MDRP[10000]	/* MoveDirectRelPt */\012PUSHW[ ]	/* 1 value pushed */\01230 \012SRP0[ ]	/* SetRefPoint0 */\012PUSHW[ ]	/* 1 value pushed */\01237 \012MDRP[10000]	/* MoveDirectRelPt */\012PUSHW[ ]	/* 1 value pushed */\01237 \012MDAP[1]	/* MoveDirectAbsPt */\012PUSHW[ ]	/* 1 value pushed */\01232 \012SRP0[ ]	/* SetRefPoint0 */\012PUSHW[ ]	/* 1 value pushed */\01238 \012MDRP[10000]	/* MoveDirectRelPt */\012PUSHW[ ]	/* 1 value pushed */\01238 \012MDAP[1]	/* MoveDirectAbsPt */\012PUSHW[ ]	/* 1 value pushed */\01232 \012SRP0[ ]	/* SetRefPoint0 */\012PUSHW[ ]	/* 1 value pushed */\01241 \012MDRP[10000]	/* MoveDirectRelPt */\012PUSHW[ ]	/* 1 value pushed */\01241 \012MDAP[1]	/* MoveDirectAbsPt */\012IUP[0]	/* InterpolateUntPts */\012IUP[1]	/* InterpolateUntPts */";
};
width = 371;
}
);
leftKerningGroup = Z;
note = Zcaron;
rightKerningGroup = Z;
unicode = 017D;
},
{
glyphname = Zdotaccent;
lastChange = "2021-12-03 01:37:11 +0000";
layers = (
{
layerId = "04A772B0-FA71-43EE-BB43-CAC7F0EBD631";
paths = (
{
closed = 1;
nodes = (
"298 0 LINE",
"298 155 LINE",
"211 155 LINE",
"298 492 LINE",
"298 591 LINE",
"19 591 LINE",
"19 436 LINE",
"91 436 LINE",
"10 120 LINE",
"10 0 LINE"
);
},
{
closed = 1;
nodes = (
"27 119 LINE",
"113 454 LINE",
"35 454 LINE",
"35 573 LINE",
"282 573 LINE",
"282 493 LINE",
"189 137 LINE",
"282 137 LINE",
"282 18 LINE",
"27 18 LINE"
);
},
{
closed = 1;
nodes = (
"273 27 LINE",
"273 128 LINE",
"178 128 LINE",
"273 496 LINE",
"273 564 LINE",
"43 564 LINE",
"43 463 LINE",
"124 463 LINE",
"35 116 LINE",
"35 27 LINE"
);
},
{
closed = 1;
nodes = (
"198 637 OFFCURVE",
"225 662 OFFCURVE",
"225 693 CURVE SMOOTH",
"225 725 OFFCURVE",
"198 750 OFFCURVE",
"166 750 CURVE SMOOTH",
"133 750 OFFCURVE",
"107 725 OFFCURVE",
"107 693 CURVE SMOOTH",
"107 662 OFFCURVE",
"133 637 OFFCURVE",
"166 637 CURVE SMOOTH"
);
},
{
closed = 1;
nodes = (
"139 650 OFFCURVE",
"121 670 OFFCURVE",
"121 693 CURVE SMOOTH",
"121 718 OFFCURVE",
"139 737 OFFCURVE",
"166 737 CURVE SMOOTH",
"191 737 OFFCURVE",
"212 718 OFFCURVE",
"212 693 CURVE SMOOTH",
"212 670 OFFCURVE",
"191 650 OFFCURVE",
"166 650 CURVE SMOOTH"
);
},
{
closed = 1;
nodes = (
"189 657 OFFCURVE",
"206 673 OFFCURVE",
"206 693 CURVE SMOOTH",
"206 714 OFFCURVE",
"189 731 OFFCURVE",
"166 731 CURVE SMOOTH",
"143 731 OFFCURVE",
"127 714 OFFCURVE",
"127 693 CURVE SMOOTH",
"127 673 OFFCURVE",
"143 657 OFFCURVE",
"166 657 CURVE SMOOTH"
);
}
);
userData = {
assembly = "PUSHW[ ]	/* 4 values pushed */\01210 5 20 4 \012CALL[ ]	/* CallFunction */\012PUSHW[ ]	/* 3 values pushed */\01212 20 10 \012SRP1[ ]	/* SetRefPoint1 */\012SRP2[ ]	/* SetRefPoint2 */\012IP[ ]	/* InterpolatePts */\012PUSHW[ ]	/* 1 value pushed */\01210 \012SRP0[ ]	/* SetRefPoint0 */\012PUSHW[ ]	/* 1 value pushed */\01213 \012MDRP[10000]	/* MoveDirectRelPt */\012PUSHW[ ]	/* 1 value pushed */\01211 \012SRP0[ ]	/* SetRefPoint0 */\012PUSHW[ ]	/* 1 value pushed */\01214 \012MDRP[10000]	/* MoveDirectRelPt */\012PUSHW[ ]	/* 1 value pushed */\01210 \012SRP0[ ]	/* SetRefPoint0 */\012PUSHW[ ]	/* 2 values pushed */\01218 5 \012MIRP[10100]	/* MoveIndirectRelPt */\012PUSHW[ ]	/* 3 values pushed */\01254 20 10 \012SRP1[ ]	/* SetRefPoint1 */\012SRP2[ ]	/* SetRefPoint2 */\012IP[ ]	/* InterpolatePts */\012PUSHW[ ]	/* 1 value pushed */\01254 \012MDAP[1]	/* MoveDirectAbsPt */\012NPUSHW[ ]	/* 9 values pushed */\0129 54 25 54 41 54 57 54 4 \012DELTAP1[ ]	/* DeltaExceptionP1 */\012PUSHW[ ]	/* 2 values pushed */\01236 6 \012MIRP[10100]	/* MoveIndirectRelPt */\012PUSHW[ ]	/* 2 values pushed */\01230 6 \012MIRP[10100]	/* MoveIndirectRelPt */\012PUSHW[ ]	/* 1 value pushed */\01242 \012MDRP[10000]	/* MoveDirectRelPt */\012PUSHW[ ]	/* 1 value pushed */\01242 \012MDAP[1]	/* MoveDirectAbsPt */\012PUSHW[ ]	/* 1 value pushed */\01236 \012SRP0[ ]	/* SetRefPoint0 */\012PUSHW[ ]	/* 1 value pushed */\01248 \012MDRP[10000]	/* MoveDirectRelPt */\012PUSHW[ ]	/* 1 value pushed */\01248 \012MDAP[1]	/* MoveDirectAbsPt */\012PUSHW[ ]	/* 1 value pushed */\01210 \012SRP0[ ]	/* SetRefPoint0 */\012PUSHW[ ]	/* 1 value pushed */\01267 \012MDRP[11100]	/* MoveDirectRelPt */\012SVTCA[0]	/* SetFreedomAndProjectionVectorToAxis */\012PUSHW[ ]	/* 4 values pushed */\0127 3 0 4 \012CALL[ ]	/* CallFunction */\012PUSHW[ ]	/* 4 values pushed */\01233 2 39 4 \012CALL[ ]	/* CallFunction */\012PUSHW[ ]	/* 1 value pushed */\01239 \012SRP0[ ]	/* SetRefPoint0 */\012PUSHW[ ]	/* 1 value pushed */\01245 \012MDRP[10000]	/* MoveDirectRelPt */\012PUSHW[ ]	/* 1 value pushed */\01245 \012MDAP[1]	/* MoveDirectAbsPt */\012PUSHW[ ]	/* 1 value pushed */\01233 \012SRP0[ ]	/* SetRefPoint0 */\012PUSHW[ ]	/* 1 value pushed */\01251 \012MDRP[10000]	/* MoveDirectRelPt */\012PUSHW[ ]	/* 1 value pushed */\01251 \012MDAP[1]	/* MoveDirectAbsPt */\012IUP[0]	/* InterpolateUntPts */\012IUP[1]	/* InterpolateUntPts */";
};
width = 308;
}
);
leftKerningGroup = Z;
note = Zdotaccent;
rightKerningGroup = Z;
unicode = 017B;
},
{
glyphname = A.tabular;
lastChange = "2021-12-03 01:41:59 +0000";
layers = (
{
anchors = (
{
name = bottom;
position = "{217, 0}";
},
{
name = ogonek;
position = "{392, 0}";
},
{
name = top;
position = "{218, 495}";
}
);
layerId = "04A772B0-FA71-43EE-BB43-CAC7F0EBD631";
paths = (
{
closed = 1;
nodes = (
"394 0 LINE",
"327 496 LINE",
"115 496 LINE",
"46 0 LINE"
);
},
{
closed = 1;
nodes = (
"222 158 LINE",
"217 228 LINE",
"213 158 LINE"
);
},
{
closed = 1;
nodes = (
"130 478 LINE",
"312 478 LINE",
"374 18 LINE",
"228 18 LINE",
"223 82 LINE",
"213 82 LINE",
"212.333 72 OFFCURVE",
"212 61 OFFCURVE",
"211 49.5 CURVE SMOOTH",
"209 18 LINE",
"66 18 LINE"
);
},
{
closed = 1;
nodes = (
"200 27 LINE",
"205 91 LINE",
"231 91 LINE",
"236 27 LINE",
"364 27 LINE",
"305 469 LINE",
"137 469 LINE",
"76 27 LINE"
);
},
{
closed = 1;
nodes = (
"218 376 LINE",
"231 149 LINE",
"205 149 LINE"
);
}
);
userData = {
assembly = "PUSHW[ ]	/* 3 values pushed */\01224 5 3 \012CALL[ ]	/* CallFunction */\012PUSHW[ ]	/* 1 value pushed */\0125 \012SRP0[ ]	/* SetRefPoint0 */\012PUSHW[ ]	/* 1 value pushed */\0128 \012MDRP[10000]	/* MoveDirectRelPt */\012PUSHW[ ]	/* 1 value pushed */\0128 \012MDAP[1]	/* MoveDirectAbsPt */\012PUSHW[ ]	/* 1 value pushed */\01224 \012SRP0[ ]	/* SetRefPoint0 */\012PUSHW[ ]	/* 1 value pushed */\01210 \012MDRP[10000]	/* MoveDirectRelPt */\012PUSHW[ ]	/* 1 value pushed */\01210 \012MDAP[1]	/* MoveDirectAbsPt */\012PUSHW[ ]	/* 1 value pushed */\01224 \012SRP0[ ]	/* SetRefPoint0 */\012PUSHW[ ]	/* 1 value pushed */\01211 \012MDRP[10000]	/* MoveDirectRelPt */\012PUSHW[ ]	/* 1 value pushed */\01211 \012MDAP[1]	/* MoveDirectAbsPt */\012PUSHW[ ]	/* 1 value pushed */\01224 \012SRP0[ ]	/* SetRefPoint0 */\012PUSHW[ ]	/* 1 value pushed */\01216 \012MDRP[10000]	/* MoveDirectRelPt */\012PUSHW[ ]	/* 1 value pushed */\01216 \012MDAP[1]	/* MoveDirectAbsPt */\012SVTCA[0]	/* SetFreedomAndProjectionVectorToAxis */\012PUSHW[ ]	/* 1 value pushed */\0120 \012RCVT[ ]	/* ReadCVT */\012IF[ ]	/* If */\012PUSHW[ ]	/* 1 value pushed */\01228 \012MDAP[1]	/* MoveDirectAbsPt */\012ELSE[ ]	/* Else */\012PUSHW[ ]	/* 2 values pushed */\01228 11 \012MIAP[0]	/* MoveIndirectAbsPt */\012EIF[ ]	/* EndIf */\012PUSHW[ ]	/* 1 value pushed */\0120 \012RCVT[ ]	/* ReadCVT */\012IF[ ]	/* If */\012PUSHW[ ]	/* 1 value pushed */\01229 \012MDAP[1]	/* MoveDirectAbsPt */\012ELSE[ ]	/* Else */\012PUSHW[ ]	/* 2 values pushed */\01229 7 \012MIAP[0]	/* MoveIndirectAbsPt */\012EIF[ ]	/* EndIf */\012PUSHW[ ]	/* 3 values pushed */\01210 29 28 \012SRP1[ ]	/* SetRefPoint1 */\012SRP2[ ]	/* SetRefPoint2 */\012IP[ ]	/* InterpolatePts */\012PUSHW[ ]	/* 3 values pushed */\01211 29 28 \012SRP1[ ]	/* SetRefPoint1 */\012SRP2[ ]	/* SetRefPoint2 */\012IP[ ]	/* InterpolatePts */\012IUP[0]	/* InterpolateUntPts */\012IUP[1]	/* InterpolateUntPts */";
};
width = 450;
}
);
note = A.tabular;
},
{
glyphname = AE.tabular;
lastChange = "2021-12-03 01:38:01 +0000";
layers = (
{
layerId = "04A772B0-FA71-43EE-BB43-CAC7F0EBD631";
paths = (
{
closed = 1;
nodes = (
"639 0 LINE",
"639 135 LINE",
"545 135 LINE",
"542.333 155 OFFCURVE",
"540.667 165.333 OFFCURVE",
"538 180 CURVE",
"632 180 LINE",
"632 327 LINE",
"519 327 LINE",
"517.667 334.333 OFFCURVE",
"516.667 340.5 OFFCURVE",
"516 345.5 CURVE SMOOTH",
"514 360 LINE",
"639 360 LINE",
"639 496 LINE",
"276 496 LINE",
"206 0 LINE"
);
},
{
closed = 1;
nodes = (
"387 158 LINE",
"382 230 LINE",
"378 158 LINE"
);
},
{
closed = 1;
nodes = (
"381 357 LINE",
"382 376 LINE",
"383 357 LINE",
"395 149 LINE",
"369 149 LINE"
);
},
{
closed = 1;
nodes = (
"291 478 LINE",
"622 478 LINE",
"622 377 LINE",
"493 377 LINE",
"494.333 365.667 OFFCURVE",
"496 354.667 OFFCURVE",
"498 344 CURVE SMOOTH",
"500 333.333 OFFCURVE",
"501.667 322 OFFCURVE",
"503 310 CURVE",
"615 310 LINE",
"615 198 LINE",
"518 198 LINE",
"520 184 OFFCURVE",
"522 170.5 OFFCURVE",
"524 157.5 CURVE SMOOTH",
"530 117 LINE",
"622 117 LINE",
"622 18 LINE",
"394 18 LINE",
"387 82 LINE",
"377 82 LINE",
"376.333 72 OFFCURVE",
"375.5 61.167 OFFCURVE",
"374.5 49.5 CURVE SMOOTH",
"372 18 LINE",
"226 18 LINE"
);
},
{
closed = 1;
nodes = (
"364 27 LINE",
"368 91 LINE",
"395 91 LINE",
"401 27 LINE",
"613 27 LINE",
"613 108 LINE",
"522 108 LINE",
"508 207 LINE",
"606 207 LINE",
"606 301 LINE",
"495 301 LINE",
"483 386 LINE",
"613 386 LINE",
"613 469 LINE",
"299 469 LINE",
"236 27 LINE"
);
}
);
userData = {
assembly = "PUSHW[ ]	/* 4 values pushed */\01231 5 44 4 \012CALL[ ]	/* CallFunction */\012PUSHW[ ]	/* 1 value pushed */\01231 \012SRP0[ ]	/* SetRefPoint0 */\012PUSHW[ ]	/* 1 value pushed */\0125 \012MDRP[10000]	/* MoveDirectRelPt */\012PUSHW[ ]	/* 1 value pushed */\0125 \012MDAP[1]	/* MoveDirectAbsPt */\012PUSHW[ ]	/* 1 value pushed */\01210 \012SRP0[ ]	/* SetRefPoint0 */\012PUSHW[ ]	/* 1 value pushed */\0126 \012MDRP[10000]	/* MoveDirectRelPt */\012PUSHW[ ]	/* 1 value pushed */\0126 \012MDAP[1]	/* MoveDirectAbsPt */\012PUSHW[ ]	/* 1 value pushed */\01231 \012SRP0[ ]	/* SetRefPoint0 */\012PUSHW[ ]	/* 1 value pushed */\01213 \012MDRP[10000]	/* MoveDirectRelPt */\012PUSHW[ ]	/* 1 value pushed */\01213 \012MDAP[1]	/* MoveDirectAbsPt */\012PUSHW[ ]	/* 1 value pushed */\01210 \012SRP0[ ]	/* SetRefPoint0 */\012PUSHW[ ]	/* 1 value pushed */\01214 \012MDRP[10000]	/* MoveDirectRelPt */\012PUSHW[ ]	/* 1 value pushed */\01214 \012MDAP[1]	/* MoveDirectAbsPt */\012PUSHW[ ]	/* 1 value pushed */\01244 \012SRP0[ ]	/* SetRefPoint0 */\012PUSHW[ ]	/* 1 value pushed */\01218 \012MDRP[10000]	/* MoveDirectRelPt */\012PUSHW[ ]	/* 1 value pushed */\01218 \012MDAP[1]	/* MoveDirectAbsPt */\012PUSHW[ ]	/* 1 value pushed */\0125 \012SRP0[ ]	/* SetRefPoint0 */\012PUSHW[ ]	/* 2 values pushed */\01221 5 \012MIRP[10100]	/* MoveIndirectRelPt */\012PUSHW[ ]	/* 1 value pushed */\01219 \012MDRP[10000]	/* MoveDirectRelPt */\012PUSHW[ ]	/* 1 value pushed */\01219 \012MDAP[1]	/* MoveDirectAbsPt */\012PUSHW[ ]	/* 1 value pushed */\01244 \012SRP0[ ]	/* SetRefPoint0 */\012PUSHW[ ]	/* 1 value pushed */\01220 \012MDRP[10000]	/* MoveDirectRelPt */\012PUSHW[ ]	/* 1 value pushed */\01220 \012MDAP[1]	/* MoveDirectAbsPt */\012PUSHW[ ]	/* 1 value pushed */\01244 \012SRP0[ ]	/* SetRefPoint0 */\012PUSHW[ ]	/* 1 value pushed */\01222 \012MDRP[10000]	/* MoveDirectRelPt */\012PUSHW[ ]	/* 1 value pushed */\01222 \012MDAP[1]	/* MoveDirectAbsPt */\012PUSHW[ ]	/* 3 values pushed */\01223 44 31 \012SRP1[ ]	/* SetRefPoint1 */\012SRP2[ ]	/* SetRefPoint2 */\012IP[ ]	/* InterpolatePts */\012PUSHW[ ]	/* 1 value pushed */\01221 \012SRP0[ ]	/* SetRefPoint0 */\012PUSHW[ ]	/* 1 value pushed */\01224 \012MDRP[10000]	/* MoveDirectRelPt */\012PUSHW[ ]	/* 1 value pushed */\01224 \012MDAP[1]	/* MoveDirectAbsPt */\012PUSHW[ ]	/* 1 value pushed */\01231 \012SRP0[ ]	/* SetRefPoint0 */\012PUSHW[ ]	/* 1 value pushed */\01225 \012MDRP[10000]	/* MoveDirectRelPt */\012PUSHW[ ]	/* 1 value pushed */\01225 \012MDAP[1]	/* MoveDirectAbsPt */\012PUSHW[ ]	/* 1 value pushed */\01231 \012SRP0[ ]	/* SetRefPoint0 */\012PUSHW[ ]	/* 1 value pushed */\01237 \012MDRP[10000]	/* MoveDirectRelPt */\012PUSHW[ ]	/* 1 value pushed */\01237 \012MDAP[1]	/* MoveDirectAbsPt */\012PUSHW[ ]	/* 1 value pushed */\01244 \012SRP0[ ]	/* SetRefPoint0 */\012PUSHW[ ]	/* 1 value pushed */\01241 \012MDRP[10000]	/* MoveDirectRelPt */\012PUSHW[ ]	/* 1 value pushed */\01241 \012MDAP[1]	/* MoveDirectAbsPt */\012PUSHW[ ]	/* 1 value pushed */\01218 \012SRP0[ ]	/* SetRefPoint0 */\012PUSHW[ ]	/* 2 values pushed */\01254 5 \012MIRP[10100]	/* MoveIndirectRelPt */\012PUSHW[ ]	/* 1 value pushed */\01247 \012MDRP[10000]	/* MoveDirectRelPt */\012PUSHW[ ]	/* 1 value pushed */\01247 \012MDAP[1]	/* MoveDirectAbsPt */\012PUSHW[ ]	/* 1 value pushed */\01254 \012SRP0[ ]	/* SetRefPoint0 */\012PUSHW[ ]	/* 1 value pushed */\01259 \012MDRP[10000]	/* MoveDirectRelPt */\012PUSHW[ ]	/* 1 value pushed */\01259 \012MDAP[1]	/* MoveDirectAbsPt */\012SVTCA[0]	/* SetFreedomAndProjectionVectorToAxis */\012PUSHW[ ]	/* 1 value pushed */\0120 \012RCVT[ ]	/* ReadCVT */\012IF[ ]	/* If */\012PUSHW[ ]	/* 1 value pushed */\01246 \012MDAP[1]	/* MoveDirectAbsPt */\012ELSE[ ]	/* Else */\012PUSHW[ ]	/* 2 values pushed */\01246 11 \012MIAP[0]	/* MoveIndirectAbsPt */\012EIF[ ]	/* EndIf */\012PUSHW[ ]	/* 1 value pushed */\0120 \012RCVT[ ]	/* ReadCVT */\012IF[ ]	/* If */\012PUSHW[ ]	/* 1 value pushed */\01260 \012MDAP[1]	/* MoveDirectAbsPt */\012ELSE[ ]	/* Else */\012PUSHW[ ]	/* 2 values pushed */\01260 7 \012MIAP[0]	/* MoveIndirectAbsPt */\012EIF[ ]	/* EndIf */\012PUSHW[ ]	/* 4 values pushed */\01258 4 14 4 \012CALL[ ]	/* CallFunction */\012PUSHW[ ]	/* 4 values pushed */\01231 2 26 4 \012CALL[ ]	/* CallFunction */\012PUSHW[ ]	/* 4 values pushed */\0129 4 54 4 \012CALL[ ]	/* CallFunction */\012PUSHW[ ]	/* 4 values pushed */\01237 2 32 4 \012CALL[ ]	/* CallFunction */\012PUSHW[ ]	/* 1 value pushed */\01214 \012SRP0[ ]	/* SetRefPoint0 */\012PUSHW[ ]	/* 1 value pushed */\0122 \012MDRP[10000]	/* MoveDirectRelPt */\012PUSHW[ ]	/* 1 value pushed */\01246 \012SRP0[ ]	/* SetRefPoint0 */\012PUSHW[ ]	/* 2 values pushed */\0126 4 \012MIRP[10100]	/* MoveIndirectRelPt */\012PUSHW[ ]	/* 2 values pushed */\0125 2 \012MIRP[10100]	/* MoveIndirectRelPt */\012PUSHW[ ]	/* 1 value pushed */\0129 \012SRP0[ ]	/* SetRefPoint0 */\012PUSHW[ ]	/* 2 values pushed */\01210 1 \012MIRP[10100]	/* MoveIndirectRelPt */\012PUSHW[ ]	/* 1 value pushed */\01260 \012SRP0[ ]	/* SetRefPoint0 */\012PUSHW[ ]	/* 2 values pushed */\01212 4 \012MIRP[10100]	/* MoveIndirectRelPt */\012PUSHW[ ]	/* 1 value pushed */\0125 \012SRP0[ ]	/* SetRefPoint0 */\012PUSHW[ ]	/* 2 values pushed */\01248 4 \012MIRP[10100]	/* MoveIndirectRelPt */\012PUSHW[ ]	/* 3 values pushed */\01219 5 48 \012SRP1[ ]	/* SetRefPoint1 */\012SRP2[ ]	/* SetRefPoint2 */\012IP[ ]	/* InterpolatePts */\012PUSHW[ ]	/* 3 values pushed */\01223 54 9 \012SRP1[ ]	/* SetRefPoint1 */\012SRP2[ ]	/* SetRefPoint2 */\012IP[ ]	/* InterpolatePts */\012PUSHW[ ]	/* 1 value pushed */\01210 \012SRP0[ ]	/* SetRefPoint0 */\012PUSHW[ ]	/* 2 values pushed */\01253 4 \012MIRP[10100]	/* MoveIndirectRelPt */\012IUP[0]	/* InterpolateUntPts */\012IUP[1]	/* InterpolateUntPts */";
};
width = 858;
}
);
note = AE.tabular;
},
{
glyphname = B.tabular;
lastChange = "2021-12-03 01:38:01 +0000";
layers = (
{
layerId = "04A772B0-FA71-43EE-BB43-CAC7F0EBD631";
paths = (
{
closed = 1;
nodes = (
"244 0 LINE SMOOTH",
"325.333 0 OFFCURVE",
"374 29.333 OFFCURVE",
"374 120 CURVE SMOOTH",
"374 178 LINE SMOOTH",
"374 218 OFFCURVE",
"358.667 250.333 OFFCURVE",
"340 269 CURVE",
"356 287.667 OFFCURVE",
"364 316.667 OFFCURVE",
"364 346 CURVE SMOOTH",
"364 394 LINE SMOOTH",
"364 454 OFFCURVE",
"331 496 OFFCURVE",
"251 496 CURVE SMOOTH",
"62 496 LINE",
"62 0 LINE"
);
},
{
closed = 1;
nodes = (
"204 213 LINE",
"215 213 LINE SMOOTH",
"221 213 OFFCURVE",
"224.5 207 OFFCURVE",
"225.5 195 CURVE SMOOTH",
"226.5 183 OFFCURVE",
"227 168.333 OFFCURVE",
"227 151 CURVE SMOOTH",
"227 133 OFFCURVE",
"226.333 117.833 OFFCURVE",
"225 105.5 CURVE SMOOTH",
"223.667 93.167 OFFCURVE",
"220.333 87 OFFCURVE",
"215 87 CURVE SMOOTH",
"204 87 LINE"
);
},
{
closed = 1;
nodes = (
"215 96 LINE SMOOTH",
"216.333 96 OFFCURVE",
"217.333 101.333 OFFCURVE",
"218 112 CURVE SMOOTH",
"218.667 122.667 OFFCURVE",
"219 135.667 OFFCURVE",
"219 151 CURVE SMOOTH",
"218.5 188.5 LINE SMOOTH",
"218.167 198.833 OFFCURVE",
"217 204 OFFCURVE",
"215 204 CURVE SMOOTH",
"212 204 LINE",
"212 96 LINE"
);
},
{
closed = 1;
nodes = (
"79 478 LINE",
"251 478 LINE SMOOTH",
"319 478 OFFCURVE",
"347 443.333 OFFCURVE",
"347 394 CURVE SMOOTH",
"347 346 LINE SMOOTH",
"347 311.333 OFFCURVE",
"336.667 282 OFFCURVE",
"310 266 CURVE",
"339.333 254 OFFCURVE",
"357 226 OFFCURVE",
"357 178 CURVE SMOOTH",
"357 120 LINE SMOOTH",
"357 41.333 OFFCURVE",
"313.333 18 OFFCURVE",
"244 18 CURVE SMOOTH",
"79 18 LINE"
);
},
{
closed = 1;
nodes = (
"244 27 LINE SMOOTH",
"309.333 27 OFFCURVE",
"349 49.333 OFFCURVE",
"349 120 CURVE SMOOTH",
"349 178 LINE SMOOTH",
"349 236.667 OFFCURVE",
"317 263 OFFCURVE",
"277 263 CURVE",
"277 265 LINE",
"321 270.333 OFFCURVE",
"339 303.333 OFFCURVE",
"339 346 CURVE SMOOTH",
"339 394 LINE SMOOTH",
"339 438 OFFCURVE",
"313.667 469 OFFCURVE",
"251 469 CURVE SMOOTH",
"87 469 LINE",
"87 27 LINE"
);
},
{
closed = 1;
nodes = (
"204 407 LINE",
"215 407 LINE SMOOTH",
"221 407 OFFCURVE",
"224.5 401.167 OFFCURVE",
"225.5 389.5 CURVE SMOOTH",
"226.5 377.833 OFFCURVE",
"227 363.667 OFFCURVE",
"227 347 CURVE SMOOTH",
"227 330.333 OFFCURVE",
"225.833 316.167 OFFCURVE",
"223.5 304.5 CURVE SMOOTH",
"221.167 292.833 OFFCURVE",
"217.667 287 OFFCURVE",
"213 287 CURVE SMOOTH",
"204 287 LINE"
);
},
{
closed = 1;
nodes = (
"213 296 LINE SMOOTH",
"215 296 OFFCURVE",
"216.5 301 OFFCURVE",
"217.5 311 CURVE SMOOTH",
"218.5 321 OFFCURVE",
"219 333 OFFCURVE",
"219 347 CURVE SMOOTH",
"218.5 383 LINE SMOOTH",
"218.167 393 OFFCURVE",
"217 398 OFFCURVE",
"215 398 CURVE SMOOTH",
"212 398 LINE",
"212 296 LINE"
);
}
);
userData = {
assembly = "PUSHW[ ]	/* 4 values pushed */\01235 6 71 4 \012CALL[ ]	/* CallFunction */\012PUSHW[ ]	/* 4 values pushed */\01212 6 45 4 \012CALL[ ]	/* CallFunction */\012PUSHW[ ]	/* 1 value pushed */\01235 \012SRP0[ ]	/* SetRefPoint0 */\012PUSHW[ ]	/* 2 values pushed */\0120 6 \012MIRP[10100]	/* MoveIndirectRelPt */\012PUSHW[ ]	/* 3 values pushed */\0129 45 12 \012SRP1[ ]	/* SetRefPoint1 */\012SRP2[ ]	/* SetRefPoint2 */\012IP[ ]	/* InterpolatePts */\012PUSHW[ ]	/* 1 value pushed */\01235 \012SRP0[ ]	/* SetRefPoint0 */\012PUSHW[ ]	/* 1 value pushed */\01218 \012MDRP[10000]	/* MoveDirectRelPt */\012PUSHW[ ]	/* 1 value pushed */\01212 \012SRP0[ ]	/* SetRefPoint0 */\012PUSHW[ ]	/* 2 values pushed */\01222 6 \012MIRP[10100]	/* MoveIndirectRelPt */\012PUSHW[ ]	/* 1 value pushed */\01231 \012MDRP[10000]	/* MoveDirectRelPt */\012PUSHW[ ]	/* 1 value pushed */\01245 \012SRP0[ ]	/* SetRefPoint0 */\012PUSHW[ ]	/* 1 value pushed */\01236 \012MDRP[10000]	/* MoveDirectRelPt */\012PUSHW[ ]	/* 1 value pushed */\01245 \012SRP0[ ]	/* SetRefPoint0 */\012PUSHW[ ]	/* 1 value pushed */\01240 \012MDRP[10000]	/* MoveDirectRelPt */\012PUSHW[ ]	/* 1 value pushed */\01240 \012MDAP[1]	/* MoveDirectAbsPt */\012PUSHW[ ]	/* 1 value pushed */\01212 \012SRP0[ ]	/* SetRefPoint0 */\012PUSHW[ ]	/* 1 value pushed */\01282 \012MDRP[11100]	/* MoveDirectRelPt */\012PUSHW[ ]	/* 3 values pushed */\01244 71 82 \012SRP1[ ]	/* SetRefPoint1 */\012SRP2[ ]	/* SetRefPoint2 */\012IP[ ]	/* InterpolatePts */\012PUSHW[ ]	/* 1 value pushed */\01245 \012SRP0[ ]	/* SetRefPoint0 */\012PUSHW[ ]	/* 1 value pushed */\01249 \012MDRP[10000]	/* MoveDirectRelPt */\012PUSHW[ ]	/* 1 value pushed */\01249 \012MDAP[1]	/* MoveDirectAbsPt */\012PUSHW[ ]	/* 3 values pushed */\01262 45 12 \012SRP1[ ]	/* SetRefPoint1 */\012SRP2[ ]	/* SetRefPoint2 */\012IP[ ]	/* InterpolatePts */\012PUSHW[ ]	/* 1 value pushed */\01212 \012SRP0[ ]	/* SetRefPoint0 */\012PUSHW[ ]	/* 1 value pushed */\01265 \012MDRP[10000]	/* MoveDirectRelPt */\012PUSHW[ ]	/* 1 value pushed */\01265 \012MDAP[1]	/* MoveDirectAbsPt */\012PUSHW[ ]	/* 1 value pushed */\01212 \012SRP0[ ]	/* SetRefPoint0 */\012PUSHW[ ]	/* 1 value pushed */\01289 \012MDRP[11100]	/* MoveDirectRelPt */\012SVTCA[0]	/* SetFreedomAndProjectionVectorToAxis */\012PUSHW[ ]	/* 1 value pushed */\0120 \012RCVT[ ]	/* ReadCVT */\012IF[ ]	/* If */\012PUSHW[ ]	/* 1 value pushed */\01271 \012MDAP[1]	/* MoveDirectAbsPt */\012ELSE[ ]	/* Else */\012PUSHW[ ]	/* 2 values pushed */\01271 11 \012MIAP[0]	/* MoveIndirectAbsPt */\012EIF[ ]	/* EndIf */\012PUSHW[ ]	/* 1 value pushed */\0120 \012RCVT[ ]	/* ReadCVT */\012IF[ ]	/* If */\012PUSHW[ ]	/* 1 value pushed */\01286 \012MDAP[1]	/* MoveDirectAbsPt */\012ELSE[ ]	/* Else */\012PUSHW[ ]	/* 2 values pushed */\01286 7 \012MIAP[0]	/* MoveIndirectAbsPt */\012EIF[ ]	/* EndIf */\012PUSHW[ ]	/* 3 values pushed */\0129 86 71 \012SRP1[ ]	/* SetRefPoint1 */\012SRP2[ ]	/* SetRefPoint2 */\012IP[ ]	/* InterpolatePts */\012PUSHW[ ]	/* 3 values pushed */\01244 86 71 \012SRP1[ ]	/* SetRefPoint1 */\012SRP2[ ]	/* SetRefPoint2 */\012IP[ ]	/* InterpolatePts */\012PUSHW[ ]	/* 3 values pushed */\01253 86 71 \012SRP1[ ]	/* SetRefPoint1 */\012SRP2[ ]	/* SetRefPoint2 */\012IP[ ]	/* InterpolatePts */\012PUSHW[ ]	/* 3 values pushed */\01262 86 71 \012SRP1[ ]	/* SetRefPoint1 */\012SRP2[ ]	/* SetRefPoint2 */\012IP[ ]	/* InterpolatePts */\012IUP[0]	/* InterpolateUntPts */\012IUP[1]	/* InterpolateUntPts */";
};
width = 445;
}
);
note = B.tabular;
},
{
glyphname = C.tabular;
lastChange = "2021-12-03 01:38:01 +0000";
layers = (
{
layerId = "04A772B0-FA71-43EE-BB43-CAC7F0EBD631";
paths = (
{
closed = 1;
nodes = (
"322.072 -9 OFFCURVE",
"366 25.177 OFFCURVE",
"366 158 CURVE SMOOTH",
"366 240 LINE",
"232 240 LINE",
"232 246 LINE",
"366 246 LINE",
"366 377 LINE SMOOTH",
"366 471.667 OFFCURVE",
"311 505 OFFCURVE",
"219 505 CURVE SMOOTH",
"127 505 OFFCURVE",
"66 470.333 OFFCURVE",
"66 377 CURVE SMOOTH",
"66 157 LINE SMOOTH",
"66 25.033 OFFCURVE",
"115.969 -9 OFFCURVE",
"219 -9 CURVE SMOOTH"
);
},
{
closed = 1;
nodes = (
"126.464 9 OFFCURVE",
"83 40.133 OFFCURVE",
"83 157 CURVE SMOOTH",
"83 377 LINE SMOOTH",
"83 458.333 OFFCURVE",
"136.333 487 OFFCURVE",
"219 487 CURVE SMOOTH",
"300.333 487 OFFCURVE",
"350 458.333 OFFCURVE",
"350 377 CURVE SMOOTH",
"350 264 LINE",
"221 264 LINE",
"221 382 LINE SMOOTH",
"221 392 OFFCURVE",
"220.333 397 OFFCURVE",
"219 397 CURVE SMOOTH",
"217 397 OFFCURVE",
"216 392 OFFCURVE",
"216 382 CURVE SMOOTH",
"216 109 LINE SMOOTH",
"216 100.333 OFFCURVE",
"217 96 OFFCURVE",
"219 96 CURVE SMOOTH",
"220.333 96 OFFCURVE",
"221 100.333 OFFCURVE",
"221 109 CURVE SMOOTH",
"221 222 LINE",
"350 222 LINE",
"350 158 LINE SMOOTH",
"350 40.29 OFFCURVE",
"310.498 9 OFFCURVE",
"219 9 CURVE SMOOTH"
);
},
{
closed = 1;
nodes = (
"303.545 18 OFFCURVE",
"341 46.477 OFFCURVE",
"341 158 CURVE SMOOTH",
"341 213 LINE",
"230 213 LINE",
"230 109 LINE SMOOTH",
"230 100.333 OFFCURVE",
"229 94.5 OFFCURVE",
"227 91.5 CURVE SMOOTH",
"225 88.5 OFFCURVE",
"222.333 87 OFFCURVE",
"219 87 CURVE SMOOTH",
"215 87 OFFCURVE",
"212 88.5 OFFCURVE",
"210 91.5 CURVE SMOOTH",
"208 94.5 OFFCURVE",
"207 100.333 OFFCURVE",
"207 109 CURVE SMOOTH",
"207 382 LINE SMOOTH",
"207 391.333 OFFCURVE",
"208 397.667 OFFCURVE",
"210 401 CURVE SMOOTH",
"212 404.333 OFFCURVE",
"215 406 OFFCURVE",
"219 406 CURVE SMOOTH",
"222.333 406 OFFCURVE",
"225 404.333 OFFCURVE",
"227 401 CURVE SMOOTH",
"229 397.667 OFFCURVE",
"230 391.333 OFFCURVE",
"230 382 CURVE SMOOTH",
"230 273 LINE",
"341 273 LINE",
"341 377 LINE SMOOTH",
"341 451.667 OFFCURVE",
"295 478 OFFCURVE",
"219 478 CURVE SMOOTH",
"141.667 478 OFFCURVE",
"91 451.667 OFFCURVE",
"91 377 CURVE SMOOTH",
"91 157 LINE SMOOTH",
"91 46.559 OFFCURVE",
"132.677 18 OFFCURVE",
"219 18 CURVE SMOOTH"
);
}
);
userData = {
assembly = "PUSHW[ ]	/* 4 values pushed */\01228 6 81 4 \012CALL[ ]	/* CallFunction */\012PUSHW[ ]	/* 4 values pushed */\0121 6 41 4 \012CALL[ ]	/* CallFunction */\012PUSHW[ ]	/* 1 value pushed */\01228 \012SRP0[ ]	/* SetRefPoint0 */\012PUSHW[ ]	/* 2 values pushed */\01211 6 \012MIRP[10100]	/* MoveIndirectRelPt */\012PUSHW[ ]	/* 1 value pushed */\0121 \012SRP0[ ]	/* SetRefPoint0 */\012PUSHW[ ]	/* 1 value pushed */\01218 \012MDRP[10000]	/* MoveDirectRelPt */\012PUSHW[ ]	/* 1 value pushed */\0121 \012SRP0[ ]	/* SetRefPoint0 */\012PUSHW[ ]	/* 2 values pushed */\01220 6 \012MIRP[10100]	/* MoveIndirectRelPt */\012PUSHW[ ]	/* 1 value pushed */\01234 \012MDRP[10000]	/* MoveDirectRelPt */\012PUSHW[ ]	/* 1 value pushed */\01241 \012SRP0[ ]	/* SetRefPoint0 */\012PUSHW[ ]	/* 1 value pushed */\01236 \012MDRP[10000]	/* MoveDirectRelPt */\012PUSHW[ ]	/* 1 value pushed */\01236 \012MDAP[1]	/* MoveDirectAbsPt */\012PUSHW[ ]	/* 1 value pushed */\01211 \012SRP0[ ]	/* SetRefPoint0 */\012PUSHW[ ]	/* 2 values pushed */\01237 6 \012MIRP[10100]	/* MoveIndirectRelPt */\012PUSHW[ ]	/* 1 value pushed */\01241 \012SRP0[ ]	/* SetRefPoint0 */\012PUSHW[ ]	/* 1 value pushed */\01246 \012MDRP[10000]	/* MoveDirectRelPt */\012PUSHW[ ]	/* 1 value pushed */\01246 \012MDAP[1]	/* MoveDirectAbsPt */\012PUSHW[ ]	/* 1 value pushed */\01237 \012SRP0[ ]	/* SetRefPoint0 */\012PUSHW[ ]	/* 1 value pushed */\01247 \012MDRP[10000]	/* MoveDirectRelPt */\012PUSHW[ ]	/* 1 value pushed */\01220 \012SRP0[ ]	/* SetRefPoint0 */\012PUSHW[ ]	/* 1 value pushed */\01268 \012MDRP[10000]	/* MoveDirectRelPt */\012PUSHW[ ]	/* 1 value pushed */\01268 \012MDAP[1]	/* MoveDirectAbsPt */\012PUSHW[ ]	/* 3 values pushed */\01269 41 1 \012SRP1[ ]	/* SetRefPoint1 */\012SRP2[ ]	/* SetRefPoint2 */\012IP[ ]	/* InterpolatePts */\012PUSHW[ ]	/* 1 value pushed */\01220 \012SRP0[ ]	/* SetRefPoint0 */\012PUSHW[ ]	/* 2 values pushed */\01289 6 \012MIRP[10100]	/* MoveIndirectRelPt */\012PUSHW[ ]	/* 1 value pushed */\01270 \012MDRP[10000]	/* MoveDirectRelPt */\012PUSHW[ ]	/* 1 value pushed */\0121 \012SRP0[ ]	/* SetRefPoint0 */\012PUSHW[ ]	/* 1 value pushed */\01291 \012MDRP[11100]	/* MoveDirectRelPt */\012SVTCA[0]	/* SetFreedomAndProjectionVectorToAxis */\012PUSHW[ ]	/* 1 value pushed */\0120 \012RCVT[ ]	/* ReadCVT */\012IF[ ]	/* If */\012PUSHW[ ]	/* 1 value pushed */\01276 \012MDAP[1]	/* MoveDirectAbsPt */\012ELSE[ ]	/* Else */\012PUSHW[ ]	/* 2 values pushed */\01276 7 \012MIAP[0]	/* MoveIndirectAbsPt */\012EIF[ ]	/* EndIf */\012PUSHW[ ]	/* 4 values pushed */\01269 4 6 4 \012CALL[ ]	/* CallFunction */\012PUSHW[ ]	/* 4 values pushed */\01247 2 36 4 \012CALL[ ]	/* CallFunction */\012PUSHW[ ]	/* 4 values pushed */\01215 4 20 4 \012CALL[ ]	/* CallFunction */\012PUSHW[ ]	/* 1 value pushed */\01276 \012SRP0[ ]	/* SetRefPoint0 */\012PUSHW[ ]	/* 2 values pushed */\0120 4 \012MIRP[10100]	/* MoveIndirectRelPt */\012PUSHW[ ]	/* 1 value pushed */\0126 \012SRP0[ ]	/* SetRefPoint0 */\012PUSHW[ ]	/* 2 values pushed */\01235 4 \012MIRP[10100]	/* MoveIndirectRelPt */\012PUSHW[ ]	/* 1 value pushed */\01215 \012SRP0[ ]	/* SetRefPoint0 */\012PUSHW[ ]	/* 1 value pushed */\01268 \012MDRP[11100]	/* MoveDirectRelPt */\012PUSHW[ ]	/* 1 value pushed */\01220 \012SRP0[ ]	/* SetRefPoint0 */\012PUSHW[ ]	/* 1 value pushed */\01285 \012MDRP[11100]	/* MoveDirectRelPt */\012PUSHW[ ]	/* 1 value pushed */\01269 \012SRP0[ ]	/* SetRefPoint0 */\012PUSHW[ ]	/* 1 value pushed */\01289 \012MDRP[10000]	/* MoveDirectRelPt */\012PUSHW[ ]	/* 1 value pushed */\01289 \012MDAP[1]	/* MoveDirectAbsPt */\012IUP[0]	/* InterpolateUntPts */\012IUP[1]	/* InterpolateUntPts */";
};
width = 443;
}
);
note = C.tabular;
},
{
glyphname = D.tabular;
lastChange = "2021-12-03 01:38:01 +0000";
layers = (
{
layerId = "04A772B0-FA71-43EE-BB43-CAC7F0EBD631";
paths = (
{
closed = 1;
nodes = (
"237 0 LINE SMOOTH",
"318.333 0 OFFCURVE",
"366 29.333 OFFCURVE",
"366 120 CURVE SMOOTH",
"366 394 LINE SMOOTH",
"366 452.667 OFFCURVE",
"332.667 496 OFFCURVE",
"254 496 CURVE SMOOTH",
"66 496 LINE",
"66 0 LINE"
);
},
{
closed = 1;
nodes = (
"83 478 LINE",
"254 478 LINE SMOOTH",
"322 478 OFFCURVE",
"350 443.333 OFFCURVE",
"350 394 CURVE SMOOTH",
"350 120 LINE SMOOTH",
"350 41.333 OFFCURVE",
"306.333 18 OFFCURVE",
"237 18 CURVE SMOOTH",
"83 18 LINE"
);
},
{
closed = 1;
nodes = (
"237 27 LINE SMOOTH",
"302.333 27 OFFCURVE",
"341 49.333 OFFCURVE",
"341 120 CURVE SMOOTH",
"341 394 LINE SMOOTH",
"341 438 OFFCURVE",
"316.667 469 OFFCURVE",
"254 469 CURVE SMOOTH",
"91 469 LINE",
"91 27 LINE"
);
},
{
closed = 1;
nodes = (
"207 404 LINE",
"218 404 LINE SMOOTH",
"221.333 404 OFFCURVE",
"224.167 402.5 OFFCURVE",
"226.5 399.5 CURVE SMOOTH",
"228.833 396.5 OFFCURVE",
"230 390.333 OFFCURVE",
"230 381 CURVE SMOOTH",
"230 109 LINE SMOOTH",
"230 100.333 OFFCURVE",
"228.833 94.5 OFFCURVE",
"226.5 91.5 CURVE SMOOTH",
"224.167 88.5 OFFCURVE",
"221.333 87 OFFCURVE",
"218 87 CURVE SMOOTH",
"207 87 LINE"
);
},
{
closed = 1;
nodes = (
"218 95 LINE SMOOTH",
"220 95 OFFCURVE",
"221 99.667 OFFCURVE",
"221 109 CURVE SMOOTH",
"221 381 LINE SMOOTH",
"221 390.333 OFFCURVE",
"220 395 OFFCURVE",
"218 395 CURVE SMOOTH",
"216 395 LINE",
"216 95 LINE"
);
}
);
userData = {
assembly = "PUSHW[ ]	/* 4 values pushed */\01214 6 38 4 \012CALL[ ]	/* CallFunction */\012PUSHW[ ]	/* 4 values pushed */\0125 6 23 4 \012CALL[ ]	/* CallFunction */\012PUSHW[ ]	/* 1 value pushed */\01214 \012SRP0[ ]	/* SetRefPoint0 */\012PUSHW[ ]	/* 2 values pushed */\0120 6 \012MIRP[10100]	/* MoveIndirectRelPt */\012PUSHW[ ]	/* 1 value pushed */\0125 \012SRP0[ ]	/* SetRefPoint0 */\012PUSHW[ ]	/* 2 values pushed */\01210 6 \012MIRP[10100]	/* MoveIndirectRelPt */\012PUSHW[ ]	/* 1 value pushed */\01223 \012SRP0[ ]	/* SetRefPoint0 */\012PUSHW[ ]	/* 1 value pushed */\01220 \012MDRP[10000]	/* MoveDirectRelPt */\012PUSHW[ ]	/* 1 value pushed */\01220 \012MDAP[1]	/* MoveDirectAbsPt */\012PUSHW[ ]	/* 1 value pushed */\0120 \012SRP0[ ]	/* SetRefPoint0 */\012PUSHW[ ]	/* 2 values pushed */\01227 6 \012MIRP[10100]	/* MoveIndirectRelPt */\012PUSHW[ ]	/* 1 value pushed */\01210 \012SRP0[ ]	/* SetRefPoint0 */\012PUSHW[ ]	/* 2 values pushed */\01242 6 \012MIRP[10100]	/* MoveIndirectRelPt */\012PUSHW[ ]	/* 1 value pushed */\0125 \012SRP0[ ]	/* SetRefPoint0 */\012PUSHW[ ]	/* 1 value pushed */\01249 \012MDRP[11100]	/* MoveDirectRelPt */\012SVTCA[0]	/* SetFreedomAndProjectionVectorToAxis */\012PUSHW[ ]	/* 1 value pushed */\0120 \012RCVT[ ]	/* ReadCVT */\012IF[ ]	/* If */\012PUSHW[ ]	/* 1 value pushed */\01238 \012MDAP[1]	/* MoveDirectAbsPt */\012ELSE[ ]	/* Else */\012PUSHW[ ]	/* 2 values pushed */\01238 11 \012MIAP[0]	/* MoveIndirectAbsPt */\012EIF[ ]	/* EndIf */\012PUSHW[ ]	/* 1 value pushed */\0120 \012RCVT[ ]	/* ReadCVT */\012IF[ ]	/* If */\012PUSHW[ ]	/* 1 value pushed */\01246 \012MDAP[1]	/* MoveDirectAbsPt */\012ELSE[ ]	/* Else */\012PUSHW[ ]	/* 2 values pushed */\01246 7 \012MIAP[0]	/* MoveIndirectAbsPt */\012EIF[ ]	/* EndIf */\012PUSHW[ ]	/* 3 values pushed */\01223 46 38 \012SRP1[ ]	/* SetRefPoint1 */\012SRP2[ ]	/* SetRefPoint2 */\012IP[ ]	/* InterpolatePts */\012IUP[0]	/* InterpolateUntPts */\012IUP[1]	/* InterpolateUntPts */";
};
width = 443;
}
);
note = D.tabular;
},
{
glyphname = E.tabular;
lastChange = "2021-12-03 01:42:35 +0000";
layers = (
{
anchors = (
{
name = bottom;
position = "{203, 0}";
},
{
name = ogonek;
position = "{328, 0}";
},
{
name = top;
position = "{204, 496}";
},
{
name = topleft;
position = "{20, 591}";
}
);
layerId = "04A772B0-FA71-43EE-BB43-CAC7F0EBD631";
paths = (
{
closed = 1;
nodes = (
"328 0 LINE",
"328 135 LINE",
"247 135 LINE",
"247 180 LINE",
"322 180 LINE",
"322 327 LINE",
"247 327 LINE",
"247 360 LINE",
"328 360 LINE",
"328 496 LINE",
"88 496 LINE",
"88 0 LINE"
);
},
{
closed = 1;
nodes = (
"104 478 LINE",
"312 478 LINE",
"312 377 LINE",
"231 377 LINE",
"231 310 LINE",
"306 310 LINE",
"306 198 LINE",
"231 198 LINE",
"231 117 LINE",
"312 117 LINE",
"312 18 LINE",
"104 18 LINE"
);
},
{
closed = 1;
nodes = (
"304 27 LINE",
"304 108 LINE",
"223 108 LINE",
"223 207 LINE",
"298 207 LINE",
"298 301 LINE",
"223 301 LINE",
"223 386 LINE",
"304 386 LINE",
"304 469 LINE",
"112 469 LINE",
"112 27 LINE"
);
}
);
userData = {
assembly = "PUSHW[ ]	/* 4 values pushed */\0123 6 24 4 \012CALL[ ]	/* CallFunction */\012PUSHW[ ]	/* 4 values pushed */\01230 6 16 4 \012CALL[ ]	/* CallFunction */\012PUSHW[ ]	/* 1 value pushed */\0123 \012SRP0[ ]	/* SetRefPoint0 */\012PUSHW[ ]	/* 2 values pushed */\0120 6 \012MIRP[10100]	/* MoveIndirectRelPt */\012PUSHW[ ]	/* 2 values pushed */\0125 5 \012MIRP[10100]	/* MoveIndirectRelPt */\012PUSHW[ ]	/* 1 value pushed */\0122 \012MDRP[10000]	/* MoveDirectRelPt */\012PUSHW[ ]	/* 1 value pushed */\0122 \012MDAP[1]	/* MoveDirectAbsPt */\012PUSHW[ ]	/* 1 value pushed */\0123 \012SRP0[ ]	/* SetRefPoint0 */\012PUSHW[ ]	/* 1 value pushed */\0127 \012MDRP[10000]	/* MoveDirectRelPt */\012PUSHW[ ]	/* 1 value pushed */\0125 \012SRP0[ ]	/* SetRefPoint0 */\012PUSHW[ ]	/* 1 value pushed */\0129 \012MDRP[10000]	/* MoveDirectRelPt */\012PUSHW[ ]	/* 1 value pushed */\0129 \012MDAP[1]	/* MoveDirectAbsPt */\012PUSHW[ ]	/* 1 value pushed */\01216 \012SRP0[ ]	/* SetRefPoint0 */\012PUSHW[ ]	/* 1 value pushed */\01219 \012MDRP[10000]	/* MoveDirectRelPt */\012PUSHW[ ]	/* 1 value pushed */\01230 \012SRP0[ ]	/* SetRefPoint0 */\012PUSHW[ ]	/* 1 value pushed */\01225 \012MDRP[10000]	/* MoveDirectRelPt */\012PUSHW[ ]	/* 1 value pushed */\01225 \012MDAP[1]	/* MoveDirectAbsPt */\012PUSHW[ ]	/* 1 value pushed */\0120 \012SRP0[ ]	/* SetRefPoint0 */\012PUSHW[ ]	/* 2 values pushed */\01227 6 \012MIRP[10100]	/* MoveIndirectRelPt */\012PUSHW[ ]	/* 1 value pushed */\01231 \012MDRP[10000]	/* MoveDirectRelPt */\012PUSHW[ ]	/* 1 value pushed */\01230 \012SRP0[ ]	/* SetRefPoint0 */\012PUSHW[ ]	/* 1 value pushed */\01233 \012MDRP[10000]	/* MoveDirectRelPt */\012PUSHW[ ]	/* 1 value pushed */\01233 \012MDAP[1]	/* MoveDirectAbsPt */\012PUSHW[ ]	/* 1 value pushed */\01230 \012SRP0[ ]	/* SetRefPoint0 */\012PUSHW[ ]	/* 1 value pushed */\01237 \012MDRP[11100]	/* MoveDirectRelPt */\012SVTCA[0]	/* SetFreedomAndProjectionVectorToAxis */\012PUSHW[ ]	/* 1 value pushed */\0120 \012RCVT[ ]	/* ReadCVT */\012IF[ ]	/* If */\012PUSHW[ ]	/* 1 value pushed */\01224 \012MDAP[1]	/* MoveDirectAbsPt */\012ELSE[ ]	/* Else */\012PUSHW[ ]	/* 2 values pushed */\01224 11 \012MIAP[0]	/* MoveIndirectAbsPt */\012EIF[ ]	/* EndIf */\012PUSHW[ ]	/* 1 value pushed */\0120 \012RCVT[ ]	/* ReadCVT */\012IF[ ]	/* If */\012PUSHW[ ]	/* 1 value pushed */\01234 \012MDAP[1]	/* MoveDirectAbsPt */\012ELSE[ ]	/* Else */\012PUSHW[ ]	/* 2 values pushed */\01234 7 \012MIAP[0]	/* MoveIndirectAbsPt */\012EIF[ ]	/* EndIf */\012PUSHW[ ]	/* 4 values pushed */\01233 4 10 4 \012CALL[ ]	/* CallFunction */\012PUSHW[ ]	/* 4 values pushed */\01217 2 14 4 \012CALL[ ]	/* CallFunction */\012PUSHW[ ]	/* 4 values pushed */\0125 4 30 4 \012CALL[ ]	/* CallFunction */\012PUSHW[ ]	/* 4 values pushed */\01221 2 18 4 \012CALL[ ]	/* CallFunction */\012PUSHW[ ]	/* 1 value pushed */\01224 \012SRP0[ ]	/* SetRefPoint0 */\012PUSHW[ ]	/* 2 values pushed */\0122 4 \012MIRP[10100]	/* MoveIndirectRelPt */\012PUSHW[ ]	/* 2 values pushed */\0121 2 \012MIRP[10100]	/* MoveIndirectRelPt */\012PUSHW[ ]	/* 1 value pushed */\0125 \012SRP0[ ]	/* SetRefPoint0 */\012PUSHW[ ]	/* 2 values pushed */\0126 1 \012MIRP[10100]	/* MoveIndirectRelPt */\012PUSHW[ ]	/* 1 value pushed */\01234 \012SRP0[ ]	/* SetRefPoint0 */\012PUSHW[ ]	/* 2 values pushed */\0128 4 \012MIRP[10100]	/* MoveIndirectRelPt */\012PUSHW[ ]	/* 1 value pushed */\01210 \012SRP0[ ]	/* SetRefPoint0 */\012PUSHW[ ]	/* 2 values pushed */\0129 2 \012MIRP[10100]	/* MoveIndirectRelPt */\012PUSHW[ ]	/* 1 value pushed */\0121 \012SRP0[ ]	/* SetRefPoint0 */\012PUSHW[ ]	/* 2 values pushed */\01226 4 \012MIRP[10100]	/* MoveIndirectRelPt */\012PUSHW[ ]	/* 1 value pushed */\0126 \012SRP0[ ]	/* SetRefPoint0 */\012PUSHW[ ]	/* 2 values pushed */\01229 4 \012MIRP[10100]	/* MoveIndirectRelPt */\012IUP[0]	/* InterpolateUntPts */\012IUP[1]	/* InterpolateUntPts */";
};
width = 428;
}
);
note = E.tabular;
},
{
glyphname = F.tabular;
lastChange = "2021-12-03 01:38:01 +0000";
layers = (
{
layerId = "04A772B0-FA71-43EE-BB43-CAC7F0EBD631";
paths = (
{
closed = 1;
nodes = (
"247 0 LINE",
"247 180 LINE",
"322 180 LINE",
"322 327 LINE",
"247 327 LINE",
"247 360 LINE",
"328 360 LINE",
"328 496 LINE",
"88 496 LINE",
"88 0 LINE"
);
},
{
closed = 1;
nodes = (
"104 478 LINE",
"312 478 LINE",
"312 377 LINE",
"231 377 LINE",
"231 310 LINE",
"306 310 LINE",
"306 198 LINE",
"231 198 LINE",
"231 18 LINE",
"104 18 LINE"
);
},
{
closed = 1;
nodes = (
"223 27 LINE",
"223 207 LINE",
"298 207 LINE",
"298 301 LINE",
"223 301 LINE",
"223 386 LINE",
"304 386 LINE",
"304 469 LINE",
"112 469 LINE",
"112 27 LINE"
);
}
);
userData = {
assembly = "PUSHW[ ]	/* 4 values pushed */\0123 6 20 4 \012CALL[ ]	/* CallFunction */\012PUSHW[ ]	/* 4 values pushed */\01226 6 12 4 \012CALL[ ]	/* CallFunction */\012PUSHW[ ]	/* 1 value pushed */\0123 \012SRP0[ ]	/* SetRefPoint0 */\012PUSHW[ ]	/* 2 values pushed */\0120 6 \012MIRP[10100]	/* MoveIndirectRelPt */\012PUSHW[ ]	/* 2 values pushed */\0125 5 \012MIRP[10100]	/* MoveIndirectRelPt */\012PUSHW[ ]	/* 1 value pushed */\0122 \012MDRP[10000]	/* MoveDirectRelPt */\012PUSHW[ ]	/* 1 value pushed */\0122 \012MDAP[1]	/* MoveDirectAbsPt */\012PUSHW[ ]	/* 1 value pushed */\0123 \012SRP0[ ]	/* SetRefPoint0 */\012PUSHW[ ]	/* 1 value pushed */\0127 \012MDRP[10000]	/* MoveDirectRelPt */\012PUSHW[ ]	/* 1 value pushed */\01212 \012SRP0[ ]	/* SetRefPoint0 */\012PUSHW[ ]	/* 1 value pushed */\01215 \012MDRP[10000]	/* MoveDirectRelPt */\012PUSHW[ ]	/* 1 value pushed */\01226 \012SRP0[ ]	/* SetRefPoint0 */\012PUSHW[ ]	/* 1 value pushed */\01221 \012MDRP[10000]	/* MoveDirectRelPt */\012PUSHW[ ]	/* 1 value pushed */\01221 \012MDAP[1]	/* MoveDirectAbsPt */\012PUSHW[ ]	/* 1 value pushed */\0120 \012SRP0[ ]	/* SetRefPoint0 */\012PUSHW[ ]	/* 2 values pushed */\01223 6 \012MIRP[10100]	/* MoveIndirectRelPt */\012PUSHW[ ]	/* 1 value pushed */\01227 \012MDRP[10000]	/* MoveDirectRelPt */\012PUSHW[ ]	/* 1 value pushed */\01226 \012SRP0[ ]	/* SetRefPoint0 */\012PUSHW[ ]	/* 1 value pushed */\01231 \012MDRP[11100]	/* MoveDirectRelPt */\012SVTCA[0]	/* SetFreedomAndProjectionVectorToAxis */\012PUSHW[ ]	/* 1 value pushed */\0120 \012RCVT[ ]	/* ReadCVT */\012IF[ ]	/* If */\012PUSHW[ ]	/* 1 value pushed */\01220 \012MDAP[1]	/* MoveDirectAbsPt */\012ELSE[ ]	/* Else */\012PUSHW[ ]	/* 2 values pushed */\01220 11 \012MIAP[0]	/* MoveIndirectAbsPt */\012EIF[ ]	/* EndIf */\012PUSHW[ ]	/* 1 value pushed */\0120 \012RCVT[ ]	/* ReadCVT */\012IF[ ]	/* If */\012PUSHW[ ]	/* 1 value pushed */\01228 \012MDAP[1]	/* MoveDirectAbsPt */\012ELSE[ ]	/* Else */\012PUSHW[ ]	/* 2 values pushed */\01228 7 \012MIAP[0]	/* MoveIndirectAbsPt */\012EIF[ ]	/* EndIf */\012PUSHW[ ]	/* 4 values pushed */\0125 4 26 4 \012CALL[ ]	/* CallFunction */\012PUSHW[ ]	/* 4 values pushed */\01217 2 14 4 \012CALL[ ]	/* CallFunction */\012PUSHW[ ]	/* 1 value pushed */\01220 \012SRP0[ ]	/* SetRefPoint0 */\012PUSHW[ ]	/* 2 values pushed */\0122 4 \012MIRP[10100]	/* MoveIndirectRelPt */\012PUSHW[ ]	/* 2 values pushed */\0121 2 \012MIRP[10100]	/* MoveIndirectRelPt */\012PUSHW[ ]	/* 1 value pushed */\0125 \012SRP0[ ]	/* SetRefPoint0 */\012PUSHW[ ]	/* 2 values pushed */\0126 1 \012MIRP[10100]	/* MoveIndirectRelPt */\012PUSHW[ ]	/* 1 value pushed */\01228 \012SRP0[ ]	/* SetRefPoint0 */\012PUSHW[ ]	/* 2 values pushed */\01212 4 \012MIRP[10100]	/* MoveIndirectRelPt */\012PUSHW[ ]	/* 1 value pushed */\0121 \012SRP0[ ]	/* SetRefPoint0 */\012PUSHW[ ]	/* 2 values pushed */\01222 4 \012MIRP[10100]	/* MoveIndirectRelPt */\012PUSHW[ ]	/* 1 value pushed */\0126 \012SRP0[ ]	/* SetRefPoint0 */\012PUSHW[ ]	/* 2 values pushed */\01225 4 \012MIRP[10100]	/* MoveIndirectRelPt */\012IUP[0]	/* InterpolateUntPts */\012IUP[1]	/* InterpolateUntPts */";
};
width = 428;
}
);
note = F.tabular;
},
{
glyphname = G.tabular;
lastChange = "2021-12-03 01:38:01 +0000";
layers = (
{
layerId = "04A772B0-FA71-43EE-BB43-CAC7F0EBD631";
paths = (
{
closed = 1;
nodes = (
"205 -7 OFFCURVE",
"220.333 0.333 OFFCURVE",
"235 11 CURVE",
"237 0 LINE",
"366 0 LINE",
"366 375 LINE SMOOTH",
"366 468.333 OFFCURVE",
"304.333 503 OFFCURVE",
"215 503 CURVE SMOOTH",
"125.667 503 OFFCURVE",
"66 468.333 OFFCURVE",
"66 375 CURVE SMOOTH",
"66 140 LINE SMOOTH",
"66 27.918 OFFCURVE",
"111.341 -7 OFFCURVE",
"181 -7 CURVE SMOOTH"
);
},
{
closed = 1;
nodes = (
"222.667 96 OFFCURVE",
"225 100.333 OFFCURVE",
"225 109 CURVE SMOOTH",
"225 184 LINE",
"211 184 LINE",
"211 109 LINE SMOOTH",
"211 100.333 OFFCURVE",
"213.333 96 OFFCURVE",
"218 96 CURVE SMOOTH"
);
},
{
closed = 1;
nodes = (
"120.862 11 OFFCURVE",
"83 42.324 OFFCURVE",
"83 140 CURVE SMOOTH",
"83 375 LINE SMOOTH",
"83 455 OFFCURVE",
"135 485 OFFCURVE",
"215 485 CURVE SMOOTH",
"295 485 OFFCURVE",
"350 455 OFFCURVE",
"350 375 CURVE SMOOTH",
"350 298 LINE",
"225 298 LINE",
"225 382 LINE SMOOTH",
"225 391.333 OFFCURVE",
"222.667 396 OFFCURVE",
"218 396 CURVE SMOOTH",
"213.333 396 OFFCURVE",
"211 391.333 OFFCURVE",
"211 382 CURVE SMOOTH",
"211 269 LINE",
"350 269 LINE",
"350 18 LINE",
"251 18 LINE",
"244 47 LINE",
"233.333 28.333 OFFCURVE",
"214.333 11 OFFCURVE",
"181 11 CURVE SMOOTH"
);
},
{
closed = 1;
nodes = (
"220.121 20 OFFCURVE",
"239.818 47.864 OFFCURVE",
"247 73 CURVE",
"257 27 LINE",
"341 27 LINE",
"341 260 LINE",
"216 260 LINE",
"216 193 LINE",
"233 193 LINE",
"233 109 LINE SMOOTH",
"233 91.667 OFFCURVE",
"227.333 87 OFFCURVE",
"218 87 CURVE SMOOTH",
"208.667 87 OFFCURVE",
"202 91.667 OFFCURVE",
"202 109 CURVE SMOOTH",
"202 382 LINE SMOOTH",
"202 400.667 OFFCURVE",
"208.667 405 OFFCURVE",
"218 405 CURVE SMOOTH",
"227.333 405 OFFCURVE",
"233 400.667 OFFCURVE",
"233 382 CURVE SMOOTH",
"233 307 LINE",
"341 307 LINE",
"341 375 LINE SMOOTH",
"341 447.865 OFFCURVE",
"289.057 476 OFFCURVE",
"215 476 CURVE SMOOTH",
"140.333 476 OFFCURVE",
"91 449.667 OFFCURVE",
"91 375 CURVE SMOOTH",
"91 140 LINE SMOOTH",
"91 51.063 OFFCURVE",
"127.312 20 OFFCURVE",
"181 20 CURVE SMOOTH"
);
}
);
userData = {
assembly = "PUSHW[ ]	/* 4 values pushed */\01232 6 86 4 \012CALL[ ]	/* CallFunction */\012PUSHW[ ]	/* 4 values pushed */\0121 6 47 4 \012CALL[ ]	/* CallFunction */\012PUSHW[ ]	/* 3 values pushed */\0123 47 1 \012SRP1[ ]	/* SetRefPoint1 */\012SRP2[ ]	/* SetRefPoint2 */\012IP[ ]	/* InterpolatePts */\012PUSHW[ ]	/* 1 value pushed */\01232 \012SRP0[ ]	/* SetRefPoint0 */\012PUSHW[ ]	/* 2 values pushed */\01213 6 \012MIRP[10100]	/* MoveIndirectRelPt */\012PUSHW[ ]	/* 1 value pushed */\0121 \012SRP0[ ]	/* SetRefPoint0 */\012PUSHW[ ]	/* 1 value pushed */\01222 \012MDRP[10000]	/* MoveDirectRelPt */\012PUSHW[ ]	/* 1 value pushed */\0121 \012SRP0[ ]	/* SetRefPoint0 */\012PUSHW[ ]	/* 2 values pushed */\01224 6 \012MIRP[10100]	/* MoveIndirectRelPt */\012PUSHW[ ]	/* 1 value pushed */\01238 \012MDRP[10000]	/* MoveDirectRelPt */\012PUSHW[ ]	/* 1 value pushed */\01225 \012SRP0[ ]	/* SetRefPoint0 */\012PUSHW[ ]	/* 1 value pushed */\01239 \012MDRP[10000]	/* MoveDirectRelPt */\012PUSHW[ ]	/* 1 value pushed */\01247 \012SRP0[ ]	/* SetRefPoint0 */\012PUSHW[ ]	/* 1 value pushed */\01240 \012MDRP[10000]	/* MoveDirectRelPt */\012PUSHW[ ]	/* 1 value pushed */\01240 \012MDAP[1]	/* MoveDirectAbsPt */\012PUSHW[ ]	/* 1 value pushed */\01213 \012SRP0[ ]	/* SetRefPoint0 */\012PUSHW[ ]	/* 2 values pushed */\01243 6 \012MIRP[10100]	/* MoveIndirectRelPt */\012PUSHW[ ]	/* 1 value pushed */\01247 \012SRP0[ ]	/* SetRefPoint0 */\012PUSHW[ ]	/* 1 value pushed */\01249 \012MDRP[10000]	/* MoveDirectRelPt */\012PUSHW[ ]	/* 1 value pushed */\01243 \012SRP0[ ]	/* SetRefPoint0 */\012PUSHW[ ]	/* 1 value pushed */\01253 \012MDRP[10000]	/* MoveDirectRelPt */\012PUSHW[ ]	/* 3 values pushed */\01271 47 1 \012SRP1[ ]	/* SetRefPoint1 */\012SRP2[ ]	/* SetRefPoint2 */\012IP[ ]	/* InterpolatePts */\012PUSHW[ ]	/* 3 values pushed */\01278 47 1 \012SRP1[ ]	/* SetRefPoint1 */\012SRP2[ ]	/* SetRefPoint2 */\012IP[ ]	/* InterpolatePts */\012PUSHW[ ]	/* 1 value pushed */\01224 \012SRP0[ ]	/* SetRefPoint0 */\012PUSHW[ ]	/* 2 values pushed */\01293 6 \012MIRP[10100]	/* MoveIndirectRelPt */\012PUSHW[ ]	/* 1 value pushed */\0121 \012SRP0[ ]	/* SetRefPoint0 */\012PUSHW[ ]	/* 1 value pushed */\01295 \012MDRP[11100]	/* MoveDirectRelPt */\012SVTCA[0]	/* SetFreedomAndProjectionVectorToAxis */\012PUSHW[ ]	/* 1 value pushed */\0120 \012RCVT[ ]	/* ReadCVT */\012IF[ ]	/* If */\012PUSHW[ ]	/* 1 value pushed */\01276 \012MDAP[1]	/* MoveDirectAbsPt */\012ELSE[ ]	/* Else */\012PUSHW[ ]	/* 2 values pushed */\01276 7 \012MIAP[0]	/* MoveIndirectAbsPt */\012EIF[ ]	/* EndIf */\012PUSHW[ ]	/* 1 value pushed */\0120 \012RCVT[ ]	/* ReadCVT */\012IF[ ]	/* If */\012PUSHW[ ]	/* 1 value pushed */\01281 \012MDAP[1]	/* MoveDirectAbsPt */\012ELSE[ ]	/* Else */\012PUSHW[ ]	/* 2 values pushed */\01281 7 \012MIAP[0]	/* MoveIndirectAbsPt */\012EIF[ ]	/* EndIf */\012PUSHW[ ]	/* 4 values pushed */\01217 4 24 4 \012CALL[ ]	/* CallFunction */\012PUSHW[ ]	/* 3 values pushed */\01255 74 3 \012CALL[ ]	/* CallFunction */\012PUSHW[ ]	/* 1 value pushed */\01281 \012SRP0[ ]	/* SetRefPoint0 */\012PUSHW[ ]	/* 1 value pushed */\0128 \012MDRP[11100]	/* MoveDirectRelPt */\012NPUSHW[ ]	/* 27 values pushed */\0127 8 23 8 39 8 55 8 71 8 87 8 103 8 119 8 135 8 151 8 167 8 183 8 199 8 13 \012DELTAP1[ ]	/* DeltaExceptionP1 */\012NPUSHW[ ]	/* 5 values pushed */\012214 8 230 8 2 \012DELTAP1[ ]	/* DeltaExceptionP1 */\012PUSHW[ ]	/* 1 value pushed */\0121 \012MDRP[10000]	/* MoveDirectRelPt */\012PUSHW[ ]	/* 1 value pushed */\0121 \012MDAP[1]	/* MoveDirectAbsPt */\012PUSHW[ ]	/* 1 value pushed */\0128 \012SRP0[ ]	/* SetRefPoint0 */\012PUSHW[ ]	/* 1 value pushed */\01241 \012MDRP[11100]	/* MoveDirectRelPt */\012PUSHW[ ]	/* 3 values pushed */\0123 8 41 \012SRP1[ ]	/* SetRefPoint1 */\012SRP2[ ]	/* SetRefPoint2 */\012IP[ ]	/* InterpolatePts */\012PUSHW[ ]	/* 1 value pushed */\0128 \012SRP0[ ]	/* SetRefPoint0 */\012PUSHW[ ]	/* 1 value pushed */\01268 \012MDRP[10000]	/* MoveDirectRelPt */\012PUSHW[ ]	/* 1 value pushed */\01268 \012MDAP[1]	/* MoveDirectAbsPt */\012PUSHW[ ]	/* 1 value pushed */\01272 \012MDRP[10000]	/* MoveDirectRelPt */\012PUSHW[ ]	/* 1 value pushed */\01273 \012MDRP[10000]	/* MoveDirectRelPt */\012PUSHW[ ]	/* 3 values pushed */\01278 81 8 \012SRP1[ ]	/* SetRefPoint1 */\012SRP2[ ]	/* SetRefPoint2 */\012IP[ ]	/* InterpolatePts */\012PUSHW[ ]	/* 1 value pushed */\01224 \012SRP0[ ]	/* SetRefPoint0 */\012PUSHW[ ]	/* 2 values pushed */\01290 4 \012MIRP[10100]	/* MoveIndirectRelPt */\012IUP[0]	/* InterpolateUntPts */\012IUP[1]	/* InterpolateUntPts */";
};
width = 443;
}
);
note = G.tabular;
},
{
glyphname = H.tabular;
lastChange = "2021-12-03 01:38:01 +0000";
layers = (
{
layerId = "04A772B0-FA71-43EE-BB43-CAC7F0EBD631";
paths = (
{
closed = 1;
nodes = (
"364 0 LINE",
"364 496 LINE",
"67 496 LINE",
"67 0 LINE"
);
},
{
closed = 1;
nodes = (
"84 478 LINE",
"212 478 LINE",
"212 307 LINE",
"220 307 LINE",
"220 478 LINE",
"348 478 LINE",
"348 18 LINE",
"220 18 LINE",
"220 202 LINE",
"212 202 LINE",
"212 18 LINE",
"84 18 LINE"
);
},
{
closed = 1;
nodes = (
"204 27 LINE",
"204 211 LINE",
"229 211 LINE",
"229 27 LINE",
"339 27 LINE",
"339 469 LINE",
"229 469 LINE",
"229 298 LINE",
"204 298 LINE",
"204 469 LINE",
"92 469 LINE",
"92 27 LINE"
);
}
);
userData = {
assembly = "PUSHW[ ]	/* 4 values pushed */\0121 6 24 4 \012CALL[ ]	/* CallFunction */\012PUSHW[ ]	/* 4 values pushed */\0128 6 19 4 \012CALL[ ]	/* CallFunction */\012PUSHW[ ]	/* 1 value pushed */\0121 \012SRP0[ ]	/* SetRefPoint0 */\012PUSHW[ ]	/* 2 values pushed */\0122 6 \012MIRP[10100]	/* MoveIndirectRelPt */\012PUSHW[ ]	/* 1 value pushed */\0121 \012SRP0[ ]	/* SetRefPoint0 */\012PUSHW[ ]	/* 1 value pushed */\0124 \012MDRP[10000]	/* MoveDirectRelPt */\012PUSHW[ ]	/* 1 value pushed */\0128 \012SRP0[ ]	/* SetRefPoint0 */\012PUSHW[ ]	/* 2 values pushed */\0127 6 \012MIRP[10100]	/* MoveIndirectRelPt */\012PUSHW[ ]	/* 1 value pushed */\01210 \012MDRP[10000]	/* MoveDirectRelPt */\012PUSHW[ ]	/* 1 value pushed */\0122 \012SRP0[ ]	/* SetRefPoint0 */\012PUSHW[ ]	/* 2 values pushed */\01213 6 \012MIRP[10100]	/* MoveIndirectRelPt */\012PUSHW[ ]	/* 1 value pushed */\01216 \012MDRP[10000]	/* MoveDirectRelPt */\012PUSHW[ ]	/* 1 value pushed */\01219 \012SRP0[ ]	/* SetRefPoint0 */\012PUSHW[ ]	/* 1 value pushed */\01222 \012MDRP[10000]	/* MoveDirectRelPt */\012PUSHW[ ]	/* 1 value pushed */\0127 \012SRP0[ ]	/* SetRefPoint0 */\012PUSHW[ ]	/* 2 values pushed */\01226 6 \012MIRP[10100]	/* MoveIndirectRelPt */\012PUSHW[ ]	/* 1 value pushed */\0128 \012SRP0[ ]	/* SetRefPoint0 */\012PUSHW[ ]	/* 1 value pushed */\01229 \012MDRP[11100]	/* MoveDirectRelPt */\012SVTCA[0]	/* SetFreedomAndProjectionVectorToAxis */\012PUSHW[ ]	/* 1 value pushed */\0120 \012RCVT[ ]	/* ReadCVT */\012IF[ ]	/* If */\012PUSHW[ ]	/* 1 value pushed */\01225 \012MDAP[1]	/* MoveDirectAbsPt */\012ELSE[ ]	/* Else */\012PUSHW[ ]	/* 2 values pushed */\01225 11 \012MIAP[0]	/* MoveIndirectAbsPt */\012EIF[ ]	/* EndIf */\012PUSHW[ ]	/* 1 value pushed */\0120 \012RCVT[ ]	/* ReadCVT */\012IF[ ]	/* If */\012PUSHW[ ]	/* 1 value pushed */\01224 \012MDAP[1]	/* MoveDirectAbsPt */\012ELSE[ ]	/* Else */\012PUSHW[ ]	/* 2 values pushed */\01224 7 \012MIAP[0]	/* MoveIndirectAbsPt */\012EIF[ ]	/* EndIf */\012IUP[0]	/* InterpolateUntPts */\012IUP[1]	/* InterpolateUntPts */";
};
width = 442;
}
);
note = H.tabular;
},
{
glyphname = I.tabular;
lastChange = "2021-12-03 01:43:04 +0000";
layers = (
{
anchors = (
{
name = bottom;
position = "{204, 0}";
},
{
name = ogonek;
position = "{262, 0}";
},
{
name = top;
position = "{203, 495}";
},
{
name = topleft;
position = "{20, 591}";
}
);
layerId = "04A772B0-FA71-43EE-BB43-CAC7F0EBD631";
paths = (
{
closed = 1;
nodes = (
"320 0 LINE",
"320 136 LINE",
"283 136 LINE",
"283 360 LINE",
"320 360 LINE",
"320 496 LINE",
"92 496 LINE",
"92 360 LINE",
"129 360 LINE",
"129 136 LINE",
"92 136 LINE",
"92 0 LINE"
);
},
{
closed = 1;
nodes = (
"108 119 LINE",
"145 119 LINE",
"145 377 LINE",
"108 377 LINE",
"108 478 LINE",
"304 478 LINE",
"304 377 LINE",
"267 377 LINE",
"267 119 LINE",
"304 119 LINE",
"304 18 LINE",
"108 18 LINE"
);
},
{
closed = 1;
nodes = (
"296 27 LINE",
"296 110 LINE",
"259 110 LINE",
"259 386 LINE",
"296 386 LINE",
"296 469 LINE",
"116 469 LINE",
"116 386 LINE",
"153 386 LINE",
"153 110 LINE",
"116 110 LINE",
"116 27 LINE"
);
}
);
userData = {
assembly = "PUSHW[ ]	/* 3 values pushed */\01213 35 3 \012CALL[ ]	/* CallFunction */\012PUSHW[ ]	/* 3 values pushed */\01229 19 3 \012CALL[ ]	/* CallFunction */\012PUSHW[ ]	/* 3 values pushed */\0120 35 13 \012SRP1[ ]	/* SetRefPoint1 */\012SRP2[ ]	/* SetRefPoint2 */\012IP[ ]	/* InterpolatePts */\012PUSHW[ ]	/* 1 value pushed */\0120 \012MDAP[1]	/* MoveDirectAbsPt */\012PUSHW[ ]	/* 2 values pushed */\0121 5 \012MIRP[10100]	/* MoveIndirectRelPt */\012PUSHW[ ]	/* 3 values pushed */\01233 35 13 \012SRP1[ ]	/* SetRefPoint1 */\012SRP2[ ]	/* SetRefPoint2 */\012IP[ ]	/* InterpolatePts */\012PUSHW[ ]	/* 1 value pushed */\01233 \012MDAP[1]	/* MoveDirectAbsPt */\012PUSHW[ ]	/* 2 values pushed */\0124 6 \012MIRP[10100]	/* MoveIndirectRelPt */\012PUSHW[ ]	/* 1 value pushed */\0121 \012SRP0[ ]	/* SetRefPoint0 */\012PUSHW[ ]	/* 1 value pushed */\0125 \012MDRP[10000]	/* MoveDirectRelPt */\012PUSHW[ ]	/* 1 value pushed */\0120 \012SRP0[ ]	/* SetRefPoint0 */\012PUSHW[ ]	/* 1 value pushed */\0127 \012MDRP[10000]	/* MoveDirectRelPt */\012PUSHW[ ]	/* 1 value pushed */\0124 \012SRP0[ ]	/* SetRefPoint0 */\012PUSHW[ ]	/* 2 values pushed */\0129 6 \012MIRP[10100]	/* MoveIndirectRelPt */\012PUSHW[ ]	/* 1 value pushed */\01229 \012SRP0[ ]	/* SetRefPoint0 */\012PUSHW[ ]	/* 1 value pushed */\01225 \012MDRP[10000]	/* MoveDirectRelPt */\012PUSHW[ ]	/* 1 value pushed */\0129 \012SRP0[ ]	/* SetRefPoint0 */\012PUSHW[ ]	/* 2 values pushed */\01228 6 \012MIRP[10100]	/* MoveIndirectRelPt */\012PUSHW[ ]	/* 1 value pushed */\01235 \012SRP0[ ]	/* SetRefPoint0 */\012PUSHW[ ]	/* 1 value pushed */\01231 \012MDRP[10000]	/* MoveDirectRelPt */\012PUSHW[ ]	/* 1 value pushed */\01229 \012SRP0[ ]	/* SetRefPoint0 */\012PUSHW[ ]	/* 1 value pushed */\01237 \012MDRP[11100]	/* MoveDirectRelPt */\012SVTCA[0]	/* SetFreedomAndProjectionVectorToAxis */\012PUSHW[ ]	/* 1 value pushed */\0120 \012RCVT[ ]	/* ReadCVT */\012IF[ ]	/* If */\012PUSHW[ ]	/* 1 value pushed */\01224 \012MDAP[1]	/* MoveDirectAbsPt */\012ELSE[ ]	/* Else */\012PUSHW[ ]	/* 2 values pushed */\01224 11 \012MIAP[0]	/* MoveIndirectAbsPt */\012EIF[ ]	/* EndIf */\012PUSHW[ ]	/* 1 value pushed */\0120 \012RCVT[ ]	/* ReadCVT */\012IF[ ]	/* If */\012PUSHW[ ]	/* 1 value pushed */\01230 \012MDAP[1]	/* MoveDirectAbsPt */\012ELSE[ ]	/* Else */\012PUSHW[ ]	/* 2 values pushed */\01230 7 \012MIAP[0]	/* MoveIndirectAbsPt */\012EIF[ ]	/* EndIf */\012PUSHW[ ]	/* 4 values pushed */\0125 2 6 4 \012CALL[ ]	/* CallFunction */\012PUSHW[ ]	/* 1 value pushed */\01224 \012SRP0[ ]	/* SetRefPoint0 */\012PUSHW[ ]	/* 2 values pushed */\0122 4 \012MIRP[10100]	/* MoveIndirectRelPt */\012PUSHW[ ]	/* 2 values pushed */\0121 2 \012MIRP[10100]	/* MoveIndirectRelPt */\012PUSHW[ ]	/* 1 value pushed */\01230 \012SRP0[ ]	/* SetRefPoint0 */\012PUSHW[ ]	/* 2 values pushed */\0124 4 \012MIRP[10100]	/* MoveIndirectRelPt */\012PUSHW[ ]	/* 1 value pushed */\0128 \012MDRP[10000]	/* MoveDirectRelPt */\012PUSHW[ ]	/* 1 value pushed */\0129 \012MDRP[10000]	/* MoveDirectRelPt */\012PUSHW[ ]	/* 1 value pushed */\0122 \012SRP0[ ]	/* SetRefPoint0 */\012PUSHW[ ]	/* 1 value pushed */\01210 \012MDRP[10000]	/* MoveDirectRelPt */\012PUSHW[ ]	/* 1 value pushed */\01211 \012MDRP[10000]	/* MoveDirectRelPt */\012PUSHW[ ]	/* 1 value pushed */\0121 \012SRP0[ ]	/* SetRefPoint0 */\012PUSHW[ ]	/* 2 values pushed */\01227 4 \012MIRP[10100]	/* MoveIndirectRelPt */\012PUSHW[ ]	/* 1 value pushed */\0126 \012SRP0[ ]	/* SetRefPoint0 */\012PUSHW[ ]	/* 2 values pushed */\01228 4 \012MIRP[10100]	/* MoveIndirectRelPt */\012PUSHW[ ]	/* 1 value pushed */\01232 \012MDRP[10000]	/* MoveDirectRelPt */\012PUSHW[ ]	/* 1 value pushed */\01227 \012SRP0[ ]	/* SetRefPoint0 */\012PUSHW[ ]	/* 1 value pushed */\01234 \012MDRP[10000]	/* MoveDirectRelPt */\012IUP[0]	/* InterpolateUntPts */\012IUP[1]	/* InterpolateUntPts */";
};
width = 424;
}
);
note = I.tabular;
},
{
glyphname = J.tabular;
lastChange = "2021-12-03 01:38:01 +0000";
layers = (
{
layerId = "04A772B0-FA71-43EE-BB43-CAC7F0EBD631";
paths = (
{
closed = 1;
nodes = (
"283.918 -103 OFFCURVE",
"328 -67.83 OFFCURVE",
"328 47 CURVE SMOOTH",
"328 367 LINE",
"376 367 LINE",
"376 506 LINE",
"112 506 LINE",
"112 367 LINE",
"165 367 LINE",
"165 45 LINE SMOOTH",
"165 37 OFFCURVE",
"164.667 36 OFFCURVE",
"158 36 CURVE SMOOTH",
"154 36 OFFCURVE",
"146.667 36.667 OFFCURVE",
"136 38 CURVE SMOOTH",
"125.333 39.333 OFFCURVE",
"114.333 40.667 OFFCURVE",
"103 42 CURVE SMOOTH",
"60 48 LINE",
"60 -91 LINE",
"73.651 -91 OFFCURVE",
"160.079 -103 OFFCURVE",
"175 -103 CURVE SMOOTH"
);
},
{
closed = 1;
nodes = (
"163.627 -85 OFFCURVE",
"86.8 -75 OFFCURVE",
"77 -75 CURVE",
"77 27 LINE",
"111 22 LINE SMOOTH",
"129.667 19.333 OFFCURVE",
"150 17 OFFCURVE",
"158 17 CURVE SMOOTH",
"176.667 17 OFFCURVE",
"181 22.333 OFFCURVE",
"181 45 CURVE SMOOTH",
"181 385 LINE",
"128 385 LINE",
"128 488 LINE",
"359 488 LINE",
"359 385 LINE",
"311 385 LINE",
"311 47 LINE SMOOTH",
"311 -54.873 OFFCURVE",
"271.978 -85 OFFCURVE",
"175 -85 CURVE SMOOTH"
);
},
{
closed = 1;
nodes = (
"266.549 -76 OFFCURVE",
"302 -47.969 OFFCURVE",
"302 47 CURVE SMOOTH",
"302 394 LINE",
"351 394 LINE",
"351 479 LINE",
"137 479 LINE",
"137 394 LINE",
"190 394 LINE",
"190 45 LINE SMOOTH",
"190 14.333 OFFCURVE",
"184.667 8 OFFCURVE",
"158 8 CURVE SMOOTH",
"147.333 8 OFFCURVE",
"128.667 9.333 OFFCURVE",
"114 12 CURVE SMOOTH",
"86 16 LINE",
"86 -66 LINE",
"93.238 -66 OFFCURVE",
"166.093 -76 OFFCURVE",
"175 -76 CURVE SMOOTH"
);
}
);
userData = {
assembly = "PUSHW[ ]	/* 4 values pushed */\01228 6 67 4 \012CALL[ ]	/* CallFunction */\012PUSHW[ ]	/* 3 values pushed */\01254 48 3 \012CALL[ ]	/* CallFunction */\012PUSHW[ ]	/* 3 values pushed */\0120 67 28 \012SRP1[ ]	/* SetRefPoint1 */\012SRP2[ ]	/* SetRefPoint2 */\012IP[ ]	/* InterpolatePts */\012PUSHW[ ]	/* 1 value pushed */\0120 \012MDAP[1]	/* MoveDirectAbsPt */\012PUSHW[ ]	/* 2 values pushed */\0121 5 \012MIRP[10100]	/* MoveIndirectRelPt */\012PUSHW[ ]	/* 3 values pushed */\01275 67 28 \012SRP1[ ]	/* SetRefPoint1 */\012SRP2[ ]	/* SetRefPoint2 */\012IP[ ]	/* InterpolatePts */\012PUSHW[ ]	/* 1 value pushed */\01275 \012MDAP[1]	/* MoveDirectAbsPt */\012PUSHW[ ]	/* 2 values pushed */\0124 6 \012MIRP[10100]	/* MoveIndirectRelPt */\012PUSHW[ ]	/* 1 value pushed */\01228 \012SRP0[ ]	/* SetRefPoint0 */\012PUSHW[ ]	/* 2 values pushed */\01215 6 \012MIRP[10100]	/* MoveIndirectRelPt */\012PUSHW[ ]	/* 1 value pushed */\0124 \012SRP0[ ]	/* SetRefPoint0 */\012PUSHW[ ]	/* 2 values pushed */\01223 6 \012MIRP[10100]	/* MoveIndirectRelPt */\012PUSHW[ ]	/* 2 values pushed */\01256 6 \012MIRP[10100]	/* MoveIndirectRelPt */\012PUSHW[ ]	/* 1 value pushed */\01228 \012SRP0[ ]	/* SetRefPoint0 */\012PUSHW[ ]	/* 1 value pushed */\01277 \012MDRP[11100]	/* MoveDirectRelPt */\012PUSHW[ ]	/* 1 value pushed */\01254 \012SRP0[ ]	/* SetRefPoint0 */\012PUSHW[ ]	/* 1 value pushed */\01279 \012MDRP[11100]	/* MoveDirectRelPt */\012SVTCA[0]	/* SetFreedomAndProjectionVectorToAxis */\012PUSHW[ ]	/* 4 values pushed */\01220 4 61 4 \012CALL[ ]	/* CallFunction */\012PUSHW[ ]	/* 4 values pushed */\0121 2 2 4 \012CALL[ ]	/* CallFunction */\012PUSHW[ ]	/* 1 value pushed */\01220 \012SRP0[ ]	/* SetRefPoint0 */\012PUSHW[ ]	/* 2 values pushed */\0129 2 \012MIRP[10100]	/* MoveIndirectRelPt */\012PUSHW[ ]	/* 1 value pushed */\0122 \012SRP0[ ]	/* SetRefPoint0 */\012PUSHW[ ]	/* 1 value pushed */\01224 \012MDRP[10000]	/* MoveDirectRelPt */\012PUSHW[ ]	/* 1 value pushed */\0122 \012SRP0[ ]	/* SetRefPoint0 */\012PUSHW[ ]	/* 2 values pushed */\01253 4 \012MIRP[10100]	/* MoveIndirectRelPt */\012PUSHW[ ]	/* 1 value pushed */\0121 \012SRP0[ ]	/* SetRefPoint0 */\012PUSHW[ ]	/* 2 values pushed */\01255 4 \012MIRP[10100]	/* MoveIndirectRelPt */\012PUSHW[ ]	/* 1 value pushed */\01276 \012MDRP[10000]	/* MoveDirectRelPt */\012IUP[0]	/* InterpolateUntPts */\012IUP[1]	/* InterpolateUntPts */";
};
width = 446;
}
);
note = J.tabular;
},
{
glyphname = K.tabular;
lastChange = "2021-12-03 01:38:01 +0000";
layers = (
{
layerId = "04A772B0-FA71-43EE-BB43-CAC7F0EBD631";
paths = (
{
closed = 1;
nodes = (
"395 0 LINE",
"385.137 30.683 OFFCURVE",
"367.071 89.689 OFFCURVE",
"355 127 CURVE SMOOTH",
"340.333 172.333 OFFCURVE",
"326 218.333 OFFCURVE",
"314 257 CURVE",
"393 496 LINE",
"54 496 LINE",
"54 0 LINE"
);
},
{
closed = 1;
nodes = (
"71 478 LINE",
"201 478 LINE",
"201 375 LINE",
"222 478 LINE",
"370 478 LINE",
"296 258 LINE",
"371 18 LINE",
"227 18 LINE",
"201 141 LINE",
"201 18 LINE",
"71 18 LINE"
);
},
{
closed = 1;
nodes = (
"193 27 LINE",
"193 226 LINE",
"233 27 LINE",
"360 27 LINE",
"287 257 LINE",
"358 469 LINE",
"228 469 LINE",
"193 289 LINE",
"193 469 LINE",
"79 469 LINE",
"79 27 LINE"
);
}
);
userData = {
assembly = "PUSHW[ ]	/* 4 values pushed */\01210 6 22 4 \012CALL[ ]	/* CallFunction */\012PUSHW[ ]	/* 1 value pushed */\01210 \012SRP0[ ]	/* SetRefPoint0 */\012PUSHW[ ]	/* 1 value pushed */\0126 \012MDRP[10000]	/* MoveDirectRelPt */\012PUSHW[ ]	/* 1 value pushed */\01210 \012SRP0[ ]	/* SetRefPoint0 */\012PUSHW[ ]	/* 2 values pushed */\0128 6 \012MIRP[10100]	/* MoveIndirectRelPt */\012PUSHW[ ]	/* 3 values pushed */\01212 22 10 \012SRP1[ ]	/* SetRefPoint1 */\012SRP2[ ]	/* SetRefPoint2 */\012IP[ ]	/* InterpolatePts */\012PUSHW[ ]	/* 1 value pushed */\01212 \012MDAP[1]	/* MoveDirectAbsPt */\012PUSHW[ ]	/* 2 values pushed */\01211 6 \012MIRP[10100]	/* MoveIndirectRelPt */\012PUSHW[ ]	/* 1 value pushed */\01214 \012MDRP[10000]	/* MoveDirectRelPt */\012SVTCA[0]	/* SetFreedomAndProjectionVectorToAxis */\012PUSHW[ ]	/* 1 value pushed */\0120 \012RCVT[ ]	/* ReadCVT */\012IF[ ]	/* If */\012PUSHW[ ]	/* 1 value pushed */\01222 \012MDAP[1]	/* MoveDirectAbsPt */\012ELSE[ ]	/* Else */\012PUSHW[ ]	/* 2 values pushed */\01222 11 \012MIAP[0]	/* MoveIndirectAbsPt */\012EIF[ ]	/* EndIf */\012PUSHW[ ]	/* 1 value pushed */\0120 \012RCVT[ ]	/* ReadCVT */\012IF[ ]	/* If */\012PUSHW[ ]	/* 1 value pushed */\01229 \012MDAP[1]	/* MoveDirectAbsPt */\012ELSE[ ]	/* Else */\012PUSHW[ ]	/* 2 values pushed */\01229 7 \012MIAP[0]	/* MoveIndirectAbsPt */\012EIF[ ]	/* EndIf */\012PUSHW[ ]	/* 3 values pushed */\0120 29 22 \012SRP1[ ]	/* SetRefPoint1 */\012SRP2[ ]	/* SetRefPoint2 */\012IP[ ]	/* InterpolatePts */\012PUSHW[ ]	/* 3 values pushed */\0122 29 22 \012SRP1[ ]	/* SetRefPoint1 */\012SRP2[ ]	/* SetRefPoint2 */\012IP[ ]	/* InterpolatePts */\012PUSHW[ ]	/* 3 values pushed */\0124 29 22 \012SRP1[ ]	/* SetRefPoint1 */\012SRP2[ ]	/* SetRefPoint2 */\012IP[ ]	/* InterpolatePts */\012PUSHW[ ]	/* 3 values pushed */\0126 29 22 \012SRP1[ ]	/* SetRefPoint1 */\012SRP2[ ]	/* SetRefPoint2 */\012IP[ ]	/* InterpolatePts */\012PUSHW[ ]	/* 3 values pushed */\01215 29 22 \012SRP1[ ]	/* SetRefPoint1 */\012SRP2[ ]	/* SetRefPoint2 */\012IP[ ]	/* InterpolatePts */\012PUSHW[ ]	/* 3 values pushed */\01217 29 22 \012SRP1[ ]	/* SetRefPoint1 */\012SRP2[ ]	/* SetRefPoint2 */\012IP[ ]	/* InterpolatePts */\012PUSHW[ ]	/* 3 values pushed */\01219 29 22 \012SRP1[ ]	/* SetRefPoint1 */\012SRP2[ ]	/* SetRefPoint2 */\012IP[ ]	/* InterpolatePts */\012PUSHW[ ]	/* 3 values pushed */\01221 29 22 \012SRP1[ ]	/* SetRefPoint1 */\012SRP2[ ]	/* SetRefPoint2 */\012IP[ ]	/* InterpolatePts */\012IUP[0]	/* InterpolateUntPts */\012IUP[1]	/* InterpolateUntPts */";
};
width = 449;
}
);
note = K.tabular;
},
{
glyphname = L.tabular;
lastChange = "2021-12-03 01:38:01 +0000";
layers = (
{
layerId = "04A772B0-FA71-43EE-BB43-CAC7F0EBD631";
paths = (
{
closed = 1;
nodes = (
"316 0 LINE",
"316 135 LINE",
"244 135 LINE",
"244 496 LINE",
"93 496 LINE",
"93 0 LINE"
);
},
{
closed = 1;
nodes = (
"109 478 LINE",
"229 478 LINE",
"229 117 LINE",
"300 117 LINE",
"300 18 LINE",
"109 18 LINE"
);
},
{
closed = 1;
nodes = (
"292 27 LINE",
"292 108 LINE",
"221 108 LINE",
"221 469 LINE",
"117 469 LINE",
"117 27 LINE"
);
}
);
userData = {
assembly = "PUSHW[ ]	/* 4 values pushed */\0121 6 12 4 \012CALL[ ]	/* CallFunction */\012PUSHW[ ]	/* 4 values pushed */\01215 6 9 4 \012CALL[ ]	/* CallFunction */\012PUSHW[ ]	/* 1 value pushed */\0121 \012SRP0[ ]	/* SetRefPoint0 */\012PUSHW[ ]	/* 2 values pushed */\0120 6 \012MIRP[10100]	/* MoveIndirectRelPt */\012PUSHW[ ]	/* 2 values pushed */\0123 5 \012MIRP[10100]	/* MoveIndirectRelPt */\012PUSHW[ ]	/* 1 value pushed */\0120 \012SRP0[ ]	/* SetRefPoint0 */\012PUSHW[ ]	/* 2 values pushed */\01213 6 \012MIRP[10100]	/* MoveIndirectRelPt */\012SVTCA[0]	/* SetFreedomAndProjectionVectorToAxis */\012PUSHW[ ]	/* 1 value pushed */\0120 \012RCVT[ ]	/* ReadCVT */\012IF[ ]	/* If */\012PUSHW[ ]	/* 1 value pushed */\01212 \012MDAP[1]	/* MoveDirectAbsPt */\012ELSE[ ]	/* Else */\012PUSHW[ ]	/* 2 values pushed */\01212 11 \012MIAP[0]	/* MoveIndirectAbsPt */\012EIF[ ]	/* EndIf */\012PUSHW[ ]	/* 1 value pushed */\0120 \012RCVT[ ]	/* ReadCVT */\012IF[ ]	/* If */\012PUSHW[ ]	/* 1 value pushed */\01216 \012MDAP[1]	/* MoveDirectAbsPt */\012ELSE[ ]	/* Else */\012PUSHW[ ]	/* 2 values pushed */\01216 7 \012MIAP[0]	/* MoveIndirectAbsPt */\012EIF[ ]	/* EndIf */\012PUSHW[ ]	/* 4 values pushed */\0123 2 4 4 \012CALL[ ]	/* CallFunction */\012PUSHW[ ]	/* 1 value pushed */\01216 \012SRP0[ ]	/* SetRefPoint0 */\012PUSHW[ ]	/* 2 values pushed */\0122 4 \012MIRP[10100]	/* MoveIndirectRelPt */\012PUSHW[ ]	/* 1 value pushed */\0124 \012SRP0[ ]	/* SetRefPoint0 */\012PUSHW[ ]	/* 2 values pushed */\01215 4 \012MIRP[10100]	/* MoveIndirectRelPt */\012IUP[0]	/* InterpolateUntPts */\012IUP[1]	/* InterpolateUntPts */";
};
width = 423;
}
);
note = L.tabular;
},
{
glyphname = M.tabular;
lastChange = "2021-12-03 01:38:01 +0000";
layers = (
{
layerId = "04A772B0-FA71-43EE-BB43-CAC7F0EBD631";
paths = (
{
closed = 1;
nodes = (
"404 0 LINE",
"404 496 LINE",
"41 496 LINE",
"41 0 LINE"
);
},
{
closed = 1;
nodes = (
"58 478 LINE",
"207 478 LINE",
"222 331 LINE",
"224.667 357 OFFCURVE",
"227.333 381.833 OFFCURVE",
"230 405.5 CURVE SMOOTH",
"238 478 LINE",
"387 478 LINE",
"387 18 LINE",
"281 18 LINE",
"281 157 LINE",
"268 18 LINE",
"175 18 LINE",
"164 146 LINE",
"164 18 LINE",
"58 18 LINE"
);
},
{
closed = 1;
nodes = (
"155 27 LINE",
"155 335 LINE",
"182 27 LINE",
"261 27 LINE",
"290 335 LINE",
"290 27 LINE",
"378 27 LINE",
"378 469 LINE",
"246 469 LINE",
"222 244 LINE",
"200 469 LINE",
"67 469 LINE",
"67 27 LINE"
);
}
);
userData = {
assembly = "PUSHW[ ]	/* 4 values pushed */\0121 6 28 4 \012CALL[ ]	/* CallFunction */\012PUSHW[ ]	/* 4 values pushed */\01216 6 26 4 \012CALL[ ]	/* CallFunction */\012PUSHW[ ]	/* 4 values pushed */\0128 6 9 4 \012CALL[ ]	/* CallFunction */\012PUSHW[ ]	/* 1 value pushed */\0121 \012SRP0[ ]	/* SetRefPoint0 */\012PUSHW[ ]	/* 2 values pushed */\0122 6 \012MIRP[10100]	/* MoveIndirectRelPt */\012PUSHW[ ]	/* 3 values pushed */\0125 26 16 \012SRP1[ ]	/* SetRefPoint1 */\012SRP2[ ]	/* SetRefPoint2 */\012IP[ ]	/* InterpolatePts */\012PUSHW[ ]	/* 3 values pushed */\01222 26 16 \012SRP1[ ]	/* SetRefPoint1 */\012SRP2[ ]	/* SetRefPoint2 */\012IP[ ]	/* InterpolatePts */\012PUSHW[ ]	/* 1 value pushed */\0129 \012SRP0[ ]	/* SetRefPoint0 */\012PUSHW[ ]	/* 2 values pushed */\01231 6 \012MIRP[10100]	/* MoveIndirectRelPt */\012PUSHW[ ]	/* 1 value pushed */\0128 \012SRP0[ ]	/* SetRefPoint0 */\012PUSHW[ ]	/* 1 value pushed */\01233 \012MDRP[11100]	/* MoveDirectRelPt */\012SVTCA[0]	/* SetFreedomAndProjectionVectorToAxis */\012PUSHW[ ]	/* 1 value pushed */\0120 \012RCVT[ ]	/* ReadCVT */\012IF[ ]	/* If */\012PUSHW[ ]	/* 1 value pushed */\01229 \012MDAP[1]	/* MoveDirectAbsPt */\012ELSE[ ]	/* Else */\012PUSHW[ ]	/* 2 values pushed */\01229 11 \012MIAP[0]	/* MoveIndirectAbsPt */\012EIF[ ]	/* EndIf */\012PUSHW[ ]	/* 1 value pushed */\0120 \012RCVT[ ]	/* ReadCVT */\012IF[ ]	/* If */\012PUSHW[ ]	/* 1 value pushed */\01228 \012MDAP[1]	/* MoveDirectAbsPt */\012ELSE[ ]	/* Else */\012PUSHW[ ]	/* 2 values pushed */\01228 7 \012MIAP[0]	/* MoveIndirectAbsPt */\012EIF[ ]	/* EndIf */\012PUSHW[ ]	/* 3 values pushed */\0120 28 29 \012SRP1[ ]	/* SetRefPoint1 */\012SRP2[ ]	/* SetRefPoint2 */\012IP[ ]	/* InterpolatePts */\012PUSHW[ ]	/* 3 values pushed */\0125 28 29 \012SRP1[ ]	/* SetRefPoint1 */\012SRP2[ ]	/* SetRefPoint2 */\012IP[ ]	/* InterpolatePts */\012PUSHW[ ]	/* 3 values pushed */\01210 28 29 \012SRP1[ ]	/* SetRefPoint1 */\012SRP2[ ]	/* SetRefPoint2 */\012IP[ ]	/* InterpolatePts */\012PUSHW[ ]	/* 3 values pushed */\01215 28 29 \012SRP1[ ]	/* SetRefPoint1 */\012SRP2[ ]	/* SetRefPoint2 */\012IP[ ]	/* InterpolatePts */\012PUSHW[ ]	/* 3 values pushed */\01222 28 29 \012SRP1[ ]	/* SetRefPoint1 */\012SRP2[ ]	/* SetRefPoint2 */\012IP[ ]	/* InterpolatePts */\012PUSHW[ ]	/* 3 values pushed */\01227 28 29 \012SRP1[ ]	/* SetRefPoint1 */\012SRP2[ ]	/* SetRefPoint2 */\012IP[ ]	/* InterpolatePts */\012IUP[0]	/* InterpolateUntPts */\012IUP[1]	/* InterpolateUntPts */";
};
width = 454;
}
);
note = M.tabular;
},
{
glyphname = N.tabular;
lastChange = "2021-12-03 01:43:41 +0000";
layers = (
{
anchors = (
{
name = bottom;
position = "{216, 0}";
},
{
name = top;
position = "{215, 495}";
}
);
layerId = "04A772B0-FA71-43EE-BB43-CAC7F0EBD631";
paths = (
{
closed = 1;
nodes = (
"216 0 LINE",
"216 26 LINE",
"222 0 LINE",
"362 0 LINE",
"362 496 LINE",
"215 496 LINE",
"215 474 LINE",
"202 496 LINE",
"69 496 LINE",
"69 0 LINE"
);
},
{
closed = 1;
nodes = (
"85 478 LINE",
"197 478 LINE",
"231 335 LINE",
"231 478 LINE",
"345 478 LINE",
"345 18 LINE",
"235 18 LINE",
"199 146 LINE",
"199 18 LINE",
"85 18 LINE"
);
},
{
closed = 1;
nodes = (
"191 27 LINE",
"191 211 LINE",
"241 27 LINE",
"337 27 LINE",
"337 469 LINE",
"240 469 LINE",
"240 263 LINE",
"190 469 LINE",
"94 469 LINE",
"94 27 LINE"
);
}
);
userData = {
assembly = "PUSHW[ ]	/* 4 values pushed */\0121 6 22 4 \012CALL[ ]	/* CallFunction */\012PUSHW[ ]	/* 1 value pushed */\0121 \012SRP0[ ]	/* SetRefPoint0 */\012PUSHW[ ]	/* 2 values pushed */\0122 6 \012MIRP[10100]	/* MoveIndirectRelPt */\012PUSHW[ ]	/* 1 value pushed */\0121 \012SRP0[ ]	/* SetRefPoint0 */\012PUSHW[ ]	/* 1 value pushed */\0124 \012MDRP[10000]	/* MoveDirectRelPt */\012PUSHW[ ]	/* 1 value pushed */\0124 \012MDAP[1]	/* MoveDirectAbsPt */\012PUSHW[ ]	/* 1 value pushed */\0121 \012SRP0[ ]	/* SetRefPoint0 */\012PUSHW[ ]	/* 1 value pushed */\01215 \012MDRP[10000]	/* MoveDirectRelPt */\012PUSHW[ ]	/* 1 value pushed */\01215 \012MDAP[1]	/* MoveDirectAbsPt */\012PUSHW[ ]	/* 2 values pushed */\0128 6 \012MIRP[10100]	/* MoveIndirectRelPt */\012PUSHW[ ]	/* 3 values pushed */\0125 15 8 \012SRP1[ ]	/* SetRefPoint1 */\012SRP2[ ]	/* SetRefPoint2 */\012IP[ ]	/* InterpolatePts */\012PUSHW[ ]	/* 2 values pushed */\0126 6 \012MIRP[10100]	/* MoveIndirectRelPt */\012PUSHW[ ]	/* 1 value pushed */\0122 \012SRP0[ ]	/* SetRefPoint0 */\012PUSHW[ ]	/* 2 values pushed */\01214 6 \012MIRP[10100]	/* MoveIndirectRelPt */\012PUSHW[ ]	/* 3 values pushed */\01219 15 8 \012SRP1[ ]	/* SetRefPoint1 */\012SRP2[ ]	/* SetRefPoint2 */\012IP[ ]	/* InterpolatePts */\012PUSHW[ ]	/* 3 values pushed */\01220 15 8 \012SRP1[ ]	/* SetRefPoint1 */\012SRP2[ ]	/* SetRefPoint2 */\012IP[ ]	/* InterpolatePts */\012PUSHW[ ]	/* 3 values pushed */\01225 15 8 \012SRP1[ ]	/* SetRefPoint1 */\012SRP2[ ]	/* SetRefPoint2 */\012IP[ ]	/* InterpolatePts */\012PUSHW[ ]	/* 1 value pushed */\0126 \012SRP0[ ]	/* SetRefPoint0 */\012PUSHW[ ]	/* 2 values pushed */\01227 6 \012MIRP[10100]	/* MoveIndirectRelPt */\012SVTCA[0]	/* SetFreedomAndProjectionVectorToAxis */\012PUSHW[ ]	/* 1 value pushed */\0120 \012RCVT[ ]	/* ReadCVT */\012IF[ ]	/* If */\012PUSHW[ ]	/* 1 value pushed */\01223 \012MDAP[1]	/* MoveDirectAbsPt */\012ELSE[ ]	/* Else */\012PUSHW[ ]	/* 2 values pushed */\01223 11 \012MIAP[0]	/* MoveIndirectAbsPt */\012EIF[ ]	/* EndIf */\012PUSHW[ ]	/* 1 value pushed */\0120 \012RCVT[ ]	/* ReadCVT */\012IF[ ]	/* If */\012PUSHW[ ]	/* 1 value pushed */\01226 \012MDAP[1]	/* MoveDirectAbsPt */\012ELSE[ ]	/* Else */\012PUSHW[ ]	/* 2 values pushed */\01226 11 \012MIAP[0]	/* MoveIndirectAbsPt */\012EIF[ ]	/* EndIf */\012PUSHW[ ]	/* 1 value pushed */\0120 \012RCVT[ ]	/* ReadCVT */\012IF[ ]	/* If */\012PUSHW[ ]	/* 1 value pushed */\01221 \012MDAP[1]	/* MoveDirectAbsPt */\012ELSE[ ]	/* Else */\012PUSHW[ ]	/* 2 values pushed */\01221 7 \012MIAP[0]	/* MoveIndirectAbsPt */\012EIF[ ]	/* EndIf */\012PUSHW[ ]	/* 1 value pushed */\0120 \012RCVT[ ]	/* ReadCVT */\012IF[ ]	/* If */\012PUSHW[ ]	/* 1 value pushed */\01228 \012MDAP[1]	/* MoveDirectAbsPt */\012ELSE[ ]	/* Else */\012PUSHW[ ]	/* 2 values pushed */\01228 7 \012MIAP[0]	/* MoveIndirectAbsPt */\012EIF[ ]	/* EndIf */\012PUSHW[ ]	/* 3 values pushed */\0120 21 23 \012SRP1[ ]	/* SetRefPoint1 */\012SRP2[ ]	/* SetRefPoint2 */\012IP[ ]	/* InterpolatePts */\012PUSHW[ ]	/* 3 values pushed */\0125 21 23 \012SRP1[ ]	/* SetRefPoint1 */\012SRP2[ ]	/* SetRefPoint2 */\012IP[ ]	/* InterpolatePts */\012PUSHW[ ]	/* 3 values pushed */\01214 21 23 \012SRP1[ ]	/* SetRefPoint1 */\012SRP2[ ]	/* SetRefPoint2 */\012IP[ ]	/* InterpolatePts */\012PUSHW[ ]	/* 3 values pushed */\01219 21 23 \012SRP1[ ]	/* SetRefPoint1 */\012SRP2[ ]	/* SetRefPoint2 */\012IP[ ]	/* InterpolatePts */\012PUSHW[ ]	/* 3 values pushed */\01220 21 23 \012SRP1[ ]	/* SetRefPoint1 */\012SRP2[ ]	/* SetRefPoint2 */\012IP[ ]	/* InterpolatePts */\012PUSHW[ ]	/* 3 values pushed */\01225 21 23 \012SRP1[ ]	/* SetRefPoint1 */\012SRP2[ ]	/* SetRefPoint2 */\012IP[ ]	/* InterpolatePts */\012IUP[0]	/* InterpolateUntPts */\012IUP[1]	/* InterpolateUntPts */";
};
width = 442;
}
);
note = N.tabular;
},
{
glyphname = O.tabular;
lastChange = "2021-12-03 01:44:13 +0000";
layers = (
{
anchors = (
{
name = bottom;
position = "{219, 0}";
},
{
name = center;
position = "{222, 296}";
},
{
name = ogonek;
position = "{266, 0}";
},
{
name = top;
position = "{219, 505}";
},
{
name = topleft;
position = "{20, 591}";
},
{
name = topright;
position = "{265, 495}";
}
);
layerId = "04A772B0-FA71-43EE-BB43-CAC7F0EBD631";
paths = (
{
closed = 1;
nodes = (
"322.072 -9 OFFCURVE",
"366 25.177 OFFCURVE",
"366 158 CURVE SMOOTH",
"366 377 LINE SMOOTH",
"366 471.667 OFFCURVE",
"311 505 OFFCURVE",
"219 505 CURVE SMOOTH",
"127 505 OFFCURVE",
"66 470.333 OFFCURVE",
"66 377 CURVE SMOOTH",
"66 157 LINE SMOOTH",
"66 25.033 OFFCURVE",
"115.969 -9 OFFCURVE",
"219 -9 CURVE SMOOTH"
);
},
{
closed = 1;
nodes = (
"126.464 9 OFFCURVE",
"83 40.133 OFFCURVE",
"83 157 CURVE SMOOTH",
"83 377 LINE SMOOTH",
"83 458.333 OFFCURVE",
"136.333 487 OFFCURVE",
"219 487 CURVE SMOOTH",
"300.333 487 OFFCURVE",
"350 458.333 OFFCURVE",
"350 377 CURVE SMOOTH",
"350 158 LINE SMOOTH",
"350 40.29 OFFCURVE",
"310.498 9 OFFCURVE",
"219 9 CURVE SMOOTH"
);
},
{
closed = 1;
nodes = (
"303.545 18 OFFCURVE",
"341 46.477 OFFCURVE",
"341 158 CURVE SMOOTH",
"341 377 LINE SMOOTH",
"341 451.667 OFFCURVE",
"295 478 OFFCURVE",
"219 478 CURVE SMOOTH",
"141.667 478 OFFCURVE",
"91 451.667 OFFCURVE",
"91 377 CURVE SMOOTH",
"91 157 LINE SMOOTH",
"91 46.559 OFFCURVE",
"132.677 18 OFFCURVE",
"219 18 CURVE SMOOTH"
);
},
{
closed = 1;
nodes = (
"215 87 OFFCURVE",
"212 88.5 OFFCURVE",
"210 91.5 CURVE SMOOTH",
"208 94.5 OFFCURVE",
"207 100.333 OFFCURVE",
"207 109 CURVE SMOOTH",
"207 382 LINE SMOOTH",
"207 391.333 OFFCURVE",
"208 397.667 OFFCURVE",
"210 401 CURVE SMOOTH",
"212 404.333 OFFCURVE",
"215 406 OFFCURVE",
"219 406 CURVE SMOOTH",
"222.333 406 OFFCURVE",
"225 404.333 OFFCURVE",
"227 401 CURVE SMOOTH",
"229 397.667 OFFCURVE",
"230 391.333 OFFCURVE",
"230 382 CURVE SMOOTH",
"230 109 LINE SMOOTH",
"230 100.333 OFFCURVE",
"229 94.5 OFFCURVE",
"227 91.5 CURVE SMOOTH",
"225 88.5 OFFCURVE",
"222.333 87 OFFCURVE",
"219 87 CURVE SMOOTH"
);
},
{
closed = 1;
nodes = (
"220.333 96 OFFCURVE",
"221 100.333 OFFCURVE",
"221 109 CURVE SMOOTH",
"221 382 LINE SMOOTH",
"221 392 OFFCURVE",
"220.333 397 OFFCURVE",
"219 397 CURVE SMOOTH",
"217 397 OFFCURVE",
"216 392 OFFCURVE",
"216 382 CURVE SMOOTH",
"216 109 LINE SMOOTH",
"216 100.333 OFFCURVE",
"217 96 OFFCURVE",
"219 96 CURVE SMOOTH"
);
}
);
userData = {
assembly = "PUSHW[ ]	/* 4 values pushed */\01229 6 65 4 \012CALL[ ]	/* CallFunction */\012PUSHW[ ]	/* 4 values pushed */\01213 6 34 4 \012CALL[ ]	/* CallFunction */\012PUSHW[ ]	/* 1 value pushed */\01229 \012SRP0[ ]	/* SetRefPoint0 */\012PUSHW[ ]	/* 2 values pushed */\0125 6 \012MIRP[10100]	/* MoveIndirectRelPt */\012PUSHW[ ]	/* 1 value pushed */\01213 \012SRP0[ ]	/* SetRefPoint0 */\012PUSHW[ ]	/* 2 values pushed */\01221 6 \012MIRP[10100]	/* MoveIndirectRelPt */\012PUSHW[ ]	/* 1 value pushed */\01234 \012SRP0[ ]	/* SetRefPoint0 */\012PUSHW[ ]	/* 1 value pushed */\01239 \012MDRP[10000]	/* MoveDirectRelPt */\012PUSHW[ ]	/* 1 value pushed */\01239 \012MDAP[1]	/* MoveDirectAbsPt */\012PUSHW[ ]	/* 1 value pushed */\0125 \012SRP0[ ]	/* SetRefPoint0 */\012PUSHW[ ]	/* 2 values pushed */\01240 6 \012MIRP[10100]	/* MoveIndirectRelPt */\012PUSHW[ ]	/* 1 value pushed */\01221 \012SRP0[ ]	/* SetRefPoint0 */\012PUSHW[ ]	/* 2 values pushed */\01273 6 \012MIRP[10100]	/* MoveIndirectRelPt */\012PUSHW[ ]	/* 1 value pushed */\01213 \012SRP0[ ]	/* SetRefPoint0 */\012PUSHW[ ]	/* 1 value pushed */\01279 \012MDRP[11100]	/* MoveDirectRelPt */\012SVTCA[0]	/* SetFreedomAndProjectionVectorToAxis */\012PUSHW[ ]	/* 1 value pushed */\01269 \012MDAP[1]	/* MoveDirectAbsPt */\012PUSHW[ ]	/* 1 value pushed */\0120 \012RCVT[ ]	/* ReadCVT */\012IF[ ]	/* If */\012PUSHW[ ]	/* 1 value pushed */\01260 \012MDAP[1]	/* MoveDirectAbsPt */\012ELSE[ ]	/* Else */\012PUSHW[ ]	/* 2 values pushed */\01260 7 \012MIAP[0]	/* MoveIndirectAbsPt */\012EIF[ ]	/* EndIf */\012IUP[0]	/* InterpolateUntPts */\012IUP[1]	/* InterpolateUntPts */";
};
width = 443;
}
);
note = O.tabular;
},
{
glyphname = Oslash.tabular;
lastChange = "2021-12-03 01:38:01 +0000";
layers = (
{
layerId = "04A772B0-FA71-43EE-BB43-CAC7F0EBD631";
paths = (
{
closed = 1;
nodes = (
"145 -40 LINE",
"147 -34.667 OFFCURVE",
"149.833 -28.667 OFFCURVE",
"153.5 -22 CURVE SMOOTH",
"164 -1 LINE",
"185.333 -7.667 OFFCURVE",
"208.667 -9 OFFCURVE",
"234 -9 CURVE SMOOTH",
"340.121 -9 OFFCURVE",
"387 25.786 OFFCURVE",
"387 160 CURVE SMOOTH",
"387 382 LINE SMOOTH",
"387 403.333 OFFCURVE",
"385.667 419 OFFCURVE",
"379 435 CURVE",
"436 549 LINE",
"303 549 LINE",
"300.333 543.667 OFFCURVE",
"297.167 537.333 OFFCURVE",
"293.5 530 CURVE SMOOTH",
"283 508 LINE",
"268.333 510.667 OFFCURVE",
"251.333 512 OFFCURVE",
"234 512 CURVE SMOOTH",
"138.668 512 OFFCURVE",
"76 476.075 OFFCURVE",
"76 382 CURVE SMOOTH",
"76 159 LINE SMOOTH",
"76 135 OFFCURVE",
"78.333 113.667 OFFCURVE",
"81 95 CURVE",
"15 -40 LINE"
);
},
{
closed = 1;
nodes = (
"236 97 OFFCURVE",
"237 101.667 OFFCURVE",
"237 111 CURVE SMOOTH",
"237 186 LINE",
"231 174 LINE",
"231 111 LINE SMOOTH",
"231 101.667 OFFCURVE",
"232 97 OFFCURVE",
"234 97 CURVE SMOOTH"
);
},
{
closed = 1;
nodes = (
"230 88 OFFCURVE",
"227 89.5 OFFCURVE",
"225 92.5 CURVE SMOOTH",
"223 95.5 OFFCURVE",
"222 101.667 OFFCURVE",
"222 111 CURVE SMOOTH",
"222 177 LINE",
"245 225 LINE",
"245 111 LINE SMOOTH",
"245 101.667 OFFCURVE",
"244 95.5 OFFCURVE",
"242 92.5 CURVE SMOOTH",
"240 89.5 OFFCURVE",
"237.333 88 OFFCURVE",
"234 88 CURVE SMOOTH"
);
},
{
closed = 1;
nodes = (
"99 93 LINE",
"95 111 OFFCURVE",
"93 133 OFFCURVE",
"93 159 CURVE SMOOTH",
"93 382 LINE SMOOTH",
"93 464.667 OFFCURVE",
"148.667 494 OFFCURVE",
"234 494 CURVE SMOOTH",
"256.667 494 OFFCURVE",
"276 493.333 OFFCURVE",
"292 488 CURVE",
"314 531 LINE",
"406 531 LINE",
"360 436 LINE",
"366.667 420 OFFCURVE",
"370 404.667 OFFCURVE",
"370 382 CURVE SMOOTH",
"370 160 LINE SMOOTH",
"370 39.928 OFFCURVE",
"326.958 9 OFFCURVE",
"234 9 CURVE SMOOTH",
"203.333 9 OFFCURVE",
"177.667 11.333 OFFCURVE",
"155 22 CURVE",
"134 -22 LINE",
"43 -22 LINE"
);
},
{
closed = 1;
nodes = (
"129 -13 LINE",
"151 34 LINE",
"173.667 22 OFFCURVE",
"200.667 18 OFFCURVE",
"234 18 CURVE SMOOTH",
"323.076 18 OFFCURVE",
"361 46.743 OFFCURVE",
"361 160 CURVE SMOOTH",
"361 382 LINE SMOOTH",
"361 402.667 OFFCURVE",
"357 420.667 OFFCURVE",
"349 436 CURVE",
"392 522 LINE",
"319 522 LINE",
"297 476 LINE",
"279 482 OFFCURVE",
"258 485 OFFCURVE",
"234 485 CURVE SMOOTH",
"155.333 485 OFFCURVE",
"102 456.667 OFFCURVE",
"102 382 CURVE SMOOTH",
"102 159 LINE SMOOTH",
"102 131.667 OFFCURVE",
"104.333 109.667 OFFCURVE",
"109 93 CURVE",
"58 -13 LINE"
);
},
{
closed = 1;
nodes = (
"222 388 LINE SMOOTH",
"222 397.333 OFFCURVE",
"223 403.5 OFFCURVE",
"225 406.5 CURVE SMOOTH",
"227 409.5 OFFCURVE",
"230 411 OFFCURVE",
"234 411 CURVE SMOOTH",
"237.333 411 OFFCURVE",
"240 409.5 OFFCURVE",
"242 406.5 CURVE SMOOTH",
"244 403.5 OFFCURVE",
"245 397.333 OFFCURVE",
"245 388 CURVE SMOOTH",
"245 371 LINE",
"222 324 LINE"
);
},
{
closed = 1;
nodes = (
"237 374 LINE",
"237 388 LINE SMOOTH",
"237 397.333 OFFCURVE",
"236 402 OFFCURVE",
"234 402 CURVE SMOOTH",
"232 402 OFFCURVE",
"231 397.333 OFFCURVE",
"231 388 CURVE SMOOTH",
"231 362 LINE"
);
}
);
userData = {
assembly = "PUSHW[ ]	/* 4 values pushed */\01230 6 87 4 \012CALL[ ]	/* CallFunction */\012PUSHW[ ]	/* 4 values pushed */\01213 6 43 4 \012CALL[ ]	/* CallFunction */\012PUSHW[ ]	/* 1 value pushed */\01230 \012SRP0[ ]	/* SetRefPoint0 */\012PUSHW[ ]	/* 2 values pushed */\0122 6 \012MIRP[10100]	/* MoveIndirectRelPt */\012PUSHW[ ]	/* 1 value pushed */\01213 \012SRP0[ ]	/* SetRefPoint0 */\012PUSHW[ ]	/* 2 values pushed */\01228 6 \012MIRP[10100]	/* MoveIndirectRelPt */\012PUSHW[ ]	/* 1 value pushed */\01230 \012SRP0[ ]	/* SetRefPoint0 */\012PUSHW[ ]	/* 1 value pushed */\01234 \012MDRP[10000]	/* MoveDirectRelPt */\012PUSHW[ ]	/* 1 value pushed */\01228 \012SRP0[ ]	/* SetRefPoint0 */\012PUSHW[ ]	/* 1 value pushed */\01235 \012MDRP[10000]	/* MoveDirectRelPt */\012PUSHW[ ]	/* 1 value pushed */\01243 \012SRP0[ ]	/* SetRefPoint0 */\012PUSHW[ ]	/* 1 value pushed */\01247 \012MDRP[10000]	/* MoveDirectRelPt */\012PUSHW[ ]	/* 1 value pushed */\01247 \012MDAP[1]	/* MoveDirectAbsPt */\012PUSHW[ ]	/* 1 value pushed */\01243 \012SRP0[ ]	/* SetRefPoint0 */\012PUSHW[ ]	/* 1 value pushed */\01252 \012MDRP[10000]	/* MoveDirectRelPt */\012PUSHW[ ]	/* 1 value pushed */\01243 \012SRP0[ ]	/* SetRefPoint0 */\012PUSHW[ ]	/* 1 value pushed */\01254 \012MDRP[10000]	/* MoveDirectRelPt */\012PUSHW[ ]	/* 1 value pushed */\01254 \012MDAP[1]	/* MoveDirectAbsPt */\012PUSHW[ ]	/* 1 value pushed */\01228 \012SRP0[ ]	/* SetRefPoint0 */\012PUSHW[ ]	/* 2 values pushed */\012105 6 \012MIRP[10100]	/* MoveIndirectRelPt */\012PUSHW[ ]	/* 1 value pushed */\01213 \012SRP0[ ]	/* SetRefPoint0 */\012PUSHW[ ]	/* 1 value pushed */\012119 \012MDRP[11100]	/* MoveDirectRelPt */\012SVTCA[0]	/* SetFreedomAndProjectionVectorToAxis */\012PUSHW[ ]	/* 1 value pushed */\01299 \012MDAP[1]	/* MoveDirectAbsPt */\012PUSHW[ ]	/* 1 value pushed */\012116 \012MDAP[1]	/* MoveDirectAbsPt */\012PUSHW[ ]	/* 3 values pushed */\01210 116 99 \012SRP1[ ]	/* SetRefPoint1 */\012SRP2[ ]	/* SetRefPoint2 */\012IP[ ]	/* InterpolatePts */\012PUSHW[ ]	/* 3 values pushed */\01224 116 99 \012SRP1[ ]	/* SetRefPoint1 */\012SRP2[ ]	/* SetRefPoint2 */\012IP[ ]	/* InterpolatePts */\012PUSHW[ ]	/* 3 values pushed */\01229 116 99 \012SRP1[ ]	/* SetRefPoint1 */\012SRP2[ ]	/* SetRefPoint2 */\012IP[ ]	/* InterpolatePts */\012PUSHW[ ]	/* 3 values pushed */\01234 116 99 \012SRP1[ ]	/* SetRefPoint1 */\012SRP2[ ]	/* SetRefPoint2 */\012IP[ ]	/* InterpolatePts */\012PUSHW[ ]	/* 3 values pushed */\01249 116 99 \012SRP1[ ]	/* SetRefPoint1 */\012SRP2[ ]	/* SetRefPoint2 */\012IP[ ]	/* InterpolatePts */\012PUSHW[ ]	/* 3 values pushed */\01254 116 99 \012SRP1[ ]	/* SetRefPoint1 */\012SRP2[ ]	/* SetRefPoint2 */\012IP[ ]	/* InterpolatePts */\012PUSHW[ ]	/* 3 values pushed */\01257 116 99 \012SRP1[ ]	/* SetRefPoint1 */\012SRP2[ ]	/* SetRefPoint2 */\012IP[ ]	/* InterpolatePts */\012PUSHW[ ]	/* 3 values pushed */\01272 116 99 \012SRP1[ ]	/* SetRefPoint1 */\012SRP2[ ]	/* SetRefPoint2 */\012IP[ ]	/* InterpolatePts */\012IUP[0]	/* InterpolateUntPts */\012IUP[1]	/* InterpolateUntPts */";
};
width = 457;
}
);
note = Oslash.tabular;
},
{
glyphname = OE.tabular;
lastChange = "2021-12-03 01:38:01 +0000";
layers = (
{
layerId = "04A772B0-FA71-43EE-BB43-CAC7F0EBD631";
paths = (
{
closed = 1;
nodes = (
"209.333 -9 OFFCURVE",
"233.667 -6 OFFCURVE",
"255 0 CURVE",
"430 0 LINE",
"430 135 LINE",
"342 135 LINE",
"342 181 LINE",
"423 181 LINE",
"423 329 LINE",
"342 329 LINE",
"342 361 LINE",
"430 361 LINE",
"430 498 LINE",
"247 498 LINE",
"228.333 502.667 OFFCURVE",
"206.667 505 OFFCURVE",
"182 505 CURVE SMOOTH",
"86 505 OFFCURVE",
"22 470.333 OFFCURVE",
"22 377 CURVE SMOOTH",
"22 157 LINE SMOOTH",
"22 24.254 OFFCURVE",
"75.61 -9 OFFCURVE",
"182 -9 CURVE SMOOTH"
);
},
{
closed = 1;
nodes = (
"178 87 OFFCURVE",
"175 88.5 OFFCURVE",
"173 91.5 CURVE SMOOTH",
"171 94.5 OFFCURVE",
"170 100.333 OFFCURVE",
"170 109 CURVE SMOOTH",
"170 382 LINE SMOOTH",
"170 391.333 OFFCURVE",
"171 397.667 OFFCURVE",
"173 401 CURVE SMOOTH",
"175 404.333 OFFCURVE",
"178 406 OFFCURVE",
"182 406 CURVE SMOOTH",
"185.333 406 OFFCURVE",
"188 404.333 OFFCURVE",
"190 401 CURVE SMOOTH",
"192 397.667 OFFCURVE",
"193 391.333 OFFCURVE",
"193 382 CURVE SMOOTH",
"193 109 LINE SMOOTH",
"193 100.333 OFFCURVE",
"192 94.5 OFFCURVE",
"190 91.5 CURVE SMOOTH",
"188 88.5 OFFCURVE",
"185.333 87 OFFCURVE",
"182 87 CURVE SMOOTH"
);
},
{
closed = 1;
nodes = (
"183.333 96 OFFCURVE",
"184 100.333 OFFCURVE",
"184 109 CURVE SMOOTH",
"184 382 LINE SMOOTH",
"184 392 OFFCURVE",
"183.333 397 OFFCURVE",
"182 397 CURVE SMOOTH",
"179.333 397 OFFCURVE",
"178 392 OFFCURVE",
"178 382 CURVE SMOOTH",
"178 109 LINE SMOOTH",
"178 100.333 OFFCURVE",
"179.333 96 OFFCURVE",
"182 96 CURVE SMOOTH"
);
},
{
closed = 1;
nodes = (
"86.296 9 OFFCURVE",
"40 38.77 OFFCURVE",
"40 157 CURVE SMOOTH",
"40 377 LINE SMOOTH",
"40 458.333 OFFCURVE",
"95.333 487 OFFCURVE",
"182 487 CURVE SMOOTH",
"203.333 487 OFFCURVE",
"227.667 484 OFFCURVE",
"245 480 CURVE",
"413 480 LINE",
"413 379 LINE",
"325 379 LINE",
"325 311 LINE",
"406 311 LINE",
"406 199 LINE",
"325 199 LINE",
"325 117 LINE",
"413 117 LINE",
"413 18 LINE",
"252 18 LINE",
"232 12 OFFCURVE",
"208.667 9 OFFCURVE",
"182 9 CURVE SMOOTH"
);
},
{
closed = 1;
nodes = (
"207.333 18 OFFCURVE",
"229.667 21 OFFCURVE",
"249 27 CURVE",
"404 27 LINE",
"404 108 LINE",
"316 108 LINE",
"316 208 LINE",
"397 208 LINE",
"397 302 LINE",
"316 302 LINE",
"316 388 LINE",
"404 388 LINE",
"404 471 LINE",
"243 471 LINE",
"224.333 475 OFFCURVE",
"204.667 478 OFFCURVE",
"182 478 CURVE SMOOTH",
"102 478 OFFCURVE",
"48 451.667 OFFCURVE",
"48 377 CURVE SMOOTH",
"48 157 LINE SMOOTH",
"48 46.335 OFFCURVE",
"93.267 18 OFFCURVE",
"182 18 CURVE SMOOTH"
);
}
);
userData = {
assembly = "PUSHW[ ]	/* 4 values pushed */\01236 6 79 4 \012CALL[ ]	/* CallFunction */\012PUSHW[ ]	/* 4 values pushed */\01220 6 41 4 \012CALL[ ]	/* CallFunction */\012PUSHW[ ]	/* 4 values pushed */\01291 6 55 4 \012CALL[ ]	/* CallFunction */\012PUSHW[ ]	/* 1 value pushed */\01236 \012SRP0[ ]	/* SetRefPoint0 */\012PUSHW[ ]	/* 2 values pushed */\0125 6 \012MIRP[10100]	/* MoveIndirectRelPt */\012PUSHW[ ]	/* 1 value pushed */\01220 \012SRP0[ ]	/* SetRefPoint0 */\012PUSHW[ ]	/* 2 values pushed */\01228 6 \012MIRP[10100]	/* MoveIndirectRelPt */\012PUSHW[ ]	/* 2 values pushed */\01218 5 \012MIRP[10100]	/* MoveIndirectRelPt */\012PUSHW[ ]	/* 1 value pushed */\01213 \012MDRP[10000]	/* MoveDirectRelPt */\012PUSHW[ ]	/* 1 value pushed */\01213 \012MDAP[1]	/* MoveDirectAbsPt */\012PUSHW[ ]	/* 1 value pushed */\01220 \012SRP0[ ]	/* SetRefPoint0 */\012PUSHW[ ]	/* 1 value pushed */\01215 \012MDRP[10000]	/* MoveDirectRelPt */\012PUSHW[ ]	/* 1 value pushed */\01218 \012SRP0[ ]	/* SetRefPoint0 */\012PUSHW[ ]	/* 1 value pushed */\01221 \012MDRP[10000]	/* MoveDirectRelPt */\012PUSHW[ ]	/* 1 value pushed */\01221 \012MDAP[1]	/* MoveDirectAbsPt */\012PUSHW[ ]	/* 1 value pushed */\01241 \012SRP0[ ]	/* SetRefPoint0 */\012PUSHW[ ]	/* 1 value pushed */\01246 \012MDRP[10000]	/* MoveDirectRelPt */\012PUSHW[ ]	/* 1 value pushed */\01246 \012MDAP[1]	/* MoveDirectAbsPt */\012PUSHW[ ]	/* 1 value pushed */\0125 \012SRP0[ ]	/* SetRefPoint0 */\012PUSHW[ ]	/* 2 values pushed */\01247 6 \012MIRP[10100]	/* MoveIndirectRelPt */\012PUSHW[ ]	/* 1 value pushed */\01255 \012SRP0[ ]	/* SetRefPoint0 */\012PUSHW[ ]	/* 1 value pushed */\01258 \012MDRP[10000]	/* MoveDirectRelPt */\012PUSHW[ ]	/* 1 value pushed */\01291 \012SRP0[ ]	/* SetRefPoint0 */\012PUSHW[ ]	/* 1 value pushed */\01286 \012MDRP[10000]	/* MoveDirectRelPt */\012PUSHW[ ]	/* 1 value pushed */\01286 \012MDAP[1]	/* MoveDirectAbsPt */\012PUSHW[ ]	/* 1 value pushed */\01228 \012SRP0[ ]	/* SetRefPoint0 */\012PUSHW[ ]	/* 2 values pushed */\01293 5 \012MIRP[10100]	/* MoveIndirectRelPt */\012PUSHW[ ]	/* 1 value pushed */\01288 \012MDRP[10000]	/* MoveDirectRelPt */\012PUSHW[ ]	/* 1 value pushed */\01291 \012SRP0[ ]	/* SetRefPoint0 */\012PUSHW[ ]	/* 1 value pushed */\01294 \012MDRP[10000]	/* MoveDirectRelPt */\012PUSHW[ ]	/* 1 value pushed */\01294 \012MDAP[1]	/* MoveDirectAbsPt */\012PUSHW[ ]	/* 1 value pushed */\01291 \012SRP0[ ]	/* SetRefPoint0 */\012PUSHW[ ]	/* 1 value pushed */\01299 \012MDRP[11100]	/* MoveDirectRelPt */\012SVTCA[0]	/* SetFreedomAndProjectionVectorToAxis */\012PUSHW[ ]	/* 1 value pushed */\01283 \012MDAP[1]	/* MoveDirectAbsPt */\012PUSHW[ ]	/* 1 value pushed */\01285 \012MDAP[1]	/* MoveDirectAbsPt */\012PUSHW[ ]	/* 1 value pushed */\0120 \012RCVT[ ]	/* ReadCVT */\012IF[ ]	/* If */\012PUSHW[ ]	/* 1 value pushed */\01286 \012MDAP[1]	/* MoveDirectAbsPt */\012ELSE[ ]	/* Else */\012PUSHW[ ]	/* 2 values pushed */\01286 11 \012MIAP[0]	/* MoveIndirectAbsPt */\012EIF[ ]	/* EndIf */\012PUSHW[ ]	/* 1 value pushed */\0120 \012RCVT[ ]	/* ReadCVT */\012IF[ ]	/* If */\012PUSHW[ ]	/* 1 value pushed */\01295 \012MDAP[1]	/* MoveDirectAbsPt */\012ELSE[ ]	/* Else */\012PUSHW[ ]	/* 2 values pushed */\01295 7 \012MIAP[0]	/* MoveIndirectAbsPt */\012EIF[ ]	/* EndIf */\012PUSHW[ ]	/* 1 value pushed */\0120 \012RCVT[ ]	/* ReadCVT */\012IF[ ]	/* If */\012PUSHW[ ]	/* 1 value pushed */\01274 \012MDAP[1]	/* MoveDirectAbsPt */\012ELSE[ ]	/* Else */\012PUSHW[ ]	/* 2 values pushed */\01274 7 \012MIAP[0]	/* MoveIndirectAbsPt */\012EIF[ ]	/* EndIf */\012PUSHW[ ]	/* 4 values pushed */\01221 2 22 4 \012CALL[ ]	/* CallFunction */\012PUSHW[ ]	/* 4 values pushed */\01256 2 53 4 \012CALL[ ]	/* CallFunction */\012PUSHW[ ]	/* 4 values pushed */\01217 4 91 4 \012CALL[ ]	/* CallFunction */\012PUSHW[ ]	/* 4 values pushed */\01260 2 57 4 \012CALL[ ]	/* CallFunction */\012PUSHW[ ]	/* 4 values pushed */\01290 4 18 4 \012CALL[ ]	/* CallFunction */\012PUSHW[ ]	/* 1 value pushed */\01274 \012SRP0[ ]	/* SetRefPoint0 */\012PUSHW[ ]	/* 1 value pushed */\0120 \012MDRP[11100]	/* MoveDirectRelPt */\012NPUSHW[ ]	/* 27 values pushed */\0127 0 23 0 39 0 55 0 71 0 87 0 103 0 119 0 135 0 151 0 167 0 183 0 199 0 13 \012DELTAP1[ ]	/* DeltaExceptionP1 */\012NPUSHW[ ]	/* 5 values pushed */\012214 0 230 0 2 \012DELTAP1[ ]	/* DeltaExceptionP1 */\012PUSHW[ ]	/* 1 value pushed */\01286 \012SRP0[ ]	/* SetRefPoint0 */\012PUSHW[ ]	/* 2 values pushed */\01214 4 \012MIRP[10100]	/* MoveIndirectRelPt */\012PUSHW[ ]	/* 2 values pushed */\01213 2 \012MIRP[10100]	/* MoveIndirectRelPt */\012PUSHW[ ]	/* 1 value pushed */\0129 \012MDRP[10000]	/* MoveDirectRelPt */\012PUSHW[ ]	/* 1 value pushed */\0129 \012MDAP[1]	/* MoveDirectAbsPt */\012PUSHW[ ]	/* 1 value pushed */\0120 \012SRP0[ ]	/* SetRefPoint0 */\012PUSHW[ ]	/* 1 value pushed */\01251 \012MDRP[10000]	/* MoveDirectRelPt */\012PUSHW[ ]	/* 1 value pushed */\01252 \012MDRP[10000]	/* MoveDirectRelPt */\012PUSHW[ ]	/* 1 value pushed */\01213 \012SRP0[ ]	/* SetRefPoint0 */\012PUSHW[ ]	/* 2 values pushed */\01287 4 \012MIRP[10100]	/* MoveIndirectRelPt */\012PUSHW[ ]	/* 1 value pushed */\01222 \012SRP0[ ]	/* SetRefPoint0 */\012PUSHW[ ]	/* 2 values pushed */\01294 4 \012MIRP[10100]	/* MoveIndirectRelPt */\012IUP[0]	/* InterpolateUntPts */\012IUP[1]	/* InterpolateUntPts */";
};
width = 460;
}
);
note = OE.tabular;
},
{
glyphname = P.tabular;
lastChange = "2021-12-03 01:38:01 +0000";
layers = (
{
layerId = "04A772B0-FA71-43EE-BB43-CAC7F0EBD631";
paths = (
{
closed = 1;
nodes = (
"232 0 LINE",
"232 168 LINE",
"259 168 LINE SMOOTH",
"341.204 168 OFFCURVE",
"366 236.982 OFFCURVE",
"366 320 CURVE SMOOTH",
"366 394 LINE SMOOTH",
"366 452.667 OFFCURVE",
"332.667 496 OFFCURVE",
"254 496 CURVE SMOOTH",
"66 496 LINE",
"66 0 LINE"
);
},
{
closed = 1;
nodes = (
"83 478 LINE",
"254 478 LINE SMOOTH",
"322 478 OFFCURVE",
"350 443.333 OFFCURVE",
"350 394 CURVE SMOOTH",
"350 320 LINE SMOOTH",
"350 248.028 OFFCURVE",
"329.604 186 OFFCURVE",
"259 186 CURVE SMOOTH",
"216 186 LINE",
"216 18 LINE",
"83 18 LINE"
);
},
{
closed = 1;
nodes = (
"207 27 LINE",
"207 194 LINE",
"259 194 LINE SMOOTH",
"323.161 194 OFFCURVE",
"341 252.86 OFFCURVE",
"341 320 CURVE SMOOTH",
"341 394 LINE SMOOTH",
"341 438 OFFCURVE",
"316.667 469 OFFCURVE",
"254 469 CURVE SMOOTH",
"91 469 LINE",
"91 27 LINE"
);
},
{
closed = 1;
nodes = (
"207 407 LINE",
"218 407 LINE SMOOTH",
"224.667 407 OFFCURVE",
"228.5 401.5 OFFCURVE",
"229.5 390.5 CURVE SMOOTH",
"230.5 379.5 OFFCURVE",
"231 360.333 OFFCURVE",
"231 333 CURVE SMOOTH",
"231 305 OFFCURVE",
"229.833 285.667 OFFCURVE",
"227.5 275 CURVE SMOOTH",
"225.167 264.333 OFFCURVE",
"221.333 259 OFFCURVE",
"216 259 CURVE SMOOTH",
"207 259 LINE"
);
},
{
closed = 1;
nodes = (
"218 268 OFFCURVE",
"219.5 272.667 OFFCURVE",
"220.5 282 CURVE SMOOTH",
"221.5 291.333 OFFCURVE",
"222 308.333 OFFCURVE",
"222 333 CURVE SMOOTH",
"221.5 383.5 LINE SMOOTH",
"221.167 393.167 OFFCURVE",
"220 398 OFFCURVE",
"218 398 CURVE SMOOTH",
"216 398 LINE",
"216 268 LINE"
);
}
);
userData = {
assembly = "PUSHW[ ]	/* 4 values pushed */\01222 6 45 4 \012CALL[ ]	/* CallFunction */\012PUSHW[ ]	/* 4 values pushed */\0125 6 30 4 \012CALL[ ]	/* CallFunction */\012PUSHW[ ]	/* 1 value pushed */\01222 \012SRP0[ ]	/* SetRefPoint0 */\012PUSHW[ ]	/* 2 values pushed */\0120 6 \012MIRP[10100]	/* MoveIndirectRelPt */\012PUSHW[ ]	/* 1 value pushed */\01222 \012SRP0[ ]	/* SetRefPoint0 */\012PUSHW[ ]	/* 1 value pushed */\01211 \012MDRP[10000]	/* MoveDirectRelPt */\012PUSHW[ ]	/* 1 value pushed */\0125 \012SRP0[ ]	/* SetRefPoint0 */\012PUSHW[ ]	/* 2 values pushed */\01218 6 \012MIRP[10100]	/* MoveIndirectRelPt */\012PUSHW[ ]	/* 1 value pushed */\01230 \012SRP0[ ]	/* SetRefPoint0 */\012PUSHW[ ]	/* 1 value pushed */\01227 \012MDRP[10000]	/* MoveDirectRelPt */\012PUSHW[ ]	/* 1 value pushed */\01227 \012MDAP[1]	/* MoveDirectAbsPt */\012PUSHW[ ]	/* 1 value pushed */\01230 \012SRP0[ ]	/* SetRefPoint0 */\012PUSHW[ ]	/* 1 value pushed */\01232 \012MDRP[10000]	/* MoveDirectRelPt */\012PUSHW[ ]	/* 1 value pushed */\01218 \012SRP0[ ]	/* SetRefPoint0 */\012PUSHW[ ]	/* 2 values pushed */\01250 6 \012MIRP[10100]	/* MoveIndirectRelPt */\012PUSHW[ ]	/* 1 value pushed */\01218 \012SRP0[ ]	/* SetRefPoint0 */\012PUSHW[ ]	/* 1 value pushed */\01256 \012MDRP[10000]	/* MoveDirectRelPt */\012PUSHW[ ]	/* 1 value pushed */\01256 \012MDAP[1]	/* MoveDirectAbsPt */\012PUSHW[ ]	/* 1 value pushed */\0125 \012SRP0[ ]	/* SetRefPoint0 */\012PUSHW[ ]	/* 1 value pushed */\01260 \012MDRP[11100]	/* MoveDirectRelPt */\012SVTCA[0]	/* SetFreedomAndProjectionVectorToAxis */\012PUSHW[ ]	/* 1 value pushed */\0120 \012RCVT[ ]	/* ReadCVT */\012IF[ ]	/* If */\012PUSHW[ ]	/* 1 value pushed */\01245 \012MDAP[1]	/* MoveDirectAbsPt */\012ELSE[ ]	/* Else */\012PUSHW[ ]	/* 2 values pushed */\01245 11 \012MIAP[0]	/* MoveIndirectAbsPt */\012EIF[ ]	/* EndIf */\012PUSHW[ ]	/* 1 value pushed */\0120 \012RCVT[ ]	/* ReadCVT */\012IF[ ]	/* If */\012PUSHW[ ]	/* 1 value pushed */\01257 \012MDAP[1]	/* MoveDirectAbsPt */\012ELSE[ ]	/* Else */\012PUSHW[ ]	/* 2 values pushed */\01257 7 \012MIAP[0]	/* MoveIndirectAbsPt */\012EIF[ ]	/* EndIf */\012PUSHW[ ]	/* 3 values pushed */\01230 57 45 \012SRP1[ ]	/* SetRefPoint1 */\012SRP2[ ]	/* SetRefPoint2 */\012IP[ ]	/* InterpolatePts */\012PUSHW[ ]	/* 2 values pushed */\01233 4 \012MIRP[10100]	/* MoveIndirectRelPt */\012IUP[0]	/* InterpolateUntPts */\012IUP[1]	/* InterpolateUntPts */";
};
width = 443;
}
);
note = P.tabular;
},
